<?xml version="1.0" encoding="UTF-8" standalone="no"?>
<!-- Created with Inkscape (http://www.inkscape.org/) -->

<svg
   width="118.116"
   height="118.116"
   viewBox="0 0 31.251524 31.251521"
   version="1.1"
   id="svg1"
   xml:space="preserve"
   inkscape:version="1.4 (1:1.4+202410161351+e7c3feb100)"
   sodipodi:docname="freecad_macro_icon.svg"
   inkscape:export-filename="../personaldir/code/freecad_to_mujoco/AssemblyExportToMujoco.svg"
   inkscape:export-xdpi="96"
   inkscape:export-ydpi="96"
   xmlns:inkscape="http://www.inkscape.org/namespaces/inkscape"
   xmlns:sodipodi="http://sodipodi.sourceforge.net/DTD/sodipodi-0.dtd"
   xmlns:xlink="http://www.w3.org/1999/xlink"
   xmlns="http://www.w3.org/2000/svg"
   xmlns:svg="http://www.w3.org/2000/svg"><sodipodi:namedview
     id="namedview1"
     pagecolor="#ffffff"
     bordercolor="#000000"
     borderopacity="0.25"
     inkscape:showpageshadow="2"
     inkscape:pageopacity="0.0"
     inkscape:pagecheckerboard="0"
     inkscape:deskcolor="#d1d1d1"
     inkscape:document-units="mm"
     inkscape:zoom="3.0274222"
     inkscape:cx="2.9728262"
     inkscape:cy="73.164555"
     inkscape:window-width="1920"
     inkscape:window-height="1016"
     inkscape:window-x="0"
     inkscape:window-y="27"
     inkscape:window-maximized="1"
     inkscape:current-layer="svg1"
     inkscape:export-bgcolor="#ffffff00"><inkscape:page
       x="0"
       y="0"
       width="31.251524"
       height="31.25152"
       id="page2"
       margin="0"
       bleed="0" /></sodipodi:namedview><defs
     id="defs1"><linearGradient
       id="linearGradient4383"><stop
         stop-color="#3465a4"
         offset="0"
         id="stop2" /><stop
         stop-color="#729fcf"
         offset="1"
         id="stop4" /></linearGradient><linearGradient
       id="linearGradient4389"
       x1="20.243999"
       x2="17.243999"
       y1="37.588001"
       y2="27.587999"
       gradientTransform="translate(-1.2435,-2.5881)"
       gradientUnits="userSpaceOnUse"
       xlink:href="#linearGradient3774" /><linearGradient
       id="linearGradient4399"
       x1="48.714001"
       x2="44.714001"
       y1="45.585999"
       y2="34.585999"
       gradientTransform="translate(1.2856,1.4142)"
       gradientUnits="userSpaceOnUse"><stop
         stop-color="#c4a000"
         offset="0"
         id="stop8" /><stop
         stop-color="#edd400"
         offset="1"
         id="stop10" /></linearGradient><linearGradient
       id="linearGradient69042"
       x1="48.714001"
       x2="44.714001"
       y1="45.585999"
       y2="34.585999"
       gradientTransform="translate(-12.714,-17.586)"
       gradientUnits="userSpaceOnUse"
       xlink:href="#linearGradient3774" /><linearGradient
       id="linearGradient69056"
       x1="27.243999"
       x2="22.243999"
       y1="54.588001"
       y2="40.588001"
       gradientTransform="translate(-1.2435,-2.5881)"
       gradientUnits="userSpaceOnUse"><stop
         stop-color="#c4a000"
         offset="0"
         id="stop14" /><stop
         stop-color="#fce94f"
         offset="1"
         id="stop16" /></linearGradient><linearGradient
       id="linearGradient69709"
       x1="20.243999"
       x2="17.243999"
       y1="37.588001"
       y2="27.587999"
       gradientTransform="matrix(1,-0.026667,0,1,81.696,-5.3735)"
       gradientUnits="userSpaceOnUse"
       xlink:href="#linearGradient4383" /><linearGradient
       id="linearGradient69717"
       x1="50.714001"
       x2="48.714001"
       y1="25.586"
       y2="20.586"
       gradientTransform="translate(61.2256,1.0356)"
       gradientUnits="userSpaceOnUse"
       xlink:href="#linearGradient4383" /><linearGradient
       id="linearGradient3774"><stop
         stop-color="#4e9a06"
         offset="0"
         id="stop21" /><stop
         stop-color="#8ae234"
         offset="1"
         id="stop23" /></linearGradient><linearGradient
       inkscape:collect="always"
       xlink:href="#linearGradient69056"
       id="linearGradient920"
       gradientUnits="userSpaceOnUse"
       gradientTransform="translate(-41.2435,-2.5881)"
       x1="20.243999"
       y1="37.588001"
       x2="17.243999"
       y2="27.587999" /><linearGradient
       inkscape:collect="always"
       xlink:href="#linearGradient4399"
       id="linearGradient922"
       gradientUnits="userSpaceOnUse"
       gradientTransform="translate(-52.714,-17.586)"
       x1="48.714001"
       y1="45.585999"
       x2="44.714001"
       y2="34.585999" /><linearGradient
       inkscape:collect="always"
       xlink:href="#linearGradient69056"
       id="linearGradient1"
       gradientUnits="userSpaceOnUse"
       gradientTransform="translate(-1.2435,-2.5881)"
       x1="27.243999"
       y1="54.588001"
       x2="22.243999"
       y2="40.588001" /><linearGradient
       inkscape:collect="always"
       xlink:href="#linearGradient4399"
       id="linearGradient2"
       gradientUnits="userSpaceOnUse"
       gradientTransform="translate(1.2856,1.4142)"
       x1="48.714001"
       y1="45.585999"
       x2="44.714001"
       y2="34.585999" /><linearGradient
       xlink:href="#linearGradient3806"
       id="linearGradient3012"
       gradientUnits="userSpaceOnUse"
       gradientTransform="matrix(0.73269922,0,0,0.5925111,13.613318,24.513214)"
       x1="48.014042"
       y1="26.323408"
       x2="43.478561"
       y2="42.076672" /><linearGradient
       id="linearGradient3806"><stop
         style="stop-color:#ef2929;stop-opacity:1"
         offset="0"
         id="stop3808" /><stop
         style="stop-color:#a40000;stop-opacity:1"
         offset="1"
         id="stop3810" /></linearGradient></defs><g
     id="g2"
     inkscape:label="mujoco"
     transform="translate(-131.03697,-89.723968)"><path
       id="path2"
       style="fill:#ffffff;stroke-width:0.185321"
       inkscape:label="M"
       d="m 158.62082,100.73406 c -0.0977,0 -0.15293,0.0589 -0.17467,0.0853 -0.0217,0.0264 -0.032,0.0447 -0.045,0.0682 -0.026,0.0471 -0.0573,0.11268 -0.10904,0.22479 -0.10349,0.22422 -0.28435,0.63069 -0.61443,1.37408 -0.48916,1.10165 -0.90617,2.06294 -1.28623,2.96881 l -0.40255,0.96066 -1.05524,-2.56935 c -0.33299,-0.81061 -0.6366,-1.54845 -0.85731,-2.08359 -0.11036,-0.26757 -0.20012,-0.48415 -0.26252,-0.63459 -0.0312,-0.0752 -0.0555,-0.13396 -0.0723,-0.17415 -0.008,-0.0201 -0.0149,-0.0353 -0.0196,-0.0465 -0.002,-0.006 -0.004,-0.0101 -0.006,-0.0145 -9.8e-4,-0.002 -0.002,-0.004 -0.004,-0.008 -9.3e-4,-0.002 -0.002,-0.004 -0.005,-0.01 -0.001,-0.003 -0.008,-0.0134 -0.008,-0.0134 -3e-5,-5e-5 -0.0641,-0.0641 -0.0646,-0.0646 -1e-5,-10e-6 -0.22735,5.1e-4 -0.22737,5.3e-4 -2e-5,1e-5 -0.0579,0.0558 -0.0579,0.0558 -5e-5,7e-5 -0.0183,0.0316 -0.0212,0.0382 -0.006,0.0133 -0.007,0.0168 -0.008,0.0207 -0.002,0.008 -0.004,0.0117 -0.005,0.016 -0.002,0.009 -0.004,0.0173 -0.007,0.0289 -0.006,0.0232 -0.0132,0.0559 -0.0227,0.0977 -0.019,0.0836 -0.0458,0.2035 -0.0785,0.35192 -0.0656,0.29684 -0.15471,0.70645 -0.25218,1.15755 l -0.35451,1.63918 a 0.21005118,0.21005118 0 0 0 -0.002,0.006 l -0.46353,2.51561 c -0.12745,0.69178 -0.24321,1.3218 -0.32712,1.77921 -0.0419,0.22871 -0.0757,0.41432 -0.0992,0.54312 -0.0118,0.0644 -0.0212,0.11446 -0.0274,0.14883 -0.003,0.0172 -0.005,0.0305 -0.007,0.0398 -8.2e-4,0.005 -0.002,0.008 -0.002,0.0114 -2.7e-4,0.002 -7.5e-4,0.003 -0.001,0.005 -1.5e-4,9.2e-4 -1.9e-4,0.001 -5.3e-4,0.004 -1.6e-4,0.001 -1.6e-4,0.003 -5.2e-4,0.006 -3.5e-4,0.003 -0.002,0.0253 -0.002,0.0253 0,2e-5 0.0227,0.0961 0.0227,0.0961 1e-5,2e-5 0.0408,0.0548 0.0408,0.0548 3e-5,4e-5 0.0547,0.0382 0.0548,0.0383 1.5e-4,6e-5 0.0353,0.0135 0.0434,0.0155 0.0163,0.004 0.0216,0.004 0.0269,0.005 0.0106,0.001 0.0162,0.002 0.0227,0.002 0.013,7.4e-4 0.0268,0.001 0.0444,0.002 0.0353,9e-4 0.084,0.002 0.14366,0.002 0.11935,9.5e-4 0.28262,8.7e-4 0.46251,0 l 0.65164,-0.003 a 0.21005118,0.21005118 0 0 0 0.20619,-0.17467 l 0.3607,-2.13165 c 0.0993,-0.5861 0.1897,-1.11984 0.25528,-1.50792 0.003,-0.0163 0.004,-0.023 0.007,-0.0388 l 0.71985,1.78801 c 0.25924,0.64384 0.49613,1.23232 0.66921,1.66191 0.0865,0.21479 0.15733,0.38974 0.20671,0.51211 0.0247,0.0612 0.0439,0.10933 0.0574,0.14263 0.007,0.0166 0.0123,0.0296 0.016,0.0388 0.004,0.009 -4e-4,0.002 0.008,0.0212 0.0128,0.029 0.0776,0.11451 0.14934,0.13745 0.0718,0.023 0.0989,0.0132 0.13023,0.0114 l 0.062,-0.004 a 0.21005118,0.21005118 0 0 0 0.18138,-0.12816 l 0.98444,-2.33164 0.75706,-1.79214 c 0.007,0.0431 0.0107,0.0673 0.0181,0.11421 0.0614,0.39157 0.14215,0.90949 0.22273,1.42627 0.0806,0.51677 0.16106,1.03211 0.22117,1.41955 0.0301,0.19372 0.0549,0.35564 0.0724,0.46922 0.009,0.0568 0.0155,0.10169 0.0202,0.13229 0.002,0.0153 0.004,0.027 0.005,0.0346 5.3e-4,0.004 0.001,0.007 0.002,0.008 -1.3e-4,-0.001 -0.002,-0.0254 -0.002,-0.0253 0,6e-5 0.0165,0.0826 0.0165,0.0827 2e-5,6e-5 0.0341,0.0547 0.0341,0.0548 6e-5,7e-5 0.0314,0.0299 0.0315,0.03 8e-5,6e-5 0.0174,0.0116 0.0243,0.0155 0.0274,0.0157 0.04,0.0184 0.0501,0.0212 0.0202,0.006 0.0282,0.006 0.0367,0.007 0.017,0.002 0.0301,0.003 0.0465,0.004 0.0328,0.002 0.0755,0.003 0.13178,0.004 0.11248,0.002 0.27708,0.003 0.49402,0.003 h 0.65578 A 0.21005118,0.21005118 0 0 0 160.238,109.252 l -0.007,-0.032 c -6e-5,-3.5e-4 -5.3e-4,-0.001 -5.3e-4,-0.002 -5.3e-4,-0.004 -7.9e-4,-0.009 -0.002,-0.0155 -0.003,-0.015 -0.007,-0.0371 -0.0114,-0.0656 -0.01,-0.0571 -0.0232,-0.14003 -0.0408,-0.24649 -0.0353,-0.21292 -0.0861,-0.51862 -0.14831,-0.89452 -0.12434,-0.7518 -0.29476,-1.78421 -0.48162,-2.91558 -0.18687,-1.13142 -0.35772,-2.16328 -0.48214,-2.91404 -0.0622,-0.37538 -0.11248,-0.68065 -0.1478,-0.89297 -0.0177,-0.10615 -0.0318,-0.189 -0.0413,-0.24598 -0.005,-0.0285 -0.008,-0.0503 -0.0109,-0.0656 -0.001,-0.008 -0.002,-0.0136 -0.003,-0.0181 -8e-4,-0.004 0.003,0.0104 -0.004,-0.0176 v -5.3e-4 c -0.009,-0.039 -0.0328,-0.0956 -0.0837,-0.13694 -0.0511,-0.0415 -0.11401,-0.0537 -0.15555,-0.0537 z" /><path
       style="display:inline;fill:#142c6c;stroke:none;stroke-width:0.296527"
       d="m 152.13249,99.071886 c -1.12746,0.173716 -2.09072,1.018344 -2.38625,2.125454 -0.18626,0.69775 -0.11774,1.45935 -0.11774,2.17453 v 3.69011 c 0,1.13549 -0.14564,2.37054 0.53724,3.35469 0.87403,1.25963 2.23753,1.25794 3.61412,1.25794 h 3.62423 c 0.81844,0 1.69594,0.0864 2.50399,-0.0613 0.2751,-0.0503 0.54174,-0.14109 0.79032,-0.26925 1.49942,-0.77314 1.58187,-2.26793 1.58191,-3.75497 v -2.30631 -1.77915 c 0,-1.12624 0.12372,-2.32505 -0.58672,-3.28408 -0.88705,-1.197444 -2.21612,-1.196765 -3.56467,-1.19677 h -3.49242 c -0.82203,0 -1.68956,-0.07642 -2.50401,0.04906 m 1.3838,1.99367 2.43811,5.93053 h 0.0659 l 1.16338,-2.76758 1.40651,-3.16295 h 0.0659 l 1.3838,8.36864 H 158.722 l -0.65897,-4.21727 h -0.0659 l -1.97684,4.67853 h -0.13181 l -1.91094,-4.74442 h -0.0659 l -0.72483,4.28316 h -1.3179 l 0.94818,-5.13979 z"
       id="path93"
       inkscape:label="background" /></g><g
     id="g1"
     transform="matrix(0.26083235,0,0,0.26083235,-2.0866588,7.2518737)"
     inkscape:label="assembly"><g
       id="g40"
       style="stroke-width:2"><path
         d="M 9,49 V 35 l 28,10 v 14 z"
         id="path30"
         style="fill:url(#linearGradient1);stroke:#302b00;stroke-linejoin:round"
         inkscape:connector-curvature="0" /><path
         d="M 37,59 V 45 L 55,28 v 13 z"
         id="path32"
         style="fill:url(#linearGradient2);stroke:#302b00;stroke-linejoin:round"
         inkscape:connector-curvature="0" /><path
         d="M 11.008,47.606 11,37.9997 l 24,8 0.0081,10.185 z"
         id="path34"
         inkscape:connector-curvature="0"
         style="fill:none;stroke:#fce94f" /><path
         d="M 39.005,54.168 39,45.9998 l 14,-13 0.0021,7.1768 z"
         id="path36"
         inkscape:connector-curvature="0"
         style="fill:none;stroke:#edd400" /><path
         d="M 23,40 42,23 55,28 37,45 Z"
         id="path38"
         inkscape:connector-curvature="0"
         style="fill:#fce94f;stroke:#302b00;stroke-linejoin:round" /></g><g
       id="g943"
       transform="translate(-60)"><path
         d="m 91,33.5 -0.02739,-14.214 12.967,4.3352 v 14.5 z"
         id="path54"
         style="fill:url(#linearGradient69709);stroke:#0b1521;stroke-width:2;stroke-linejoin:round"
         inkscape:connector-curvature="0" /><path
         d="m 92.927,32.029 0.04731,-10.141 8.9272,3.29 0.0781,10.042 z"
         id="path56"
         inkscape:connector-curvature="0"
         style="fill:none;stroke:#729fcf;stroke-width:2" /><path
         d="m 103.94,38.121 v -14.5 l 11,-9 L 115,28 Z"
         id="path58"
         style="fill:url(#linearGradient69717);stroke:#0b1521;stroke-width:2;stroke-linejoin:round"
         inkscape:connector-curvature="0" /><path
         d="m 105.94,33.621 v -9 l 7,-6 -0.0122,8.5816 z"
         id="path60"
         inkscape:connector-curvature="0"
         style="fill:none;stroke:#729fcf;stroke-width:2" /><path
         d="M 90.973,19.286 102,9.9998 l 12.94,4.6214 -11,9 z"
         id="path62"
         inkscape:connector-curvature="0"
         style="fill:#729fcf;stroke:#0b1521;stroke-width:2;stroke-linejoin:round" /></g><g
       display="none"
       fill="#ef2929"
       fill-rule="evenodd"
       opacity="0.588"
       stroke="#ef2929"
       stroke-width="1px"
       id="g94"><path
         d="M 9,35 V 49"
         id="path66" /><path
         d="M 9,35 37,45"
         id="path68" /><path
         d="M 55,28 V 41"
         id="path70" /><path
         d="M 37,45 55,28"
         id="path72" /><path
         d="M 23,40 V 26"
         id="path74" /><path
         d="m 29,5 13,5"
         id="path76" /><path
         d="M 23,26 42,10"
         id="path78" /><path
         d="M 19,13 29,5"
         id="path80" /><path
         d="m 55,15 -9,8"
         id="path82" /><path
         d="M 42,23 V 10"
         id="path84" /><path
         d="m 42,23 14,5"
         id="path86" /><path
         d="M 23,40 42,23"
         id="path88" /><path
         d="M 23,10 H 42"
         id="path90" /><path
         d="M 34,17 V 30"
         id="path92" /></g><g
       id="g963"
       transform="translate(40)"><g
         style="stroke:#172a04;stroke-width:2;stroke-linejoin:round"
         transform="translate(-40)"
         id="g48"><path
           inkscape:connector-curvature="0"
           style="fill:url(#linearGradient4389)"
           id="path42"
           d="M 9,35 V 21 l 14,5 v 14 z" /><path
           style="fill:#8ae234"
           inkscape:connector-curvature="0"
           id="path44"
           d="M 9,21 28.585,5.209 42,10.0001 l -19,16 z" /><path
           inkscape:connector-curvature="0"
           style="fill:url(#linearGradient69042)"
           id="path46"
           d="M 23,40 V 26 l 7.9726,-6.7138 0.02739,13.714 z" /></g><path
         inkscape:connector-curvature="0"
         style="fill:url(#linearGradient920);fill-opacity:1;stroke:#172a04;stroke-width:2;stroke-linejoin:round"
         id="path912"
         d="M -31,35 V 21 l 14,5 v 14 z" /><path
         style="fill:#fce94f;fill-opacity:1;stroke:#172a04;stroke-width:2;stroke-linejoin:round;stroke-opacity:1"
         inkscape:connector-curvature="0"
         id="path914"
         d="M -31,21 -11.415,5.209 2,10.0001 l -19,16 z" /><path
         inkscape:connector-curvature="0"
         style="fill:url(#linearGradient922);fill-opacity:1;stroke:#172a04;stroke-width:2;stroke-linejoin:round"
         id="path916"
         d="M -17,40 V 26 l 7.9726,-6.7138 0.02739,13.714 z" /><path
         d="m -15,36 v -9 l 4,-3.5 v 9 z"
         id="path50"
         inkscape:connector-curvature="0"
         style="fill:none;stroke:#fce94f;stroke-width:2;stroke-opacity:1" /><path
         d="m -29.049,33.746 0.08695,-9.9796 9.9568,3.5229 -0.02105,9.9613 z"
         id="path52"
         inkscape:connector-curvature="0"
         style="fill:none;stroke:#fce94f;stroke-width:2;stroke-opacity:1" /></g></g><g
     id="layer3"
     style="display:inline"
     transform="matrix(0.26458333,0,0,0.26458333,3.7467811,3.8299445)"
     inkscape:label="arrow"><path
       style="display:inline;fill:#ef2929;fill-opacity:1;fill-rule:evenodd;stroke:#280000;stroke-width:2;stroke-linecap:round;stroke-linejoin:round;stroke-miterlimit:4;stroke-dasharray:none;stroke-opacity:1"
       d="m 45.628392,34.16514 v 5.682261 H 29 v 9.470435 h 16.628392 v 5.682261 L 59.881299,44.582619 Z"
       id="path3343" /><path
       style="display:inline;fill:url(#linearGradient3012);fill-opacity:1;fill-rule:evenodd;stroke:#ef2929;stroke-width:2;stroke-linecap:round;stroke-linejoin:round;stroke-miterlimit:4;stroke-dasharray:none;stroke-opacity:1"
       d="m 47.629277,38.105469 v 3.742187 H 31.000371 v 5.470703 h 16.628906 v 3.742188 l 8.863281,-6.478516 z"
       id="path1" /></g></svg>
