# Created by FreeCAD <https://www.freecad.org>
v 50.000000 0.000000 0.000000
v 49.937847 2.492294 0.000000
v 50.000000 0.000000 5.000000
v 49.937847 2.492294 5.000000
v 49.751537 4.978392 0.000000
v 49.751537 4.978392 5.000000
v 49.441540 7.452113 5.000000
v 49.441540 7.452113 0.000000
v 49.008625 9.907308 0.000000
v 49.008625 9.907308 5.000000
v 48.453865 12.337870 5.000000
v 48.453865 12.337870 0.000000
v 47.778641 14.737759 0.000000
v 47.778641 14.737759 5.000000
v 46.984631 17.101007 0.000000
v 46.984631 17.101007 5.000000
v 46.073811 19.421740 5.000000
v 46.073811 19.421740 0.000000
v 45.048443 21.694187 0.000000
v 45.048443 21.694187 5.000000
v 43.911079 23.912699 0.000000
v 43.911079 23.912699 5.000000
v 42.664543 26.071760 0.000000
v 42.664543 26.071760 5.000000
v 41.311939 28.166002 5.000000
v 41.311939 28.166002 0.000000
v 39.856625 30.190220 0.000000
v 39.856625 30.190220 5.000000
v 38.302223 32.139381 0.000000
v 38.302223 32.139381 5.000000
v 36.652592 34.008636 0.000000
v 36.652592 34.008636 5.000000
v 34.911842 35.793343 5.000000
v 34.911842 35.793343 0.000000
v 33.084293 37.489059 0.000000
v 33.084293 37.489059 5.000000
v 31.174490 39.091576 0.000000
v 31.174490 39.091576 5.000000
v 29.187183 40.596901 5.000000
v 29.187183 40.596901 0.000000
v 27.127314 42.001297 0.000000
v 27.127314 42.001297 5.000000
v 25.000000 43.301270 0.000000
v 25.000000 43.301270 5.000000
v 22.810534 44.493591 0.000000
v 22.810534 44.493591 5.000000
v 20.564356 45.575294 0.000000
v 20.564356 45.575294 5.000000
v 18.267052 46.543686 0.000000
v 18.267052 46.543686 5.000000
v 15.924333 47.396366 0.000000
v 15.924333 47.396366 5.000000
v 13.542024 48.131214 0.000000
v 13.542024 48.131214 5.000000
v 11.126047 48.746395 0.000000
v 11.126047 48.746395 5.000000
v 8.682409 49.240387 0.000000
v 8.682409 49.240387 5.000000
v 6.217185 49.611961 5.000000
v 6.217185 49.611961 0.000000
v 3.736505 49.860191 0.000000
v 3.736505 49.860191 5.000000
v 1.246535 49.984459 0.000000
v 1.246535 49.984459 5.000000
v -1.246535 49.984459 0.000000
v -1.246535 49.984459 5.000000
v -3.736505 49.860191 0.000000
v -3.736505 49.860191 5.000000
v -6.217185 49.611961 0.000000
v -6.217185 49.611961 5.000000
v -8.682409 49.240387 0.000000
v -8.682409 49.240387 5.000000
v -11.126047 48.746395 0.000000
v -11.126047 48.746395 5.000000
v -13.542024 48.131214 0.000000
v -13.542024 48.131214 5.000000
v -15.924333 47.396366 5.000000
v -15.924333 47.396366 0.000000
v -18.267052 46.543686 5.000000
v -18.267052 46.543686 0.000000
v -20.564356 45.575294 0.000000
v -20.564356 45.575294 5.000000
v -22.810534 44.493591 0.000000
v -22.810534 44.493591 5.000000
v -25.000000 43.301270 0.000000
v -25.000000 43.301270 5.000000
v -27.127314 42.001297 0.000000
v -27.127314 42.001297 5.000000
v -29.187183 40.596901 0.000000
v -29.187183 40.596901 5.000000
v -31.174490 39.091576 0.000000
v -31.174490 39.091576 5.000000
v -33.084293 37.489059 0.000000
v -33.084293 37.489059 5.000000
v -34.911842 35.793343 5.000000
v -34.911842 35.793343 0.000000
v -36.652592 34.008636 0.000000
v -36.652592 34.008636 5.000000
v -38.302223 32.139381 0.000000
v -38.302223 32.139381 5.000000
v -39.856625 30.190220 0.000000
v -39.856625 30.190220 5.000000
v -41.311939 28.166002 5.000000
v -41.311939 28.166002 0.000000
v -42.664543 26.071760 0.000000
v -42.664543 26.071760 5.000000
v -43.911079 23.912699 5.000000
v -43.911079 23.912699 0.000000
v -45.048443 21.694187 0.000000
v -45.048443 21.694187 5.000000
v -46.073811 19.421740 5.000000
v -46.073811 19.421740 0.000000
v -46.984631 17.101007 0.000000
v -46.984631 17.101007 5.000000
v -47.778641 14.737759 0.000000
v -47.778641 14.737759 5.000000
v -48.453865 12.337870 5.000000
v -48.453865 12.337870 0.000000
v -49.008625 9.907308 0.000000
v -49.008625 9.907308 5.000000
v -49.441540 7.452113 0.000000
v -49.441540 7.452113 5.000000
v -49.751537 4.978392 0.000000
v -49.751537 4.978392 5.000000
v -49.937847 2.492294 0.000000
v -49.937847 2.492294 5.000000
v -50.000000 -0.000000 5.000000
v -50.000000 -0.000000 0.000000
v -49.937847 -2.492294 5.000000
v -49.937847 -2.492294 0.000000
v -49.751537 -4.978392 0.000000
v -49.751537 -4.978392 5.000000
v -49.441540 -7.452113 5.000000
v -49.441540 -7.452113 0.000000
v -49.008625 -9.907308 5.000000
v -49.008625 -9.907308 0.000000
v -48.453865 -12.337870 5.000000
v -48.453865 -12.337870 0.000000
v -47.778641 -14.737759 0.000000
v -47.778641 -14.737759 5.000000
v -46.984631 -17.101007 5.000000
v -46.984631 -17.101007 0.000000
v -46.073811 -19.421740 0.000000
v -46.073811 -19.421740 5.000000
v -45.048443 -21.694187 0.000000
v -45.048443 -21.694187 5.000000
v -43.911079 -23.912699 5.000000
v -43.911079 -23.912699 0.000000
v -42.664543 -26.071760 0.000000
v -42.664543 -26.071760 5.000000
v -41.311939 -28.166002 0.000000
v -41.311939 -28.166002 5.000000
v -39.856625 -30.190220 0.000000
v -39.856625 -30.190220 5.000000
v -38.302223 -32.139381 5.000000
v -38.302223 -32.139381 0.000000
v -36.652592 -34.008636 0.000000
v -36.652592 -34.008636 5.000000
v -34.911842 -35.793343 0.000000
v -34.911842 -35.793343 5.000000
v -33.084293 -37.489059 5.000000
v -33.084293 -37.489059 0.000000
v -31.174490 -39.091576 0.000000
v -31.174490 -39.091576 5.000000
v -29.187183 -40.596901 0.000000
v -29.187183 -40.596901 5.000000
v -27.127314 -42.001297 0.000000
v -27.127314 -42.001297 5.000000
v -25.000000 -43.301270 5.000000
v -25.000000 -43.301270 0.000000
v -22.810534 -44.493591 0.000000
v -22.810534 -44.493591 5.000000
v -20.564356 -45.575294 0.000000
v -20.564356 -45.575294 5.000000
v -18.267052 -46.543686 0.000000
v -18.267052 -46.543686 5.000000
v -15.924333 -47.396366 0.000000
v -15.924333 -47.396366 5.000000
v -13.542024 -48.131214 0.000000
v -13.542024 -48.131214 5.000000
v -11.126047 -48.746395 0.000000
v -11.126047 -48.746395 5.000000
v -8.682409 -49.240387 0.000000
v -8.682409 -49.240387 5.000000
v -6.217185 -49.611961 5.000000
v -6.217185 -49.611961 0.000000
v -3.736505 -49.860191 0.000000
v -3.736505 -49.860191 5.000000
v -1.246535 -49.984459 0.000000
v -1.246535 -49.984459 5.000000
v 1.246535 -49.984459 0.000000
v 1.246535 -49.984459 5.000000
v 3.736505 -49.860191 0.000000
v 3.736505 -49.860191 5.000000
v 6.217185 -49.611961 0.000000
v 6.217185 -49.611961 5.000000
v 8.682409 -49.240387 0.000000
v 8.682409 -49.240387 5.000000
v 11.126047 -48.746395 0.000000
v 11.126047 -48.746395 5.000000
v 13.542024 -48.131214 0.000000
v 13.542024 -48.131214 5.000000
v 15.924333 -47.396366 0.000000
v 15.924333 -47.396366 5.000000
v 18.267052 -46.543686 0.000000
v 18.267052 -46.543686 5.000000
v 20.564356 -45.575294 0.000000
v 20.564356 -45.575294 5.000000
v 22.810534 -44.493591 0.000000
v 22.810534 -44.493591 5.000000
v 25.000000 -43.301270 5.000000
v 25.000000 -43.301270 0.000000
v 27.127314 -42.001297 0.000000
v 27.127314 -42.001297 5.000000
v 29.187183 -40.596901 0.000000
v 29.187183 -40.596901 5.000000
v 31.174490 -39.091576 0.000000
v 31.174490 -39.091576 5.000000
v 33.084293 -37.489059 0.000000
v 33.084293 -37.489059 5.000000
v 34.911842 -35.793343 0.000000
v 34.911842 -35.793343 5.000000
v 36.652592 -34.008636 0.000000
v 36.652592 -34.008636 5.000000
v 38.302223 -32.139381 0.000000
v 38.302223 -32.139381 5.000000
v 39.856625 -30.190220 0.000000
v 39.856625 -30.190220 5.000000
v 41.311939 -28.166002 0.000000
v 41.311939 -28.166002 5.000000
v 42.664543 -26.071760 0.000000
v 42.664543 -26.071760 5.000000
v 43.911079 -23.912699 0.000000
v 43.911079 -23.912699 5.000000
v 45.048443 -21.694187 0.000000
v 45.048443 -21.694187 5.000000
v 46.073811 -19.421740 0.000000
v 46.073811 -19.421740 5.000000
v 46.984631 -17.101007 0.000000
v 46.984631 -17.101007 5.000000
v 47.778641 -14.737759 5.000000
v 47.778641 -14.737759 0.000000
v 48.453865 -12.337870 0.000000
v 48.453865 -12.337870 5.000000
v 49.008625 -9.907308 0.000000
v 49.008625 -9.907308 5.000000
v 49.441540 -7.452113 0.000000
v 49.441540 -7.452113 5.000000
v 49.751537 -4.978392 0.000000
v 49.751537 -4.978392 5.000000
v 49.937847 -2.492294 0.000000
v 49.937847 -2.492294 5.000000
v -10.473553 -10.738003 5.000000
v -10.995778 -10.202591 5.000000
v -9.925287 -11.246718 5.000000
v -11.490666 -9.641814 5.000000
v -9.352347 -11.727472 5.000000
v -11.956987 -9.057066 5.000000
v -8.756155 -12.179070 5.000000
v -12.393581 -8.449800 5.000000
v -8.138194 -12.600389 5.000000
v -12.799363 -7.821528 5.000000
v -7.500000 -12.990381 5.000000
v -13.173324 -7.173810 5.000000
v -6.843160 -13.348077 5.000000
v -13.514533 -6.508256 5.000000
v -6.169307 -13.672587 5.000000
v -13.822144 -5.826522 5.000000
v -5.480115 -13.963106 5.000000
v -14.095389 -5.130302 5.000000
v -4.777300 -14.218910 5.000000
v -14.333592 -4.421328 5.000000
v -4.062607 -14.439363 5.000000
v -14.536160 -3.701361 5.000000
v -3.337814 -14.623919 5.000000
v -14.702587 -2.972192 5.000000
v -2.604723 -14.772117 5.000000
v -14.832462 -2.235634 5.000000
v -1.865156 -14.883588 5.000000
v -14.925462 -1.493518 5.000000
v -1.120951 -14.958057 5.000000
v -14.981354 -0.747688 5.000000
v -0.373960 -14.995337 5.000000
v -15.000000 -0.000000 5.000000
v 0.373960 -14.995337 5.000000
v -14.981354 0.747688 5.000000
v 1.120951 -14.958057 5.000000
v -14.925462 1.493518 5.000000
v 1.865156 -14.883588 5.000000
v -14.832462 2.235634 5.000000
v 2.604723 -14.772117 5.000000
v -14.702587 2.972192 5.000000
v 3.337814 -14.623919 5.000000
v -14.536160 3.701361 5.000000
v 4.062607 -14.439363 5.000000
v -14.333592 4.421328 5.000000
v 4.777300 -14.218910 5.000000
v -14.095389 5.130302 5.000000
v 5.480115 -13.963106 5.000000
v -13.822144 5.826522 5.000000
v 6.169307 -13.672587 5.000000
v -13.514533 6.508256 5.000000
v 6.843160 -13.348077 5.000000
v -13.173324 7.173810 5.000000
v 7.500000 -12.990381 5.000000
v -12.799363 7.821528 5.000000
v 8.138194 -12.600389 5.000000
v -12.393581 8.449800 5.000000
v 8.756155 -12.179070 5.000000
v -11.956987 9.057066 5.000000
v 9.352347 -11.727472 5.000000
v -11.490666 9.641814 5.000000
v 9.925287 -11.246718 5.000000
v -10.995778 10.202591 5.000000
v 10.473553 -10.738003 5.000000
v 10.995778 -10.202591 5.000000
v -10.473553 10.738003 5.000000
v -9.925287 11.246718 5.000000
v -9.352347 11.727472 5.000000
v 11.490666 -9.641814 5.000000
v 11.956987 -9.057066 5.000000
v -8.756155 12.179070 5.000000
v -8.138194 12.600389 5.000000
v 12.393581 -8.449800 5.000000
v 12.799363 -7.821528 5.000000
v -7.500000 12.990381 5.000000
v -6.843160 13.348077 5.000000
v 13.173324 -7.173810 5.000000
v 13.514533 -6.508256 5.000000
v -6.169307 13.672587 5.000000
v 13.822144 -5.826522 5.000000
v 14.095389 -5.130302 5.000000
v -5.480115 13.963106 5.000000
v 14.333592 -4.421328 5.000000
v -4.777300 14.218910 5.000000
v -4.062607 14.439363 5.000000
v 14.536160 -3.701361 5.000000
v -3.337814 14.623919 5.000000
v 14.702587 -2.972192 5.000000
v -2.604723 14.772117 5.000000
v 14.832462 -2.235634 5.000000
v -1.865156 14.883588 5.000000
v -1.120951 14.958057 5.000000
v 14.925462 -1.493518 5.000000
v 14.981354 -0.747688 5.000000
v -0.373960 14.995337 5.000000
v 15.000000 0.000000 5.000000
v 0.373960 14.995337 5.000000
v 14.981354 0.747688 5.000000
v 14.925462 1.493518 5.000000
v 1.120951 14.958057 5.000000
v 1.865156 14.883588 5.000000
v 2.604723 14.772117 5.000000
v 14.832462 2.235634 5.000000
v 14.702587 2.972192 5.000000
v 14.536160 3.701361 5.000000
v 3.337814 14.623919 5.000000
v 4.062607 14.439363 5.000000
v 14.333592 4.421328 5.000000
v 4.777300 14.218910 5.000000
v 5.480115 13.963106 5.000000
v 14.095389 5.130302 5.000000
v 13.822144 5.826522 5.000000
v 13.514533 6.508256 5.000000
v 6.169307 13.672587 5.000000
v 6.843160 13.348077 5.000000
v 7.500000 12.990381 5.000000
v 13.173324 7.173810 5.000000
v 12.799363 7.821528 5.000000
v 8.138194 12.600389 5.000000
v 12.393581 8.449800 5.000000
v 11.956987 9.057066 5.000000
v 8.756155 12.179070 5.000000
v 9.352347 11.727472 5.000000
v 11.490666 9.641814 5.000000
v 9.925287 11.246718 5.000000
v 10.473553 10.738003 5.000000
v 10.995778 10.202591 5.000000
v 15.000000 0.000000 25.000000
v 14.981354 0.747688 25.000000
v 14.925462 1.493518 25.000000
v 14.832462 2.235634 25.000000
v 14.702587 2.972192 25.000000
v 14.536160 3.701361 25.000000
v 14.333592 4.421328 25.000000
v 14.095389 5.130302 25.000000
v 13.822144 5.826522 25.000000
v 13.514533 6.508256 25.000000
v 13.173324 7.173810 25.000000
v 12.799363 7.821528 25.000000
v 12.393581 8.449800 25.000000
v 11.956987 9.057066 25.000000
v 11.490666 9.641814 25.000000
v 10.995778 10.202591 25.000000
v 10.473553 10.738003 25.000000
v 9.925287 11.246718 25.000000
v 9.352347 11.727472 25.000000
v 8.756155 12.179070 25.000000
v 8.138194 12.600389 25.000000
v 7.500000 12.990381 25.000000
v 6.843160 13.348077 25.000000
v 6.169307 13.672587 25.000000
v 5.480115 13.963106 25.000000
v 4.777300 14.218910 25.000000
v 4.062607 14.439363 25.000000
v 3.337814 14.623919 25.000000
v 2.604723 14.772117 25.000000
v 1.865156 14.883588 25.000000
v 1.120951 14.958057 25.000000
v 0.373960 14.995337 25.000000
v -0.373960 14.995337 25.000000
v -1.120951 14.958057 25.000000
v -1.865156 14.883588 25.000000
v -2.604723 14.772117 25.000000
v -3.337814 14.623919 25.000000
v -4.062607 14.439363 25.000000
v -4.777300 14.218910 25.000000
v -5.480115 13.963106 25.000000
v -6.169307 13.672587 25.000000
v -6.843160 13.348077 25.000000
v -7.500000 12.990381 25.000000
v -8.138194 12.600389 25.000000
v -8.756155 12.179070 25.000000
v -9.352347 11.727472 25.000000
v -9.925287 11.246718 25.000000
v -10.473553 10.738003 25.000000
v -10.995778 10.202591 25.000000
v -11.490666 9.641814 25.000000
v -11.956987 9.057066 25.000000
v -12.393581 8.449800 25.000000
v -12.799363 7.821528 25.000000
v -13.173324 7.173810 25.000000
v -13.514533 6.508256 25.000000
v -13.822144 5.826522 25.000000
v -14.095389 5.130302 25.000000
v -14.333592 4.421328 25.000000
v -14.536160 3.701361 25.000000
v -14.702587 2.972192 25.000000
v -14.832462 2.235634 25.000000
v -14.925462 1.493518 25.000000
v -14.981354 0.747688 25.000000
v -15.000000 -0.000000 25.000000
v -14.981354 -0.747688 25.000000
v -14.925462 -1.493518 25.000000
v -14.832462 -2.235634 25.000000
v -14.702587 -2.972192 25.000000
v -14.536160 -3.701361 25.000000
v -14.333592 -4.421328 25.000000
v -14.095389 -5.130302 25.000000
v -13.822144 -5.826522 25.000000
v -13.514533 -6.508256 25.000000
v -13.173324 -7.173810 25.000000
v -12.799363 -7.821528 25.000000
v -12.393581 -8.449800 25.000000
v -11.956987 -9.057066 25.000000
v -11.490666 -9.641814 25.000000
v -10.995778 -10.202591 25.000000
v -10.473553 -10.738003 25.000000
v -9.925287 -11.246718 25.000000
v -9.352347 -11.727472 25.000000
v -8.756155 -12.179070 25.000000
v -8.138194 -12.600389 25.000000
v -7.500000 -12.990381 25.000000
v -6.843160 -13.348077 25.000000
v -6.169307 -13.672587 25.000000
v -5.480115 -13.963106 25.000000
v -4.777300 -14.218910 25.000000
v -4.062607 -14.439363 25.000000
v -3.337814 -14.623919 25.000000
v -2.604723 -14.772117 25.000000
v -1.865156 -14.883588 25.000000
v -1.120951 -14.958057 25.000000
v -0.373960 -14.995337 25.000000
v 0.373960 -14.995337 25.000000
v 1.120951 -14.958057 25.000000
v 1.865156 -14.883588 25.000000
v 2.604723 -14.772117 25.000000
v 3.337814 -14.623919 25.000000
v 4.062607 -14.439363 25.000000
v 4.777300 -14.218910 25.000000
v 5.480115 -13.963106 25.000000
v 6.169307 -13.672587 25.000000
v 6.843160 -13.348077 25.000000
v 7.500000 -12.990381 25.000000
v 8.138194 -12.600389 25.000000
v 8.756155 -12.179070 25.000000
v 9.352347 -11.727472 25.000000
v 9.925287 -11.246718 25.000000
v 10.473553 -10.738003 25.000000
v 10.995778 -10.202591 25.000000
v 11.490666 -9.641814 25.000000
v 11.956987 -9.057066 25.000000
v 12.393581 -8.449800 25.000000
v 12.799363 -7.821528 25.000000
v 13.173324 -7.173810 25.000000
v 13.514533 -6.508256 25.000000
v 13.822144 -5.826522 25.000000
v 14.095389 -5.130302 25.000000
v 14.333592 -4.421328 25.000000
v 14.536160 -3.701361 25.000000
v 14.702587 -2.972192 25.000000
v 14.832462 -2.235634 25.000000
v 14.925462 -1.493518 25.000000
v 14.981354 -0.747688 25.000000
vn 0.999689 0.024930 -0.000000
vn 0.999689 0.024930 0.000000
vn 0.997204 0.074731 0.000000
vn 0.992239 0.124344 0.000000
vn 0.997204 0.074731 -0.000000
vn 0.992239 0.124344 0.000000
vn 0.984808 0.173647 0.000000
vn 0.974928 0.222521 0.000000
vn 0.984808 0.173647 -0.000000
vn 0.974928 0.222521 0.000000
vn 0.962624 0.270841 0.000000
vn 0.962624 0.270841 -0.000000
vn 0.947927 0.318487 0.000000
vn 0.930874 0.365341 0.000000
vn 0.947927 0.318487 -0.000000
vn 0.930874 0.365341 0.000000
vn 0.911506 0.411287 0.000000
vn 0.911506 0.411287 -0.000000
vn 0.889872 0.456210 0.000000
vn 0.889872 0.456210 -0.000000
vn 0.866025 0.500000 -0.000000
vn 0.866025 0.500000 0.000000
vn 0.840026 0.542546 0.000000
vn 0.840026 0.542546 0.000000
vn 0.811938 0.583744 -0.000000
vn 0.811938 0.583744 0.000000
vn 0.781832 0.623489 -0.000000
vn 0.781832 0.623489 0.000000
vn 0.749780 0.661687 0.000000
vn 0.715868 0.698236 0.000000
vn 0.749780 0.661687 -0.000000
vn 0.715868 0.698236 0.000000
vn 0.680173 0.733052 0.000000
vn 0.680173 0.733052 -0.000000
vn 0.642788 0.766044 0.000000
vn 0.603804 0.797133 0.000000
vn 0.642788 0.766044 -0.000000
vn 0.603804 0.797133 0.000000
vn 0.563320 0.826239 0.000000
vn 0.563320 0.826239 -0.000000
vn 0.521435 0.853291 0.000000
vn 0.521435 0.853291 -0.000000
vn 0.478255 0.878221 0.000000
vn 0.478255 0.878221 -0.000000
vn 0.433884 0.900969 0.000000
vn 0.433884 0.900969 -0.000000
vn 0.388434 0.921477 0.000000
vn 0.388434 0.921477 -0.000000
vn 0.342020 0.939693 0.000000
vn 0.342020 0.939693 -0.000000
vn 0.294756 0.955572 0.000000
vn 0.294756 0.955572 -0.000000
vn 0.246757 0.969077 0.000000
vn 0.246757 0.969077 -0.000000
vn 0.198146 0.980173 0.000000
vn 0.149043 0.988831 0.000000
vn 0.198146 0.980173 -0.000000
vn 0.149043 0.988831 0.000000
vn 0.099568 0.995031 0.000000
vn 0.099568 0.995031 -0.000000
vn 0.049845 0.998757 0.000000
vn 0.049845 0.998757 -0.000000
vn 0.000000 1.000000 0.000000
vn 0.000000 1.000000 -0.000000
vn -0.049845 0.998757 0.000000
vn -0.049845 0.998757 0.000000
vn -0.099568 0.995031 0.000000
vn -0.099568 0.995031 0.000000
vn -0.149043 0.988831 0.000000
vn -0.149043 0.988831 0.000000
vn -0.198146 0.980173 0.000000
vn -0.198146 0.980173 0.000000
vn -0.246757 0.969077 0.000000
vn -0.294756 0.955572 0.000000
vn -0.246757 0.969077 0.000000
vn -0.294756 0.955572 0.000000
vn -0.342020 0.939693 0.000000
vn -0.342020 0.939693 0.000000
vn -0.388434 0.921477 0.000000
vn -0.388434 0.921477 0.000000
vn -0.433884 0.900969 0.000000
vn -0.433884 0.900969 0.000000
vn -0.478255 0.878221 0.000000
vn -0.478255 0.878221 0.000000
vn -0.521435 0.853291 0.000000
vn -0.521435 0.853291 0.000000
vn -0.563320 0.826239 0.000000
vn -0.563320 0.826239 0.000000
vn -0.603804 0.797133 0.000000
vn -0.603804 0.797133 0.000000
vn -0.642788 0.766044 0.000000
vn -0.642788 0.766044 0.000000
vn -0.680173 0.733052 0.000000
vn -0.680173 0.733052 0.000000
vn -0.715868 0.698236 0.000000
vn -0.715868 0.698236 0.000000
vn -0.749780 0.661687 0.000000
vn -0.749780 0.661687 0.000000
vn -0.781832 0.623489 0.000000
vn -0.811938 0.583744 0.000000
vn -0.781832 0.623489 0.000000
vn -0.811938 0.583744 0.000000
vn -0.840026 0.542546 0.000000
vn -0.866025 0.500000 0.000000
vn -0.840026 0.542546 0.000000
vn -0.866025 0.500000 0.000000
vn -0.889872 0.456210 0.000000
vn -0.911506 0.411287 0.000000
vn -0.889872 0.456210 0.000000
vn -0.911506 0.411287 0.000000
vn -0.930874 0.365341 0.000000
vn -0.930874 0.365341 0.000000
vn -0.947927 0.318487 0.000000
vn -0.962624 0.270841 0.000000
vn -0.947927 0.318487 0.000000
vn -0.962624 0.270841 0.000000
vn -0.974928 0.222521 0.000000
vn -0.974928 0.222521 0.000000
vn -0.984808 0.173647 0.000000
vn -0.984808 0.173647 0.000000
vn -0.992239 0.124344 0.000000
vn -0.992239 0.124344 0.000000
vn -0.997204 0.074731 0.000000
vn -0.997204 0.074731 0.000000
vn -0.999689 0.024930 0.000000
vn -0.999689 0.024930 0.000000
vn -0.999689 -0.024930 -0.000000
vn -0.999689 -0.024930 0.000000
vn -0.997204 -0.074731 0.000000
vn -0.997204 -0.074731 0.000000
vn -0.992239 -0.124344 -0.000000
vn -0.992239 -0.124344 0.000000
vn -0.984808 -0.173647 -0.000000
vn -0.984808 -0.173647 0.000000
vn -0.974928 -0.222521 -0.000000
vn -0.974928 -0.222521 0.000000
vn -0.962624 -0.270841 0.000000
vn -0.962624 -0.270841 0.000000
vn -0.947927 -0.318487 -0.000000
vn -0.947927 -0.318487 0.000000
vn -0.930874 -0.365341 0.000000
vn -0.930874 -0.365341 0.000000
vn -0.911506 -0.411287 0.000000
vn -0.911506 -0.411287 0.000000
vn -0.889872 -0.456210 -0.000000
vn -0.889872 -0.456210 0.000000
vn -0.866025 -0.500000 0.000000
vn -0.866025 -0.500000 0.000000
vn -0.840026 -0.542546 0.000000
vn -0.840026 -0.542546 0.000000
vn -0.811938 -0.583744 0.000000
vn -0.811938 -0.583744 0.000000
vn -0.781832 -0.623489 -0.000000
vn -0.781832 -0.623489 0.000000
vn -0.749780 -0.661687 0.000000
vn -0.749780 -0.661687 0.000000
vn -0.715868 -0.698236 0.000000
vn -0.715868 -0.698236 0.000000
vn -0.680173 -0.733052 -0.000000
vn -0.680173 -0.733052 0.000000
vn -0.642788 -0.766044 0.000000
vn -0.642788 -0.766044 0.000000
vn -0.603804 -0.797133 0.000000
vn -0.603804 -0.797133 0.000000
vn -0.563320 -0.826239 0.000000
vn -0.563320 -0.826239 0.000000
vn -0.521435 -0.853291 -0.000000
vn -0.521435 -0.853291 0.000000
vn -0.478255 -0.878221 0.000000
vn -0.478255 -0.878221 0.000000
vn -0.433884 -0.900969 0.000000
vn -0.433884 -0.900969 0.000000
vn -0.388434 -0.921477 0.000000
vn -0.388434 -0.921477 0.000000
vn -0.342020 -0.939693 0.000000
vn -0.342020 -0.939693 0.000000
vn -0.294756 -0.955572 0.000000
vn -0.294756 -0.955572 0.000000
vn -0.246757 -0.969077 0.000000
vn -0.246757 -0.969077 0.000000
vn -0.198146 -0.980173 0.000000
vn -0.198146 -0.980173 0.000000
vn -0.149043 -0.988831 -0.000000
vn -0.149043 -0.988831 0.000000
vn -0.099568 -0.995031 0.000000
vn -0.099568 -0.995031 0.000000
vn -0.049845 -0.998757 0.000000
vn -0.049845 -0.998757 0.000000
vn 0.000000 -1.000000 0.000000
vn 0.000000 -1.000000 0.000000
vn 0.049845 -0.998757 0.000000
vn 0.049845 -0.998757 0.000000
vn 0.099568 -0.995031 0.000000
vn 0.099568 -0.995031 0.000000
vn 0.149043 -0.988831 0.000000
vn 0.149043 -0.988831 0.000000
vn 0.198146 -0.980173 0.000000
vn 0.198146 -0.980173 0.000000
vn 0.246757 -0.969077 0.000000
vn 0.246757 -0.969077 0.000000
vn 0.294756 -0.955572 0.000000
vn 0.294756 -0.955572 0.000000
vn 0.342020 -0.939693 0.000000
vn 0.342020 -0.939693 0.000000
vn 0.388434 -0.921477 0.000000
vn 0.388434 -0.921477 0.000000
vn 0.433884 -0.900969 0.000000
vn 0.478255 -0.878221 0.000000
vn 0.433884 -0.900969 0.000000
vn 0.478255 -0.878221 0.000000
vn 0.521435 -0.853291 0.000000
vn 0.521435 -0.853291 0.000000
vn 0.563320 -0.826239 0.000000
vn 0.563320 -0.826239 0.000000
vn 0.603804 -0.797133 0.000000
vn 0.603804 -0.797133 0.000000
vn 0.642788 -0.766044 0.000000
vn 0.642788 -0.766044 0.000000
vn 0.680173 -0.733052 0.000000
vn 0.680173 -0.733052 0.000000
vn 0.715868 -0.698236 0.000000
vn 0.715868 -0.698236 0.000000
vn 0.749780 -0.661687 0.000000
vn 0.749780 -0.661687 0.000000
vn 0.781832 -0.623489 0.000000
vn 0.781832 -0.623489 0.000000
vn 0.811938 -0.583744 0.000000
vn 0.811938 -0.583744 0.000000
vn 0.840026 -0.542546 0.000000
vn 0.840026 -0.542546 0.000000
vn 0.866025 -0.500000 0.000000
vn 0.866025 -0.500000 0.000000
vn 0.889872 -0.456210 0.000000
vn 0.889872 -0.456210 0.000000
vn 0.911506 -0.411287 0.000000
vn 0.911506 -0.411287 0.000000
vn 0.930874 -0.365341 0.000000
vn 0.947927 -0.318487 0.000000
vn 0.930874 -0.365341 0.000000
vn 0.947927 -0.318487 0.000000
vn 0.962624 -0.270841 0.000000
vn 0.962624 -0.270841 0.000000
vn 0.974928 -0.222521 0.000000
vn 0.974928 -0.222521 0.000000
vn 0.984808 -0.173647 0.000000
vn 0.984808 -0.173647 0.000000
vn 0.992239 -0.124344 0.000000
vn 0.992239 -0.124344 0.000000
vn 0.997204 -0.074731 0.000000
vn 0.999689 -0.024930 0.000000
vn 0.997204 -0.074731 0.000000
vn 0.999689 -0.024930 0.000000
vn 0.000000 0.000000 -1.000000
vn 0.000000 0.000000 -1.000000
vn 0.000000 0.000000 -1.000000
vn 0.000000 0.000000 -1.000000
vn 0.000000 0.000000 -1.000000
vn 0.000000 0.000000 -1.000000
vn 0.000000 0.000000 -1.000000
vn 0.000000 0.000000 -1.000000
vn 0.000000 0.000000 -1.000000
vn 0.000000 0.000000 -1.000000
vn 0.000000 0.000000 -1.000000
vn 0.000000 0.000000 -1.000000
vn 0.000000 0.000000 -1.000000
vn 0.000000 0.000000 -1.000000
vn 0.000000 0.000000 -1.000000
vn 0.000000 0.000000 -1.000000
vn 0.000000 0.000000 -1.000000
vn 0.000000 0.000000 -1.000000
vn 0.000000 0.000000 -1.000000
vn 0.000000 0.000000 -1.000000
vn 0.000000 0.000000 -1.000000
vn 0.000000 0.000000 -1.000000
vn 0.000000 0.000000 -1.000000
vn 0.000000 0.000000 -1.000000
vn 0.000000 0.000000 -1.000000
vn 0.000000 0.000000 -1.000000
vn 0.000000 0.000000 -1.000000
vn 0.000000 0.000000 -1.000000
vn 0.000000 0.000000 -1.000000
vn 0.000000 0.000000 -1.000000
vn 0.000000 0.000000 -1.000000
vn 0.000000 0.000000 -1.000000
vn 0.000000 -0.000000 -1.000000
vn 0.000000 -0.000000 -1.000000
vn 0.000000 -0.000000 -1.000000
vn 0.000000 -0.000000 -1.000000
vn 0.000000 0.000000 -1.000000
vn 0.000000 0.000000 -1.000000
vn 0.000000 -0.000000 -1.000000
vn 0.000000 0.000000 -1.000000
vn 0.000000 0.000000 -1.000000
vn 0.000000 0.000000 -1.000000
vn 0.000000 0.000000 -1.000000
vn 0.000000 0.000000 -1.000000
vn 0.000000 -0.000000 -1.000000
vn 0.000000 -0.000000 -1.000000
vn 0.000000 -0.000000 -1.000000
vn 0.000000 -0.000000 -1.000000
vn 0.000000 0.000000 -1.000000
vn 0.000000 0.000000 -1.000000
vn 0.000000 -0.000000 -1.000000
vn 0.000000 -0.000000 -1.000000
vn 0.000000 0.000000 -1.000000
vn 0.000000 0.000000 -1.000000
vn 0.000000 -0.000000 -1.000000
vn 0.000000 0.000000 -1.000000
vn 0.000000 0.000000 -1.000000
vn 0.000000 0.000000 -1.000000
vn 0.000000 -0.000000 -1.000000
vn 0.000000 -0.000000 -1.000000
vn 0.000000 0.000000 -1.000000
vn 0.000000 0.000000 -1.000000
vn 0.000000 -0.000000 -1.000000
vn 0.000000 -0.000000 -1.000000
vn 0.000000 0.000000 -1.000000
vn 0.000000 0.000000 -1.000000
vn 0.000000 0.000000 -1.000000
vn 0.000000 0.000000 -1.000000
vn 0.000000 0.000000 -1.000000
vn 0.000000 0.000000 -1.000000
vn 0.000000 -0.000000 -1.000000
vn 0.000000 -0.000000 -1.000000
vn 0.000000 -0.000000 -1.000000
vn 0.000000 -0.000000 -1.000000
vn 0.000000 0.000000 -1.000000
vn 0.000000 0.000000 -1.000000
vn 0.000000 -0.000000 -1.000000
vn 0.000000 -0.000000 -1.000000
vn 0.000000 -0.000000 -1.000000
vn 0.000000 -0.000000 -1.000000
vn 0.000000 -0.000000 -1.000000
vn 0.000000 0.000000 -1.000000
vn 0.000000 0.000000 -1.000000
vn 0.000000 0.000000 -1.000000
vn 0.000000 0.000000 -1.000000
vn 0.000000 0.000000 -1.000000
vn 0.000000 -0.000000 -1.000000
vn 0.000000 -0.000000 -1.000000
vn 0.000000 -0.000000 -1.000000
vn 0.000000 0.000000 -1.000000
vn 0.000000 0.000000 -1.000000
vn 0.000000 0.000000 -1.000000
vn 0.000000 0.000000 -1.000000
vn -0.000000 -0.000000 -1.000000
vn -0.000000 -0.000000 -1.000000
vn -0.000000 -0.000000 -1.000000
vn 0.000000 0.000000 -1.000000
vn 0.000000 0.000000 -1.000000
vn 0.000000 0.000000 -1.000000
vn 0.000000 0.000000 -1.000000
vn -0.000000 -0.000000 -1.000000
vn -0.000000 -0.000000 -1.000000
vn -0.000000 -0.000000 -1.000000
vn -0.000000 -0.000000 -1.000000
vn 0.000000 -0.000000 -1.000000
vn 0.000000 0.000000 -1.000000
vn 0.000000 0.000000 -1.000000
vn 0.000000 0.000000 -1.000000
vn -0.000000 -0.000000 -1.000000
vn 0.000000 0.000000 -1.000000
vn -0.000000 -0.000000 -1.000000
vn -0.000000 -0.000000 -1.000000
vn 0.000000 0.000000 -1.000000
vn 0.000000 0.000000 -1.000000
vn 0.000000 0.000000 -1.000000
vn 0.000000 0.000000 -1.000000
vn 0.000000 -0.000000 -1.000000
vn -0.000000 -0.000000 -1.000000
vn 0.000000 -0.000000 -1.000000
vn 0.000000 0.000000 -1.000000
vn 0.000000 0.000000 -1.000000
vn -0.000000 -0.000000 -1.000000
vn 0.000000 0.000000 -1.000000
vn 0.000000 0.000000 -1.000000
vn 0.000000 0.000000 1.000000
vn 0.000000 0.000000 1.000000
vn 0.000000 0.000000 1.000000
vn 0.000000 0.000000 1.000000
vn 0.000000 0.000000 1.000000
vn 0.000000 0.000000 1.000000
vn 0.000000 0.000000 1.000000
vn 0.000000 0.000000 1.000000
vn 0.000000 0.000000 1.000000
vn 0.000000 0.000000 1.000000
vn 0.000000 0.000000 1.000000
vn 0.000000 0.000000 1.000000
vn 0.000000 0.000000 1.000000
vn 0.000000 0.000000 1.000000
vn 0.000000 0.000000 1.000000
vn 0.000000 0.000000 1.000000
vn 0.000000 0.000000 1.000000
vn 0.000000 0.000000 1.000000
vn 0.000000 0.000000 1.000000
vn 0.000000 0.000000 1.000000
vn 0.000000 0.000000 1.000000
vn 0.000000 0.000000 1.000000
vn 0.000000 0.000000 1.000000
vn 0.000000 0.000000 1.000000
vn 0.000000 0.000000 1.000000
vn 0.000000 0.000000 1.000000
vn 0.000000 0.000000 1.000000
vn 0.000000 0.000000 1.000000
vn 0.000000 0.000000 1.000000
vn 0.000000 0.000000 1.000000
vn 0.000000 0.000000 1.000000
vn 0.000000 0.000000 1.000000
vn 0.000000 0.000000 1.000000
vn 0.000000 0.000000 1.000000
vn 0.000000 0.000000 1.000000
vn 0.000000 0.000000 1.000000
vn 0.000000 0.000000 1.000000
vn 0.000000 0.000000 1.000000
vn 0.000000 0.000000 1.000000
vn 0.000000 0.000000 1.000000
vn 0.000000 0.000000 1.000000
vn 0.000000 0.000000 1.000000
vn 0.000000 0.000000 1.000000
vn 0.000000 0.000000 1.000000
vn 0.000000 0.000000 1.000000
vn 0.000000 0.000000 1.000000
vn 0.000000 0.000000 1.000000
vn 0.000000 0.000000 1.000000
vn 0.000000 0.000000 1.000000
vn 0.000000 0.000000 1.000000
vn 0.000000 0.000000 1.000000
vn 0.000000 0.000000 1.000000
vn 0.000000 0.000000 1.000000
vn 0.000000 0.000000 1.000000
vn 0.000000 0.000000 1.000000
vn 0.000000 0.000000 1.000000
vn 0.000000 0.000000 1.000000
vn 0.000000 0.000000 1.000000
vn 0.000000 0.000000 1.000000
vn 0.000000 0.000000 1.000000
vn 0.000000 0.000000 1.000000
vn 0.000000 0.000000 1.000000
vn 0.000000 0.000000 1.000000
vn 0.000000 0.000000 1.000000
vn 0.000000 0.000000 1.000000
vn 0.000000 0.000000 1.000000
vn 0.000000 0.000000 1.000000
vn 0.000000 0.000000 1.000000
vn 0.000000 0.000000 1.000000
vn 0.000000 0.000000 1.000000
vn 0.000000 0.000000 1.000000
vn 0.000000 0.000000 1.000000
vn 0.000000 0.000000 1.000000
vn 0.000000 0.000000 1.000000
vn 0.000000 0.000000 1.000000
vn 0.000000 0.000000 1.000000
vn 0.000000 0.000000 1.000000
vn 0.000000 0.000000 1.000000
vn 0.000000 0.000000 1.000000
vn 0.000000 0.000000 1.000000
vn 0.000000 0.000000 1.000000
vn 0.000000 0.000000 1.000000
vn 0.000000 0.000000 1.000000
vn 0.000000 0.000000 1.000000
vn 0.000000 0.000000 1.000000
vn 0.000000 0.000000 1.000000
vn 0.000000 0.000000 1.000000
vn 0.000000 0.000000 1.000000
vn 0.000000 0.000000 1.000000
vn 0.000000 0.000000 1.000000
vn 0.000000 0.000000 1.000000
vn 0.000000 0.000000 1.000000
vn 0.000000 0.000000 1.000000
vn 0.000000 0.000000 1.000000
vn 0.000000 0.000000 1.000000
vn 0.000000 0.000000 1.000000
vn 0.000000 0.000000 1.000000
vn 0.000000 0.000000 1.000000
vn 0.000000 0.000000 1.000000
vn 0.000000 0.000000 1.000000
vn 0.000000 0.000000 1.000000
vn 0.000000 0.000000 1.000000
vn 0.000000 0.000000 1.000000
vn 0.000000 0.000000 1.000000
vn 0.000000 0.000000 1.000000
vn 0.000000 0.000000 1.000000
vn 0.000000 0.000000 1.000000
vn 0.000000 0.000000 1.000000
vn 0.000000 0.000000 1.000000
vn 0.000000 0.000000 1.000000
vn 0.000000 0.000000 1.000000
vn 0.000000 0.000000 1.000000
vn 0.000000 0.000000 1.000000
vn 0.000000 0.000000 1.000000
vn 0.000000 0.000000 1.000000
vn 0.000000 0.000000 1.000000
vn 0.000000 0.000000 1.000000
vn 0.000000 0.000000 1.000000
vn 0.000000 0.000000 1.000000
vn 0.000000 0.000000 1.000000
vn 0.000000 0.000000 1.000000
vn 0.000000 0.000000 1.000000
vn 0.000000 0.000000 1.000000
vn 0.000000 0.000000 1.000000
vn 0.000000 0.000000 1.000000
vn 0.000000 0.000000 1.000000
vn 0.000000 0.000000 1.000000
vn 0.000000 0.000000 1.000000
vn 0.000000 0.000000 1.000000
vn 0.000000 0.000000 1.000000
vn 0.000000 0.000000 1.000000
vn 0.000000 0.000000 1.000000
vn 0.000000 0.000000 1.000000
vn 0.000000 0.000000 1.000000
vn 0.000000 0.000000 1.000000
vn 0.000000 0.000000 1.000000
vn 0.000000 0.000000 1.000000
vn 0.000000 0.000000 1.000000
vn 0.000000 0.000000 1.000000
vn 0.000000 0.000000 1.000000
vn 0.000000 0.000000 1.000000
vn 0.000000 0.000000 1.000000
vn 0.000000 0.000000 1.000000
vn 0.000000 0.000000 1.000000
vn 0.000000 0.000000 1.000000
vn 0.000000 0.000000 1.000000
vn 0.000000 0.000000 1.000000
vn 0.000000 0.000000 1.000000
vn 0.000000 0.000000 1.000000
vn 0.000000 0.000000 1.000000
vn 0.000000 0.000000 1.000000
vn 0.000000 0.000000 1.000000
vn 0.000000 0.000000 1.000000
vn 0.000000 0.000000 1.000000
vn 0.000000 0.000000 1.000000
vn 0.000000 0.000000 1.000000
vn 0.000000 0.000000 1.000000
vn 0.000000 0.000000 1.000000
vn 0.000000 0.000000 1.000000
vn 0.000000 0.000000 1.000000
vn 0.000000 0.000000 1.000000
vn 0.000000 0.000000 1.000000
vn 0.000000 0.000000 1.000000
vn 0.000000 0.000000 1.000000
vn 0.000000 0.000000 1.000000
vn 0.000000 0.000000 1.000000
vn 0.000000 0.000000 1.000000
vn 0.000000 0.000000 1.000000
vn 0.000000 0.000000 1.000000
vn 0.000000 0.000000 1.000000
vn 0.000000 0.000000 1.000000
vn 0.000000 0.000000 1.000000
vn 0.000000 0.000000 1.000000
vn 0.000000 0.000000 1.000000
vn 0.000000 0.000000 1.000000
vn 0.000000 0.000000 1.000000
vn 0.000000 0.000000 1.000000
vn 0.000000 0.000000 1.000000
vn 0.000000 0.000000 1.000000
vn 0.000000 0.000000 1.000000
vn 0.000000 0.000000 1.000000
vn 0.000000 0.000000 1.000000
vn 0.000000 0.000000 1.000000
vn 0.000000 0.000000 1.000000
vn 0.000000 0.000000 1.000000
vn 0.000000 0.000000 1.000000
vn 0.000000 0.000000 1.000000
vn 0.000000 0.000000 1.000000
vn 0.000000 0.000000 1.000000
vn 0.000000 0.000000 1.000000
vn 0.000000 0.000000 1.000000
vn 0.000000 0.000000 1.000000
vn 0.000000 0.000000 1.000000
vn 0.000000 0.000000 1.000000
vn 0.000000 0.000000 1.000000
vn 0.000000 0.000000 1.000000
vn 0.000000 0.000000 1.000000
vn 0.000000 0.000000 1.000000
vn 0.000000 0.000000 1.000000
vn 0.000000 0.000000 1.000000
vn 0.000000 0.000000 1.000000
vn 0.000000 0.000000 1.000000
vn 0.000000 0.000000 1.000000
vn 0.000000 0.000000 1.000000
vn 0.000000 0.000000 1.000000
vn 0.000000 0.000000 1.000000
vn 0.000000 0.000000 1.000000
vn 0.000000 0.000000 1.000000
vn 0.000000 0.000000 1.000000
vn 0.000000 0.000000 1.000000
vn 0.000000 0.000000 1.000000
vn 0.000000 0.000000 1.000000
vn 0.000000 0.000000 1.000000
vn 0.000000 0.000000 1.000000
vn 0.000000 0.000000 1.000000
vn 0.000000 0.000000 1.000000
vn 0.000000 0.000000 1.000000
vn 0.000000 0.000000 1.000000
vn 0.000000 0.000000 1.000000
vn 0.000000 0.000000 1.000000
vn 0.000000 0.000000 1.000000
vn 0.000000 0.000000 1.000000
vn 0.000000 0.000000 1.000000
vn 0.000000 0.000000 1.000000
vn 0.000000 0.000000 1.000000
vn 0.000000 0.000000 1.000000
vn 0.000000 0.000000 1.000000
vn 0.000000 0.000000 1.000000
vn 0.000000 0.000000 1.000000
vn 0.000000 0.000000 1.000000
vn 0.000000 0.000000 1.000000
vn 0.000000 0.000000 1.000000
vn 0.000000 0.000000 1.000000
vn 0.000000 0.000000 1.000000
vn 0.000000 0.000000 1.000000
vn 0.000000 0.000000 1.000000
vn 0.000000 0.000000 1.000000
vn 0.000000 0.000000 1.000000
vn 0.000000 0.000000 1.000000
vn 0.000000 0.000000 1.000000
vn 0.000000 0.000000 1.000000
vn 0.000000 0.000000 1.000000
vn 0.000000 0.000000 1.000000
vn 0.000000 0.000000 1.000000
vn 0.000000 0.000000 1.000000
vn 0.000000 0.000000 1.000000
vn 0.000000 0.000000 1.000000
vn 0.000000 0.000000 1.000000
vn 0.000000 0.000000 1.000000
vn 0.000000 0.000000 1.000000
vn 0.000000 0.000000 1.000000
vn 0.000000 0.000000 1.000000
vn 0.999689 0.024931 -0.000000
vn 0.999689 0.024931 0.000000
vn 0.997204 0.074730 0.000000
vn 0.992239 0.124344 0.000000
vn 0.997204 0.074730 0.000000
vn 0.992239 0.124344 0.000000
vn 0.984808 0.173648 0.000000
vn 0.974928 0.222520 0.000000
vn 0.984808 0.173648 -0.000000
vn 0.974928 0.222520 0.000000
vn 0.962624 0.270840 0.000000
vn 0.962624 0.270840 -0.000000
vn 0.947927 0.318487 0.000000
vn 0.930874 0.365341 0.000000
vn 0.947927 0.318487 -0.000000
vn 0.930874 0.365341 0.000000
vn 0.911506 0.411288 0.000000
vn 0.911506 0.411288 -0.000000
vn 0.889872 0.456211 0.000000
vn 0.889872 0.456211 -0.000000
vn 0.866025 0.500000 -0.000000
vn 0.866025 0.500000 0.000000
vn 0.840026 0.542547 0.000000
vn 0.840026 0.542547 0.000000
vn 0.811938 0.583744 -0.000000
vn 0.811938 0.583744 0.000000
vn 0.781832 0.623490 -0.000000
vn 0.781832 0.623490 0.000000
vn 0.749781 0.661686 0.000000
vn 0.715867 0.698236 0.000000
vn 0.749781 0.661686 -0.000000
vn 0.715867 0.698236 0.000000
vn 0.680173 0.733052 0.000000
vn 0.680173 0.733052 -0.000000
vn 0.642788 0.766044 0.000000
vn 0.603804 0.797132 0.000000
vn 0.642788 0.766044 -0.000000
vn 0.603804 0.797132 0.000000
vn 0.563320 0.826239 0.000000
vn 0.563320 0.826239 -0.000000
vn 0.521436 0.853291 0.000000
vn 0.521436 0.853291 -0.000000
vn 0.478253 0.878222 0.000000
vn 0.478253 0.878222 -0.000000
vn 0.433884 0.900969 0.000000
vn 0.433884 0.900969 -0.000000
vn 0.388435 0.921476 0.000000
vn 0.388435 0.921476 -0.000000
vn 0.342020 0.939693 0.000000
vn 0.342020 0.939693 -0.000000
vn 0.294755 0.955573 0.000000
vn 0.294755 0.955573 -0.000000
vn 0.246758 0.969077 0.000000
vn 0.246758 0.969077 -0.000000
vn 0.198147 0.980172 0.000000
vn 0.149041 0.988831 0.000000
vn 0.198147 0.980172 -0.000000
vn 0.149041 0.988831 0.000000
vn 0.099569 0.995031 0.000000
vn 0.099569 0.995031 -0.000000
vn 0.049845 0.998757 0.000000
vn 0.049845 0.998757 -0.000000
vn 0.000000 1.000000 0.000000
vn 0.000000 1.000000 -0.000000
vn -0.049845 0.998757 0.000000
vn -0.049845 0.998757 0.000000
vn -0.099569 0.995031 0.000000
vn -0.099569 0.995031 0.000000
vn -0.149041 0.988831 0.000000
vn -0.149041 0.988831 0.000000
vn -0.198147 0.980172 0.000000
vn -0.198147 0.980172 0.000000
vn -0.246758 0.969077 0.000000
vn -0.294755 0.955573 0.000000
vn -0.246758 0.969077 0.000000
vn -0.294755 0.955573 0.000000
vn -0.342020 0.939693 0.000000
vn -0.342020 0.939693 0.000000
vn -0.388435 0.921476 0.000000
vn -0.388435 0.921476 0.000000
vn -0.433884 0.900969 0.000000
vn -0.433884 0.900969 0.000000
vn -0.478253 0.878222 0.000000
vn -0.478253 0.878222 0.000000
vn -0.521436 0.853291 0.000000
vn -0.521436 0.853291 0.000000
vn -0.563320 0.826239 0.000000
vn -0.563320 0.826239 0.000000
vn -0.603804 0.797132 0.000000
vn -0.603804 0.797132 0.000000
vn -0.642788 0.766044 0.000000
vn -0.642788 0.766044 0.000000
vn -0.680173 0.733052 0.000000
vn -0.680173 0.733052 0.000000
vn -0.715867 0.698236 0.000000
vn -0.715867 0.698236 0.000000
vn -0.749781 0.661686 0.000000
vn -0.749781 0.661686 0.000000
vn -0.781832 0.623490 0.000000
vn -0.811938 0.583744 0.000000
vn -0.781832 0.623490 0.000000
vn -0.811938 0.583744 0.000000
vn -0.840026 0.542547 0.000000
vn -0.866025 0.500000 0.000000
vn -0.840026 0.542547 0.000000
vn -0.866025 0.500000 0.000000
vn -0.889872 0.456211 0.000000
vn -0.911506 0.411288 0.000000
vn -0.889872 0.456211 0.000000
vn -0.911506 0.411288 0.000000
vn -0.930874 0.365341 0.000000
vn -0.930874 0.365341 0.000000
vn -0.947927 0.318487 0.000000
vn -0.962624 0.270840 0.000000
vn -0.947927 0.318487 0.000000
vn -0.962624 0.270840 0.000000
vn -0.974928 0.222520 0.000000
vn -0.974928 0.222520 0.000000
vn -0.984808 0.173648 0.000000
vn -0.984808 0.173648 0.000000
vn -0.992239 0.124344 0.000000
vn -0.992239 0.124344 0.000000
vn -0.997204 0.074730 0.000000
vn -0.997204 0.074730 0.000000
vn -0.999689 0.024931 0.000000
vn -0.999689 0.024931 0.000000
vn -0.999689 -0.024931 -0.000000
vn -0.999689 -0.024931 0.000000
vn -0.997204 -0.074730 0.000000
vn -0.997204 -0.074730 0.000000
vn -0.992239 -0.124344 -0.000000
vn -0.992239 -0.124344 0.000000
vn -0.984808 -0.173648 -0.000000
vn -0.984808 -0.173648 0.000000
vn -0.974928 -0.222520 -0.000000
vn -0.974928 -0.222520 0.000000
vn -0.962624 -0.270840 0.000000
vn -0.962624 -0.270840 0.000000
vn -0.947927 -0.318487 -0.000000
vn -0.947927 -0.318487 0.000000
vn -0.930874 -0.365341 -0.000000
vn -0.930874 -0.365341 0.000000
vn -0.911506 -0.411288 0.000000
vn -0.911506 -0.411288 0.000000
vn -0.889872 -0.456211 -0.000000
vn -0.889872 -0.456211 0.000000
vn -0.866025 -0.500000 0.000000
vn -0.866025 -0.500000 0.000000
vn -0.840026 -0.542547 0.000000
vn -0.840026 -0.542547 0.000000
vn -0.811938 -0.583744 0.000000
vn -0.811938 -0.583744 0.000000
vn -0.781832 -0.623490 -0.000000
vn -0.781832 -0.623490 0.000000
vn -0.749781 -0.661686 0.000000
vn -0.749781 -0.661686 0.000000
vn -0.715867 -0.698236 0.000000
vn -0.715867 -0.698236 0.000000
vn -0.680173 -0.733052 -0.000000
vn -0.680173 -0.733052 0.000000
vn -0.642788 -0.766044 0.000000
vn -0.642788 -0.766044 0.000000
vn -0.603804 -0.797132 0.000000
vn -0.603804 -0.797132 0.000000
vn -0.563320 -0.826239 0.000000
vn -0.563320 -0.826239 0.000000
vn -0.521436 -0.853291 -0.000000
vn -0.521436 -0.853291 0.000000
vn -0.478253 -0.878222 0.000000
vn -0.478253 -0.878222 0.000000
vn -0.433884 -0.900969 0.000000
vn -0.433884 -0.900969 0.000000
vn -0.388435 -0.921476 0.000000
vn -0.388435 -0.921476 0.000000
vn -0.342020 -0.939693 0.000000
vn -0.342020 -0.939693 0.000000
vn -0.294755 -0.955573 0.000000
vn -0.294755 -0.955573 0.000000
vn -0.246758 -0.969077 0.000000
vn -0.246758 -0.969077 0.000000
vn -0.198147 -0.980172 0.000000
vn -0.198147 -0.980172 0.000000
vn -0.149041 -0.988831 -0.000000
vn -0.149041 -0.988831 0.000000
vn -0.099569 -0.995031 0.000000
vn -0.099569 -0.995031 0.000000
vn -0.049845 -0.998757 0.000000
vn -0.049845 -0.998757 0.000000
vn 0.000000 -1.000000 0.000000
vn 0.000000 -1.000000 0.000000
vn 0.049845 -0.998757 0.000000
vn 0.049845 -0.998757 0.000000
vn 0.099569 -0.995031 0.000000
vn 0.099569 -0.995031 0.000000
vn 0.149041 -0.988831 0.000000
vn 0.149041 -0.988831 0.000000
vn 0.198147 -0.980172 0.000000
vn 0.198147 -0.980172 0.000000
vn 0.246758 -0.969077 0.000000
vn 0.246758 -0.969077 0.000000
vn 0.294755 -0.955573 0.000000
vn 0.294755 -0.955573 0.000000
vn 0.342020 -0.939693 0.000000
vn 0.342020 -0.939693 0.000000
vn 0.388435 -0.921476 0.000000
vn 0.388435 -0.921476 0.000000
vn 0.433884 -0.900969 0.000000
vn 0.478253 -0.878222 0.000000
vn 0.433884 -0.900969 0.000000
vn 0.478253 -0.878222 0.000000
vn 0.521436 -0.853291 0.000000
vn 0.521436 -0.853291 0.000000
vn 0.563320 -0.826239 0.000000
vn 0.563320 -0.826239 0.000000
vn 0.603804 -0.797132 0.000000
vn 0.603804 -0.797132 0.000000
vn 0.642788 -0.766044 0.000000
vn 0.642788 -0.766044 0.000000
vn 0.680173 -0.733052 0.000000
vn 0.680173 -0.733052 0.000000
vn 0.715867 -0.698236 0.000000
vn 0.715867 -0.698236 0.000000
vn 0.749781 -0.661686 0.000000
vn 0.749781 -0.661686 0.000000
vn 0.781832 -0.623490 0.000000
vn 0.781832 -0.623490 0.000000
vn 0.811938 -0.583744 0.000000
vn 0.811938 -0.583744 0.000000
vn 0.840026 -0.542547 0.000000
vn 0.840026 -0.542547 0.000000
vn 0.866025 -0.500000 0.000000
vn 0.866025 -0.500000 0.000000
vn 0.889872 -0.456211 0.000000
vn 0.889872 -0.456211 0.000000
vn 0.911506 -0.411288 0.000000
vn 0.911506 -0.411288 0.000000
vn 0.930874 -0.365341 0.000000
vn 0.947927 -0.318487 0.000000
vn 0.930874 -0.365341 0.000000
vn 0.947927 -0.318487 0.000000
vn 0.962624 -0.270840 0.000000
vn 0.962624 -0.270840 0.000000
vn 0.974928 -0.222520 0.000000
vn 0.974928 -0.222520 0.000000
vn 0.984808 -0.173648 0.000000
vn 0.984808 -0.173648 0.000000
vn 0.992239 -0.124344 0.000000
vn 0.992239 -0.124344 0.000000
vn 0.997204 -0.074730 0.000000
vn 0.999689 -0.024931 0.000000
vn 0.997204 -0.074730 0.000000
vn 0.999689 -0.024931 0.000000
vn 0.000000 0.000000 1.000000
vn 0.000000 0.000000 1.000000
vn 0.000000 0.000000 1.000000
vn 0.000000 0.000000 1.000000
vn 0.000000 0.000000 1.000000
vn 0.000000 0.000000 1.000000
vn 0.000000 0.000000 1.000000
vn 0.000000 0.000000 1.000000
vn 0.000000 0.000000 1.000000
vn 0.000000 0.000000 1.000000
vn 0.000000 0.000000 1.000000
vn 0.000000 0.000000 1.000000
vn 0.000000 0.000000 1.000000
vn 0.000000 0.000000 1.000000
vn 0.000000 0.000000 1.000000
vn 0.000000 0.000000 1.000000
vn 0.000000 0.000000 1.000000
vn 0.000000 0.000000 1.000000
vn 0.000000 0.000000 1.000000
vn 0.000000 0.000000 1.000000
vn 0.000000 0.000000 1.000000
vn 0.000000 0.000000 1.000000
vn 0.000000 0.000000 1.000000
vn 0.000000 0.000000 1.000000
vn 0.000000 0.000000 1.000000
vn 0.000000 0.000000 1.000000
vn 0.000000 0.000000 1.000000
vn 0.000000 0.000000 1.000000
vn 0.000000 0.000000 1.000000
vn 0.000000 0.000000 1.000000
vn 0.000000 0.000000 1.000000
vn 0.000000 0.000000 1.000000
vn 0.000000 0.000000 1.000000
vn 0.000000 0.000000 1.000000
vn 0.000000 0.000000 1.000000
vn 0.000000 0.000000 1.000000
vn 0.000000 0.000000 1.000000
vn 0.000000 0.000000 1.000000
vn 0.000000 0.000000 1.000000
vn 0.000000 0.000000 1.000000
vn 0.000000 0.000000 1.000000
vn 0.000000 0.000000 1.000000
vn 0.000000 0.000000 1.000000
vn 0.000000 0.000000 1.000000
vn 0.000000 0.000000 1.000000
vn 0.000000 0.000000 1.000000
vn 0.000000 0.000000 1.000000
vn 0.000000 0.000000 1.000000
vn 0.000000 0.000000 1.000000
vn 0.000000 0.000000 1.000000
vn 0.000000 0.000000 1.000000
vn 0.000000 0.000000 1.000000
vn 0.000000 0.000000 1.000000
vn 0.000000 0.000000 1.000000
vn 0.000000 0.000000 1.000000
vn 0.000000 0.000000 1.000000
vn 0.000000 0.000000 1.000000
vn 0.000000 0.000000 1.000000
vn 0.000000 0.000000 1.000000
vn 0.000000 0.000000 1.000000
vn 0.000000 0.000000 1.000000
vn 0.000000 0.000000 1.000000
vn 0.000000 0.000000 1.000000
vn 0.000000 0.000000 1.000000
vn 0.000000 0.000000 1.000000
vn 0.000000 0.000000 1.000000
vn 0.000000 0.000000 1.000000
vn 0.000000 0.000000 1.000000
vn 0.000000 0.000000 1.000000
vn 0.000000 0.000000 1.000000
vn 0.000000 0.000000 1.000000
vn 0.000000 0.000000 1.000000
vn 0.000000 0.000000 1.000000
vn 0.000000 0.000000 1.000000
vn 0.000000 0.000000 1.000000
vn 0.000000 0.000000 1.000000
vn 0.000000 0.000000 1.000000
vn 0.000000 0.000000 1.000000
vn 0.000000 0.000000 1.000000
vn 0.000000 0.000000 1.000000
vn 0.000000 0.000000 1.000000
vn 0.000000 0.000000 1.000000
vn 0.000000 0.000000 1.000000
vn 0.000000 0.000000 1.000000
vn 0.000000 0.000000 1.000000
vn 0.000000 0.000000 1.000000
vn 0.000000 0.000000 1.000000
vn 0.000000 0.000000 1.000000
vn 0.000000 0.000000 1.000000
vn 0.000000 0.000000 1.000000
vn 0.000000 0.000000 1.000000
vn 0.000000 0.000000 1.000000
vn 0.000000 0.000000 1.000000
vn 0.000000 0.000000 1.000000
vn 0.000000 0.000000 1.000000
vn 0.000000 0.000000 1.000000
vn 0.000000 0.000000 1.000000
vn 0.000000 0.000000 1.000000
vn 0.000000 0.000000 1.000000
vn 0.000000 0.000000 1.000000
vn 0.000000 0.000000 1.000000
vn 0.000000 0.000000 1.000000
vn 0.000000 0.000000 1.000000
vn 0.000000 0.000000 1.000000
vn 0.000000 0.000000 1.000000
vn 0.000000 0.000000 1.000000
vn 0.000000 0.000000 1.000000
vn 0.000000 0.000000 1.000000
vn 0.000000 0.000000 1.000000
vn 0.000000 0.000000 1.000000
vn 0.000000 0.000000 1.000000
vn 0.000000 0.000000 1.000000
vn 0.000000 0.000000 1.000000
vn 0.000000 0.000000 1.000000
vn 0.000000 0.000000 1.000000
vn 0.000000 0.000000 1.000000
vn 0.000000 0.000000 1.000000
vn 0.000000 0.000000 1.000000
vn 0.000000 0.000000 1.000000
vn 0.000000 0.000000 1.000000
vn 0.000000 0.000000 1.000000
vn 0.000000 0.000000 1.000000
vn 0.000000 0.000000 1.000000
vn 0.000000 0.000000 1.000000
f 1//1 2//1 3//1
f 3//2 2//2 4//2
f 4//3 5//3 6//3
f 6//4 5//4 7//4
f 2//5 5//5 4//5
f 5//6 8//6 7//6
f 7//7 9//7 10//7
f 10//8 9//8 11//8
f 8//9 9//9 7//9
f 9//10 12//10 11//10
f 11//11 13//11 14//11
f 12//12 13//12 11//12
f 14//13 15//13 16//13
f 16//14 15//14 17//14
f 13//15 15//15 14//15
f 15//16 18//16 17//16
f 17//17 19//17 20//17
f 18//18 19//18 17//18
f 20//19 21//19 22//19
f 19//20 21//20 20//20
f 21//21 23//21 22//21
f 22//22 23//22 24//22
f 24//23 23//23 25//23
f 23//24 26//24 25//24
f 26//25 27//25 25//25
f 25//26 27//26 28//26
f 27//27 29//27 28//27
f 28//28 29//28 30//28
f 30//29 31//29 32//29
f 32//30 31//30 33//30
f 29//31 31//31 30//31
f 31//32 34//32 33//32
f 33//33 35//33 36//33
f 34//34 35//34 33//34
f 36//35 37//35 38//35
f 38//36 37//36 39//36
f 35//37 37//37 36//37
f 37//38 40//38 39//38
f 39//39 41//39 42//39
f 40//40 41//40 39//40
f 42//41 43//41 44//41
f 41//42 43//42 42//42
f 44//43 45//43 46//43
f 43//44 45//44 44//44
f 46//45 47//45 48//45
f 45//46 47//46 46//46
f 48//47 49//47 50//47
f 47//48 49//48 48//48
f 50//49 51//49 52//49
f 49//50 51//50 50//50
f 52//51 53//51 54//51
f 51//52 53//52 52//52
f 54//53 55//53 56//53
f 53//54 55//54 54//54
f 56//55 57//55 58//55
f 58//56 57//56 59//56
f 55//57 57//57 56//57
f 57//58 60//58 59//58
f 59//59 61//59 62//59
f 60//60 61//60 59//60
f 62//61 63//61 64//61
f 61//62 63//62 62//62
f 64//63 65//63 66//63
f 63//64 65//64 64//64
f 66//65 67//65 68//65
f 65//66 67//66 66//66
f 68//67 69//67 70//67
f 67//68 69//68 68//68
f 70//69 71//69 72//69
f 69//70 71//70 70//70
f 72//71 73//71 74//71
f 71//72 73//72 72//72
f 74//73 75//73 76//73
f 76//74 75//74 77//74
f 73//75 75//75 74//75
f 75//76 78//76 77//76
f 77//77 78//77 79//77
f 78//78 80//78 79//78
f 80//79 81//79 79//79
f 79//80 81//80 82//80
f 81//81 83//81 82//81
f 82//82 83//82 84//82
f 83//83 85//83 84//83
f 84//84 85//84 86//84
f 85//85 87//85 86//85
f 86//86 87//86 88//86
f 87//87 89//87 88//87
f 88//88 89//88 90//88
f 89//89 91//89 90//89
f 90//90 91//90 92//90
f 91//91 93//91 92//91
f 92//92 93//92 94//92
f 94//93 93//93 95//93
f 93//94 96//94 95//94
f 95//95 97//95 98//95
f 96//96 97//96 95//96
f 98//97 99//97 100//97
f 97//98 99//98 98//98
f 100//99 101//99 102//99
f 102//100 101//100 103//100
f 99//101 101//101 100//101
f 101//102 104//102 103//102
f 103//103 105//103 106//103
f 106//104 105//104 107//104
f 104//105 105//105 103//105
f 105//106 108//106 107//106
f 107//107 109//107 110//107
f 110//108 109//108 111//108
f 108//109 109//109 107//109
f 109//110 112//110 111//110
f 111//111 113//111 114//111
f 112//112 113//112 111//112
f 114//113 115//113 116//113
f 116//114 115//114 117//114
f 113//115 115//115 114//115
f 115//116 118//116 117//116
f 117//117 119//117 120//117
f 118//118 119//118 117//118
f 120//119 121//119 122//119
f 119//120 121//120 120//120
f 122//121 123//121 124//121
f 121//122 123//122 122//122
f 123//123 125//123 124//123
f 124//124 125//124 126//124
f 126//125 125//125 127//125
f 125//126 128//126 127//126
f 127//127 128//127 129//127
f 128//128 130//128 129//128
f 130//129 131//129 129//129
f 129//130 131//130 132//130
f 132//131 131//131 133//131
f 131//132 134//132 133//132
f 133//133 134//133 135//133
f 134//134 136//134 135//134
f 135//135 136//135 137//135
f 136//136 138//136 137//136
f 138//137 139//137 137//137
f 137//138 139//138 140//138
f 140//139 139//139 141//139
f 139//140 142//140 141//140
f 142//141 143//141 141//141
f 141//142 143//142 144//142
f 143//143 145//143 144//143
f 144//144 145//144 146//144
f 146//145 145//145 147//145
f 145//146 148//146 147//146
f 148//147 149//147 147//147
f 147//148 149//148 150//148
f 149//149 151//149 150//149
f 150//150 151//150 152//150
f 151//151 153//151 152//151
f 152//152 153//152 154//152
f 154//153 153//153 155//153
f 153//154 156//154 155//154
f 156//155 157//155 155//155
f 155//156 157//156 158//156
f 157//157 159//157 158//157
f 158//158 159//158 160//158
f 160//159 159//159 161//159
f 159//160 162//160 161//160
f 162//161 163//161 161//161
f 161//162 163//162 164//162
f 163//163 165//163 164//163
f 164//164 165//164 166//164
f 166//165 167//165 168//165
f 165//166 167//166 166//166
f 168//167 167//167 169//167
f 167//168 170//168 169//168
f 169//169 171//169 172//169
f 170//170 171//170 169//170
f 172//171 173//171 174//171
f 171//172 173//172 172//172
f 174//173 175//173 176//173
f 173//174 175//174 174//174
f 175//175 177//175 176//175
f 176//176 177//176 178//176
f 177//177 179//177 178//177
f 178//178 179//178 180//178
f 179//179 181//179 180//179
f 180//180 181//180 182//180
f 181//181 183//181 182//181
f 182//182 183//182 184//182
f 184//183 183//183 185//183
f 183//184 186//184 185//184
f 186//185 187//185 185//185
f 185//186 187//186 188//186
f 187//187 189//187 188//187
f 188//188 189//188 190//188
f 189//189 191//189 190//189
f 190//190 191//190 192//190
f 191//191 193//191 192//191
f 192//192 193//192 194//192
f 193//193 195//193 194//193
f 194//194 195//194 196//194
f 195//195 197//195 196//195
f 196//196 197//196 198//196
f 197//197 199//197 198//197
f 198//198 199//198 200//198
f 200//199 201//199 202//199
f 199//200 201//200 200//200
f 202//201 203//201 204//201
f 201//202 203//202 202//202
f 204//203 205//203 206//203
f 203//204 205//204 204//204
f 206//205 207//205 208//205
f 205//206 207//206 206//206
f 208//207 209//207 210//207
f 210//208 209//208 211//208
f 207//209 209//209 208//209
f 209//210 212//210 211//210
f 211//211 213//211 214//211
f 212//212 213//212 211//212
f 214//213 215//213 216//213
f 213//214 215//214 214//214
f 216//215 217//215 218//215
f 215//216 217//216 216//216
f 218//217 219//217 220//217
f 217//218 219//218 218//218
f 220//219 221//219 222//219
f 219//220 221//220 220//220
f 222//221 223//221 224//221
f 221//222 223//222 222//222
f 223//223 225//223 224//223
f 224//224 225//224 226//224
f 225//225 227//225 226//225
f 226//226 227//226 228//226
f 227//227 229//227 228//227
f 228//228 229//228 230//228
f 229//229 231//229 230//229
f 230//230 231//230 232//230
f 231//231 233//231 232//231
f 232//232 233//232 234//232
f 234//233 235//233 236//233
f 233//234 235//234 234//234
f 236//235 237//235 238//235
f 235//236 237//236 236//236
f 238//237 239//237 240//237
f 240//238 239//238 241//238
f 237//239 239//239 238//239
f 239//240 242//240 241//240
f 241//241 243//241 244//241
f 242//242 243//242 241//242
f 244//243 245//243 246//243
f 243//244 245//244 244//244
f 246//245 247//245 248//245
f 245//246 247//246 246//246
f 248//247 249//247 250//247
f 247//248 249//248 248//248
f 250//249 251//249 252//249
f 252//250 251//250 3//250
f 249//251 251//251 250//251
f 251//252 1//252 3//252
f 159//253 163//253 162//253
f 153//254 151//254 156//254
f 163//255 167//255 165//255
f 163//256 170//256 167//256
f 159//257 170//257 163//257
f 157//258 170//258 159//258
f 151//259 148//259 156//259
f 149//260 148//260 151//260
f 157//261 173//261 170//261
f 156//262 173//262 157//262
f 170//263 173//263 171//263
f 145//264 143//264 148//264
f 173//265 177//265 175//265
f 173//266 179//266 177//266
f 148//267 138//267 156//267
f 143//268 138//268 148//268
f 139//269 138//269 142//269
f 142//270 138//270 143//270
f 156//271 181//271 173//271
f 173//272 181//272 179//272
f 131//273 130//273 134//273
f 134//274 130//274 136//274
f 138//275 128//275 156//275
f 136//276 128//276 138//276
f 130//277 128//277 136//277
f 183//278 191//278 186//278
f 186//279 191//279 187//279
f 187//280 191//280 189//280
f 128//281 125//281 156//281
f 183//282 197//282 191//282
f 191//283 197//283 193//283
f 193//284 197//284 195//284
f 121//285 119//285 123//285
f 123//286 119//286 125//286
f 119//287 115//287 125//287
f 118//288 115//288 119//288
f 197//289 203//289 199//289
f 199//290 203//290 201//290
f 115//291 113//291 125//291
f 203//292 207//292 205//292
f 183//293 207//293 197//293
f 197//294 207//294 203//294
f 183//295 209//295 207//295
f 181//296 209//296 183//296
f 113//297 105//297 125//297
f 108//298 105//298 109//298
f 109//299 105//299 112//299
f 112//300 105//300 113//300
f 209//301 215//301 212//301
f 212//302 215//302 213//302
f 105//303 101//303 125//303
f 104//304 101//304 105//304
f 125//305 101//305 156//305
f 215//306 219//306 217//306
f 99//307 97//307 101//307
f 209//308 221//308 215//308
f 215//309 221//309 219//309
f 101//310 93//310 156//310
f 96//311 93//311 97//311
f 97//312 93//312 101//312
f 221//313 225//313 223//313
f 209//314 225//314 221//314
f 93//315 89//315 156//315
f 91//316 89//316 93//316
f 225//317 233//317 227//317
f 227//318 233//318 229//318
f 229//319 233//319 231//319
f 181//320 233//320 209//320
f 209//321 233//321 225//321
f 156//322 233//322 181//322
f 83//323 81//323 85//323
f 85//324 81//324 87//324
f 80//325 78//325 81//325
f 81//326 78//326 87//326
f 235//327 242//327 237//327
f 237//328 242//328 239//328
f 73//329 71//329 75//329
f 75//330 71//330 78//330
f 71//331 69//331 78//331
f 87//332 69//332 89//332
f 78//333 69//333 87//333
f 233//334 249//334 235//334
f 242//335 249//335 243//335
f 243//336 249//336 245//336
f 245//337 249//337 247//337
f 235//338 249//338 242//338
f 67//339 65//339 69//339
f 69//340 63//340 89//340
f 65//341 63//341 69//341
f 233//342 2//342 249//342
f 249//343 2//343 251//343
f 251//344 2//344 1//344
f 2//345 8//345 5//345
f 60//346 57//346 61//346
f 55//347 53//347 57//347
f 57//348 53//348 61//348
f 8//349 13//349 9//349
f 9//350 13//350 12//350
f 233//351 13//351 2//351
f 2//352 13//352 8//352
f 49//353 47//353 51//353
f 51//354 47//354 53//354
f 61//355 47//355 63//355
f 53//356 47//356 61//356
f 63//357 47//357 89//357
f 13//358 19//358 15//358
f 15//359 19//359 18//359
f 13//360 21//360 19//360
f 45//361 43//361 47//361
f 13//362 23//362 21//362
f 43//363 41//363 47//363
f 41//364 40//364 47//364
f 23//365 27//365 26//365
f 233//366 27//366 13//366
f 13//367 27//367 23//367
f 156//368 27//368 233//368
f 47//369 37//369 89//369
f 40//370 37//370 47//370
f 89//371 37//371 156//371
f 156//372 37//372 27//372
f 27//373 31//373 29//373
f 35//374 34//374 37//374
f 37//375 34//375 27//375
f 27//376 34//376 31//376
f 253//377 158//377 160//377
f 254//378 158//378 253//378
f 255//379 160//379 161//379
f 255//380 253//380 160//380
f 256//381 158//381 254//381
f 256//382 155//382 158//382
f 257//383 255//383 161//383
f 257//384 161//384 164//384
f 258//385 155//385 256//385
f 258//386 154//386 155//386
f 259//387 164//387 166//387
f 259//388 166//388 168//388
f 259//389 257//389 164//389
f 260//390 154//390 258//390
f 260//391 152//391 154//391
f 261//392 259//392 168//392
f 262//393 152//393 260//393
f 262//394 147//394 150//394
f 262//395 150//395 152//395
f 263//396 261//396 168//396
f 263//397 168//397 169//397
f 264//398 147//398 262//398
f 265//399 263//399 169//399
f 265//400 169//400 172//400
f 265//401 172//401 174//401
f 266//402 144//402 146//402
f 266//403 146//403 147//403
f 266//404 147//404 264//404
f 267//405 265//405 174//405
f 268//406 144//406 266//406
f 269//407 267//407 174//407
f 269//408 174//408 176//408
f 269//409 176//409 178//409
f 270//410 140//410 141//410
f 270//411 141//411 144//411
f 270//412 144//412 268//412
f 271//413 269//413 178//413
f 272//414 137//414 140//414
f 272//415 140//415 270//415
f 273//416 178//416 180//416
f 273//417 271//417 178//417
f 274//418 137//418 272//418
f 275//419 180//419 182//419
f 275//420 273//420 180//420
f 276//421 137//421 274//421
f 276//422 133//422 135//422
f 276//423 135//423 137//423
f 277//424 182//424 184//424
f 277//425 275//425 182//425
f 278//426 133//426 276//426
f 279//427 277//427 184//427
f 279//428 184//428 185//428
f 280//429 133//429 278//429
f 280//430 132//430 133//430
f 281//431 279//431 185//431
f 281//432 185//432 188//432
f 282//433 132//433 280//433
f 282//434 129//434 132//434
f 283//435 281//435 188//435
f 283//436 188//436 190//436
f 284//437 129//437 282//437
f 284//438 126//438 127//438
f 284//439 127//439 129//439
f 285//440 283//440 190//440
f 285//441 190//441 192//441
f 286//442 126//442 284//442
f 287//443 285//443 192//443
f 287//444 192//444 194//444
f 288//445 126//445 286//445
f 288//446 122//446 124//446
f 288//447 124//447 126//447
f 289//448 287//448 194//448
f 289//449 194//449 196//449
f 290//450 122//450 288//450
f 291//451 289//451 196//451
f 291//452 196//452 198//452
f 291//453 198//453 200//453
f 292//454 122//454 290//454
f 292//455 120//455 122//455
f 293//456 291//456 200//456
f 294//457 120//457 292//457
f 294//458 116//458 117//458
f 294//459 117//459 120//459
f 295//460 293//460 200//460
f 295//461 200//461 202//461
f 296//462 116//462 294//462
f 297//463 202//463 204//463
f 297//464 295//464 202//464
f 298//465 116//465 296//465
f 298//466 114//466 116//466
f 299//467 204//467 206//467
f 299//468 206//468 208//468
f 299//469 297//469 204//469
f 300//470 111//470 114//470
f 300//471 114//471 298//471
f 301//472 299//472 208//472
f 302//473 110//473 111//473
f 302//474 111//474 300//474
f 303//475 208//475 210//475
f 303//476 301//476 208//476
f 304//477 106//477 107//477
f 304//478 107//478 110//478
f 304//479 110//479 302//479
f 305//480 210//480 211//480
f 305//481 303//481 210//481
f 306//482 106//482 304//482
f 307//483 211//483 214//483
f 307//484 305//484 211//484
f 308//485 106//485 306//485
f 308//486 102//486 103//486
f 308//487 103//487 106//487
f 309//488 214//488 216//488
f 309//489 307//489 214//489
f 310//490 102//490 308//490
f 311//491 216//491 218//491
f 311//492 218//492 220//492
f 311//493 309//493 216//493
f 312//494 100//494 102//494
f 312//495 102//495 310//495
f 313//496 311//496 220//496
f 222//497 313//497 220//497
f 314//498 98//498 100//498
f 314//499 100//499 312//499
f 315//500 313//500 222//500
f 316//501 315//501 222//501
f 95//502 314//502 317//502
f 95//503 98//503 314//503
f 224//504 316//504 222//504
f 94//505 95//505 317//505
f 94//506 318//506 319//506
f 94//507 317//507 318//507
f 226//508 320//508 316//508
f 226//509 316//509 224//509
f 92//510 94//510 319//510
f 228//511 320//511 226//511
f 228//512 321//512 320//512
f 90//513 92//513 319//513
f 90//514 322//514 323//514
f 90//515 319//515 322//515
f 230//516 324//516 321//516
f 230//517 321//517 228//517
f 88//518 90//518 323//518
f 232//519 325//519 324//519
f 232//520 324//520 230//520
f 86//521 88//521 323//521
f 86//522 326//522 327//522
f 86//523 323//523 326//523
f 234//524 328//524 325//524
f 234//525 329//525 328//525
f 234//526 325//526 232//526
f 84//527 86//527 327//527
f 236//528 329//528 234//528
f 82//529 84//529 327//529
f 82//530 327//530 330//530
f 238//531 331//531 329//531
f 238//532 332//532 331//532
f 238//533 329//533 236//533
f 79//534 82//534 330//534
f 79//535 330//535 333//535
f 240//536 332//536 238//536
f 240//537 334//537 332//537
f 77//538 79//538 333//538
f 77//539 333//539 335//539
f 241//540 334//540 240//540
f 76//541 335//541 336//541
f 76//542 77//542 335//542
f 244//543 334//543 241//543
f 244//544 337//544 334//544
f 74//545 336//545 338//545
f 74//546 76//546 336//546
f 246//547 337//547 244//547
f 246//548 339//548 337//548
f 72//549 338//549 340//549
f 72//550 74//550 338//550
f 248//551 339//551 246//551
f 248//552 341//552 339//552
f 70//553 72//553 340//553
f 70//554 342//554 343//554
f 70//555 340//555 342//555
f 250//556 341//556 248//556
f 250//557 344//557 341//557
f 250//558 345//558 344//558
f 68//559 70//559 343//559
f 252//560 345//560 250//560
f 66//561 343//561 346//561
f 66//562 68//562 343//562
f 3//563 347//563 345//563
f 3//564 345//564 252//564
f 64//565 346//565 348//565
f 64//566 66//566 346//566
f 4//567 349//567 347//567
f 4//568 350//568 349//568
f 4//569 347//569 3//569
f 62//570 64//570 348//570
f 62//571 348//571 351//571
f 6//572 350//572 4//572
f 59//573 352//573 353//573
f 59//574 351//574 352//574
f 59//575 62//575 351//575
f 7//576 354//576 350//576
f 7//577 350//577 6//577
f 58//578 59//578 353//578
f 10//579 355//579 354//579
f 10//580 356//580 355//580
f 10//581 354//581 7//581
f 56//582 353//582 357//582
f 56//583 58//583 353//583
f 11//584 356//584 10//584
f 54//585 56//585 357//585
f 54//586 357//586 358//586
f 14//587 359//587 356//587
f 14//588 356//588 11//588
f 52//589 54//589 358//589
f 52//590 360//590 361//590
f 52//591 358//591 360//591
f 16//592 359//592 14//592
f 16//593 362//593 359//593
f 50//594 52//594 361//594
f 17//595 362//595 16//595
f 17//596 363//596 362//596
f 17//597 364//597 363//597
f 48//598 50//598 361//598
f 48//599 365//599 366//599
f 48//600 361//600 365//600
f 20//601 364//601 17//601
f 46//602 48//602 366//602
f 46//603 366//603 367//603
f 22//604 364//604 20//604
f 22//605 368//605 364//605
f 44//606 46//606 367//606
f 24//607 369//607 368//607
f 24//608 368//608 22//608
f 42//609 44//609 367//609
f 42//610 367//610 370//610
f 25//611 371//611 369//611
f 25//612 372//612 371//612
f 25//613 369//613 24//613
f 39//614 42//614 370//614
f 39//615 370//615 373//615
f 28//616 372//616 25//616
f 38//617 39//617 373//617
f 38//618 373//618 374//618
f 30//619 375//619 372//619
f 30//620 372//620 28//620
f 36//621 376//621 377//621
f 36//622 374//622 376//622
f 36//623 38//623 374//623
f 32//624 375//624 30//624
f 32//625 378//625 375//625
f 33//626 36//626 377//626
f 33//627 377//627 378//627
f 33//628 378//628 32//628
f 347//629 349//629 379//629
f 379//630 349//630 380//630
f 380//631 349//631 381//631
f 381//632 350//632 382//632
f 349//633 350//633 381//633
f 350//634 354//634 382//634
f 382//635 355//635 383//635
f 383//636 355//636 384//636
f 354//637 355//637 382//637
f 355//638 356//638 384//638
f 384//639 359//639 385//639
f 356//640 359//640 384//640
f 385//641 362//641 386//641
f 386//642 362//642 387//642
f 359//643 362//643 385//643
f 362//644 363//644 387//644
f 387//645 364//645 388//645
f 363//646 364//646 387//646
f 388//647 368//647 389//647
f 364//648 368//648 388//648
f 368//649 369//649 389//649
f 389//650 369//650 390//650
f 390//651 369//651 391//651
f 369//652 371//652 391//652
f 371//653 372//653 391//653
f 391//654 372//654 392//654
f 372//655 375//655 392//655
f 392//656 375//656 393//656
f 393//657 378//657 394//657
f 394//658 378//658 395//658
f 375//659 378//659 393//659
f 378//660 377//660 395//660
f 395//661 376//661 396//661
f 377//662 376//662 395//662
f 396//663 374//663 397//663
f 397//664 374//664 398//664
f 376//665 374//665 396//665
f 374//666 373//666 398//666
f 398//667 370//667 399//667
f 373//668 370//668 398//668
f 399//669 367//669 400//669
f 370//670 367//670 399//670
f 400//671 366//671 401//671
f 367//672 366//672 400//672
f 401//673 365//673 402//673
f 366//674 365//674 401//674
f 402//675 361//675 403//675
f 365//676 361//676 402//676
f 403//677 360//677 404//677
f 361//678 360//678 403//678
f 404//679 358//679 405//679
f 360//680 358//680 404//680
f 405//681 357//681 406//681
f 358//682 357//682 405//682
f 406//683 353//683 407//683
f 407//684 353//684 408//684
f 357//685 353//685 406//685
f 353//686 352//686 408//686
f 408//687 351//687 409//687
f 352//688 351//688 408//688
f 409//689 348//689 410//689
f 351//690 348//690 409//690
f 410//691 346//691 411//691
f 348//692 346//692 410//692
f 411//693 343//693 412//693
f 346//694 343//694 411//694
f 412//695 342//695 413//695
f 343//696 342//696 412//696
f 413//697 340//697 414//697
f 342//698 340//698 413//698
f 414//699 338//699 415//699
f 340//700 338//700 414//700
f 415//701 336//701 416//701
f 416//702 336//702 417//702
f 338//703 336//703 415//703
f 336//704 335//704 417//704
f 417//705 335//705 418//705
f 335//706 333//706 418//706
f 333//707 330//707 418//707
f 418//708 330//708 419//708
f 330//709 327//709 419//709
f 419//710 327//710 420//710
f 327//711 326//711 420//711
f 420//712 326//712 421//712
f 326//713 323//713 421//713
f 421//714 323//714 422//714
f 323//715 322//715 422//715
f 422//716 322//716 423//716
f 322//717 319//717 423//717
f 423//718 319//718 424//718
f 319//719 318//719 424//719
f 424//720 318//720 425//720
f 425//721 318//721 426//721
f 318//722 317//722 426//722
f 426//723 314//723 427//723
f 317//724 314//724 426//724
f 427//725 312//725 428//725
f 314//726 312//726 427//726
f 428//727 310//727 429//727
f 429//728 310//728 430//728
f 312//729 310//729 428//729
f 310//730 308//730 430//730
f 430//731 306//731 431//731
f 431//732 306//732 432//732
f 308//733 306//733 430//733
f 306//734 304//734 432//734
f 432//735 302//735 433//735
f 433//736 302//736 434//736
f 304//737 302//737 432//737
f 302//738 300//738 434//738
f 434//739 298//739 435//739
f 300//740 298//740 434//740
f 435//741 296//741 436//741
f 436//742 296//742 437//742
f 298//743 296//743 435//743
f 296//744 294//744 437//744
f 437//745 292//745 438//745
f 294//746 292//746 437//746
f 438//747 290//747 439//747
f 292//748 290//748 438//748
f 439//749 288//749 440//749
f 290//750 288//750 439//750
f 288//751 286//751 440//751
f 440//752 286//752 441//752
f 441//753 286//753 442//753
f 286//754 284//754 442//754
f 442//755 284//755 443//755
f 284//756 282//756 443//756
f 282//757 280//757 443//757
f 443//758 280//758 444//758
f 444//759 280//759 445//759
f 280//760 278//760 445//760
f 445//761 278//761 446//761
f 278//762 276//762 446//762
f 446//763 276//763 447//763
f 276//764 274//764 447//764
f 274//765 272//765 447//765
f 447//766 272//766 448//766
f 448//767 272//767 449//767
f 272//768 270//768 449//768
f 449//769 270//769 450//769
f 270//770 268//770 450//770
f 268//771 266//771 450//771
f 450//772 266//772 451//772
f 451//773 266//773 452//773
f 266//774 264//774 452//774
f 264//775 262//775 452//775
f 452//776 262//776 453//776
f 262//777 260//777 453//777
f 453//778 260//778 454//778
f 260//779 258//779 454//779
f 454//780 258//780 455//780
f 455//781 258//781 456//781
f 258//782 256//782 456//782
f 256//783 254//783 456//783
f 456//784 254//784 457//784
f 254//785 253//785 457//785
f 457//786 253//786 458//786
f 458//787 253//787 459//787
f 253//788 255//788 459//788
f 255//789 257//789 459//789
f 459//790 257//790 460//790
f 257//791 259//791 460//791
f 460//792 259//792 461//792
f 461//793 261//793 462//793
f 259//794 261//794 461//794
f 462//795 261//795 463//795
f 261//796 263//796 463//796
f 463//797 265//797 464//797
f 263//798 265//798 463//798
f 464//799 267//799 465//799
f 265//800 267//800 464//800
f 465//801 269//801 466//801
f 267//802 269//802 465//802
f 269//803 271//803 466//803
f 466//804 271//804 467//804
f 271//805 273//805 467//805
f 467//806 273//806 468//806
f 273//807 275//807 468//807
f 468//808 275//808 469//808
f 275//809 277//809 469//809
f 469//810 277//810 470//810
f 470//811 277//811 471//811
f 277//812 279//812 471//812
f 279//813 281//813 471//813
f 471//814 281//814 472//814
f 281//815 283//815 472//815
f 472//816 283//816 473//816
f 283//817 285//817 473//817
f 473//818 285//818 474//818
f 285//819 287//819 474//819
f 474//820 287//820 475//820
f 287//821 289//821 475//821
f 475//822 289//822 476//822
f 289//823 291//823 476//823
f 476//824 291//824 477//824
f 291//825 293//825 477//825
f 477//826 293//826 478//826
f 478//827 295//827 479//827
f 293//828 295//828 478//828
f 479//829 297//829 480//829
f 295//830 297//830 479//830
f 480//831 299//831 481//831
f 297//832 299//832 480//832
f 481//833 301//833 482//833
f 299//834 301//834 481//834
f 482//835 303//835 483//835
f 483//836 303//836 484//836
f 301//837 303//837 482//837
f 303//838 305//838 484//838
f 484//839 307//839 485//839
f 305//840 307//840 484//840
f 485//841 309//841 486//841
f 307//842 309//842 485//842
f 486//843 311//843 487//843
f 309//844 311//844 486//844
f 487//845 313//845 488//845
f 311//846 313//846 487//846
f 488//847 315//847 489//847
f 313//848 315//848 488//848
f 489//849 316//849 490//849
f 315//850 316//850 489//850
f 316//851 320//851 490//851
f 490//852 320//852 491//852
f 320//853 321//853 491//853
f 491//854 321//854 492//854
f 321//855 324//855 492//855
f 492//856 324//856 493//856
f 324//857 325//857 493//857
f 493//858 325//858 494//858
f 325//859 328//859 494//859
f 494//860 328//860 495//860
f 495//861 329//861 496//861
f 328//862 329//862 495//862
f 496//863 331//863 497//863
f 329//864 331//864 496//864
f 497//865 332//865 498//865
f 498//866 332//866 499//866
f 331//867 332//867 497//867
f 332//868 334//868 499//868
f 499//869 337//869 500//869
f 334//870 337//870 499//870
f 500//871 339//871 501//871
f 337//872 339//872 500//872
f 501//873 341//873 502//873
f 339//874 341//874 501//874
f 502//875 344//875 503//875
f 341//876 344//876 502//876
f 503//877 345//877 504//877
f 504//878 345//878 379//878
f 344//879 345//879 503//879
f 345//880 347//880 379//880
f 460//881 457//881 458//881
f 460//882 458//882 459//882
f 461//883 457//883 460//883
f 462//884 457//884 461//884
f 451//885 452//885 453//885
f 450//886 457//886 462//886
f 450//887 451//887 453//887
f 450//888 453//888 454//888
f 450//889 454//889 455//889
f 450//890 455//890 456//890
f 450//891 456//891 457//891
f 450//892 462//892 463//892
f 448//893 449//893 450//893
f 469//894 450//894 463//894
f 469//895 448//895 450//895
f 469//896 463//896 464//896
f 469//897 464//897 465//897
f 469//898 465//898 466//898
f 469//899 466//899 467//899
f 469//900 467//900 468//900
f 445//901 446//901 447//901
f 445//902 447//902 448//902
f 471//903 448//903 469//903
f 471//904 469//904 470//904
f 473//905 448//905 471//905
f 473//906 471//906 472//906
f 442//907 443//907 444//907
f 442//908 444//908 445//908
f 442//909 445//909 448//909
f 440//910 441//910 442//910
f 476//911 448//911 473//911
f 476//912 473//912 474//912
f 476//913 474//913 475//913
f 439//914 440//914 442//914
f 479//915 476//915 477//915
f 479//916 448//916 476//916
f 479//917 477//917 478//917
f 436//918 439//918 442//918
f 436//919 437//919 438//919
f 436//920 438//920 439//920
f 436//921 442//921 448//921
f 480//922 448//922 479//922
f 434//923 435//923 436//923
f 482//924 448//924 480//924
f 482//925 480//925 481//925
f 433//926 434//926 436//926
f 432//927 433//927 436//927
f 485//928 482//928 483//928
f 485//929 483//929 484//929
f 430//930 431//930 432//930
f 429//931 432//931 436//931
f 429//932 430//932 432//932
f 487//933 485//933 486//933
f 487//934 482//934 485//934
f 428//935 429//935 436//935
f 488//936 482//936 487//936
f 426//937 428//937 436//937
f 426//938 427//938 428//938
f 490//939 488//939 489//939
f 490//940 482//940 488//940
f 491//941 482//941 490//941
f 424//942 425//942 426//942
f 493//943 491//943 492//943
f 493//944 482//944 491//944
f 422//945 423//945 424//945
f 422//946 424//946 426//946
f 494//947 482//947 493//947
f 421//948 426//948 436//948
f 421//949 422//949 426//949
f 496//950 494//950 495//950
f 496//951 448//951 482//951
f 496//952 482//952 494//952
f 417//953 418//953 419//953
f 417//954 419//954 420//954
f 499//955 496//955 497//955
f 499//956 497//956 498//956
f 499//957 448//957 496//957
f 416//958 420//958 421//958
f 416//959 421//959 436//959
f 416//960 417//960 420//960
f 414//961 415//961 416//961
f 502//962 500//962 501//962
f 504//963 502//963 503//963
f 504//964 500//964 502//964
f 411//965 412//965 413//965
f 411//966 413//966 414//966
f 411//967 414//967 416//967
f 379//968 500//968 504//968
f 380//969 500//969 379//969
f 380//970 499//970 500//970
f 409//971 410//971 411//971
f 381//972 499//972 380//972
f 408//973 409//973 411//973
f 383//974 381//974 382//974
f 383//975 499//975 381//975
f 405//976 408//976 411//976
f 405//977 406//977 407//977
f 405//978 407//978 408//978
f 385//979 383//979 384//979
f 385//980 499//980 383//980
f 386//981 499//981 385//981
f 386//982 448//982 499//982
f 386//983 436//983 448//983
f 403//984 404//984 405//984
f 403//985 405//985 411//985
f 388//986 386//986 387//986
f 388//987 436//987 386//987
f 400//988 401//988 402//988
f 400//989 402//989 403//989
f 399//990 411//990 416//990
f 399//991 403//991 411//991
f 399//992 400//992 403//992
f 391//993 388//993 389//993
f 391//994 389//994 390//994
f 392//995 388//995 391//995
f 397//996 398//996 399//996
f 393//997 388//997 392//997
f 396//998 399//998 416//998
f 396//999 397//999 399//999
f 396//1000 416//1000 436//1000
f 394//1001 388//1001 393//1001
f 395//1002 388//1002 394//1002
f 395//1003 396//1003 436//1003
f 395//1004 436//1004 388//1004
