# Created by FreeCAD <https://www.freecad.org>
v 0.000000 -20.000000 0.000000
v 0.000000 -20.000000 7.000000
v 0.000000 20.000000 0.000000
v 0.000000 20.000000 7.000000
v 140.000000 -20.000000 0.000000
v 140.000000 -20.000000 7.000000
v 25.000000 -6.000000 7.000000
v 5.000000 -6.000000 7.000000
v 5.000000 6.000000 7.000000
v 25.000000 6.000000 7.000000
v 117.067795 -2.720691 7.000000
v 117.207054 -2.863467 7.000000
v 117.353256 -2.999125 7.000000
v 116.935822 -2.571151 7.000000
v 117.506042 -3.127326 7.000000
v 116.811470 -2.415218 7.000000
v 117.665024 -3.247752 7.000000
v 116.695045 -2.253280 7.000000
v 117.829819 -3.360104 7.000000
v 116.586838 -2.085741 7.000000
v 118.000000 -3.464102 7.000000
v 116.487114 -1.913016 7.000000
v 118.175156 -3.559487 7.000000
v 116.396126 -1.735535 7.000000
v 116.314095 -1.553739 7.000000
v 116.241226 -1.368081 7.000000
v 116.177711 -1.179021 7.000000
v 116.123688 -0.987030 7.000000
v 116.079308 -0.792585 7.000000
v 116.044678 -0.596169 7.000000
v 116.019875 -0.398271 7.000000
v 116.004974 -0.199384 7.000000
v 116.000000 -0.000000 7.000000
v 116.004974 0.199384 7.000000
v 116.019875 0.398271 7.000000
v 116.044678 0.596169 7.000000
v 116.079308 0.792585 7.000000
v 116.123688 0.987030 7.000000
v 116.177711 1.179021 7.000000
v 116.241226 1.368081 7.000000
v 116.314095 1.553739 7.000000
v 116.396126 1.735535 7.000000
v 116.487114 1.913016 7.000000
v 116.586838 2.085741 7.000000
v 116.695045 2.253280 7.000000
v 116.811470 2.415218 7.000000
v 116.935822 2.571151 7.000000
v 117.067795 2.720691 7.000000
v 119.701080 -3.988815 7.000000
v 119.502625 -3.968957 7.000000
v 119.900276 -3.998757 7.000000
v 120.099724 -3.998757 7.000000
v 120.298920 -3.988815 7.000000
v 120.497375 -3.968957 7.000000
v 120.694595 -3.939231 7.000000
v 120.890083 -3.899712 7.000000
v 121.083359 -3.850497 7.000000
v 121.273949 -3.791709 7.000000
v 121.461365 -3.723495 7.000000
v 121.645149 -3.646024 7.000000
v 121.824844 -3.559487 7.000000
v 122.000000 -3.464102 7.000000
v 122.170181 -3.360104 7.000000
v 122.334976 -3.247752 7.000000
v 122.493958 -3.127326 7.000000
v 122.646744 -2.999125 7.000000
v 122.792946 -2.863467 7.000000
v 118.354851 -3.646024 7.000000
v 118.538635 -3.723495 7.000000
v 118.726051 -3.791709 7.000000
v 118.916641 -3.850497 7.000000
v 119.109917 -3.899712 7.000000
v 119.305405 -3.939231 7.000000
v 117.207054 2.863467 7.000000
v 122.932205 -2.720691 7.000000
v 117.353256 2.999125 7.000000
v 123.064178 -2.571151 7.000000
v 117.506042 3.127326 7.000000
v 123.188530 -2.415218 7.000000
v 117.665024 3.247752 7.000000
v 123.304955 -2.253280 7.000000
v 117.829819 3.360104 7.000000
v 123.413162 -2.085741 7.000000
v 123.512886 -1.913016 7.000000
v 123.603874 -1.735535 7.000000
v 123.685905 -1.553739 7.000000
v 123.758774 -1.368081 7.000000
v 123.822289 -1.179021 7.000000
v 123.876312 -0.987030 7.000000
v 123.920692 -0.792585 7.000000
v 123.955322 -0.596169 7.000000
v 123.980125 -0.398271 7.000000
v 123.995026 -0.199384 7.000000
v 124.000000 -0.000000 7.000000
v 140.000000 20.000000 7.000000
v 123.995026 0.199384 7.000000
v 123.980125 0.398271 7.000000
v 123.955322 0.596169 7.000000
v 123.920692 0.792585 7.000000
v 123.876312 0.987030 7.000000
v 123.822289 1.179021 7.000000
v 123.758774 1.368081 7.000000
v 123.685905 1.553739 7.000000
v 123.603874 1.735535 7.000000
v 123.512886 1.913016 7.000000
v 123.413162 2.085741 7.000000
v 123.304955 2.253280 7.000000
v 123.188530 2.415218 7.000000
v 123.064178 2.571151 7.000000
v 122.932205 2.720691 7.000000
v 122.792946 2.863467 7.000000
v 122.646744 2.999125 7.000000
v 122.493958 3.127326 7.000000
v 122.334976 3.247752 7.000000
v 122.170181 3.360104 7.000000
v 122.000000 3.464102 7.000000
v 121.824844 3.559487 7.000000
v 121.645149 3.646024 7.000000
v 121.461365 3.723495 7.000000
v 121.273949 3.791709 7.000000
v 121.083359 3.850497 7.000000
v 120.890083 3.899712 7.000000
v 120.694595 3.939231 7.000000
v 120.497375 3.968957 7.000000
v 120.298920 3.988815 7.000000
v 120.099724 3.998757 7.000000
v 119.900276 3.998757 7.000000
v 119.701080 3.988815 7.000000
v 119.502625 3.968957 7.000000
v 119.305405 3.939231 7.000000
v 119.109917 3.899712 7.000000
v 118.916641 3.850497 7.000000
v 118.726051 3.791709 7.000000
v 118.538635 3.723495 7.000000
v 118.354851 3.646024 7.000000
v 118.175156 3.559487 7.000000
v 118.000000 3.464102 7.000000
v 140.000000 20.000000 0.000000
v 25.000000 -6.000000 17.000000
v 5.000000 -6.000000 17.000000
v 25.000000 2.720691 14.067793
v 25.000000 2.863467 14.207053
v 25.000000 2.999125 14.353256
v 25.000000 2.571151 13.935822
v 25.000000 3.127326 14.506041
v 25.000000 2.415218 13.811470
v 25.000000 3.247752 14.665026
v 25.000000 2.253280 13.695045
v 25.000000 3.360104 14.829815
v 25.000000 6.000000 17.000000
v 25.000000 2.085741 13.586837
v 25.000000 3.464102 15.000000
v 25.000000 1.913016 13.487114
v 25.000000 3.559487 15.175158
v 25.000000 1.735535 13.396125
v 25.000000 3.646024 15.354852
v 25.000000 1.553739 13.314095
v 25.000000 3.723495 15.538636
v 25.000000 1.368081 13.241229
v 25.000000 3.791709 15.726053
v 25.000000 1.179021 13.177709
v 25.000000 3.850497 15.916638
v 25.000000 0.987030 13.123691
v 25.000000 3.899712 16.109917
v 25.000000 0.792585 13.079310
v 25.000000 3.939231 16.305407
v 25.000000 0.596169 13.044677
v 25.000000 3.968957 16.502625
v 25.000000 0.398271 13.019876
v 25.000000 3.988815 16.701080
v 25.000000 0.199384 13.004972
v 25.000000 3.998757 16.900278
v 25.000000 0.000000 13.000000
v 25.000000 3.998757 17.099722
v 25.000000 5.992541 17.299076
v 25.000000 -0.199384 13.004972
v 25.000000 3.988815 17.298920
v 25.000000 5.970185 17.597406
v 25.000000 -0.398271 13.019876
v 25.000000 3.968957 17.497375
v 25.000000 5.932985 17.894253
v 25.000000 -0.596169 13.044677
v 25.000000 3.939231 17.694593
v 25.000000 5.881035 18.188877
v 25.000000 -0.792585 13.079310
v 25.000000 3.899712 17.890083
v 25.000000 5.814464 18.480545
v 25.000000 -0.987030 13.123691
v 25.000000 3.850497 18.083363
v 25.000000 5.733437 18.768532
v 25.000000 -1.179021 13.177709
v 25.000000 3.791709 18.273947
v 25.000000 5.638156 19.052120
v 25.000000 -1.368081 13.241229
v 25.000000 3.723495 18.461365
v 25.000000 5.528857 19.330608
v 25.000000 -1.553739 13.314095
v 25.000000 3.646024 18.645149
v 25.000000 5.405813 19.603302
v 25.000000 -1.735535 13.396125
v 25.000000 3.559487 18.824842
v 25.000000 5.269330 19.869524
v 25.000000 -1.913016 13.487114
v 25.000000 3.464102 19.000000
v 25.000000 5.119745 20.128611
v 25.000000 -2.085741 13.586837
v 25.000000 3.360104 19.170185
v 25.000000 4.957433 20.379921
v 25.000000 -2.253280 13.695045
v 25.000000 3.247752 19.334974
v 25.000000 4.782795 20.622826
v 25.000000 -2.415218 13.811470
v 25.000000 3.127326 19.493959
v 25.000000 4.596267 20.856726
v 25.000000 -2.571151 13.935822
v 25.000000 2.999125 19.646744
v 25.000000 4.398311 21.081036
v 25.000000 -2.720691 14.067793
v 25.000000 2.863467 19.792948
v 25.000000 -2.863467 14.207053
v 25.000000 4.189421 21.295200
v 25.000000 2.720691 19.932207
v 25.000000 -2.999125 14.353256
v 25.000000 3.970115 21.498688
v 25.000000 2.571151 20.064178
v 25.000000 -3.127326 14.506041
v 25.000000 -3.247752 14.665026
v 25.000000 3.740939 21.690989
v 25.000000 2.415218 20.188530
v 25.000000 -3.360104 14.829815
v 25.000000 3.502462 21.871628
v 25.000000 2.253280 20.304955
v 25.000000 3.255278 22.040155
v 25.000000 2.085741 20.413164
v 25.000000 3.000000 22.196152
v 25.000000 1.913016 20.512886
v 25.000000 2.737264 22.339231
v 25.000000 1.735535 20.603876
v 25.000000 2.467723 22.469034
v 25.000000 1.553739 20.685905
v 25.000000 2.192046 22.585243
v 25.000000 1.368081 20.758770
v 25.000000 1.910920 22.687565
v 25.000000 1.179021 20.822290
v 25.000000 1.625043 22.775745
v 25.000000 0.987030 20.876308
v 25.000000 1.335126 22.849567
v 25.000000 0.792585 20.920691
v 25.000000 1.041889 22.908846
v 25.000000 0.596169 20.955324
v 25.000000 0.746062 22.953436
v 25.000000 0.398271 20.980124
v 25.000000 0.448381 22.983223
v 25.000000 0.199384 20.995028
v 25.000000 0.149584 22.998135
v 25.000000 0.000000 21.000000
v 25.000000 -3.464102 15.000000
v 25.000000 -3.559487 15.175158
v 25.000000 -3.646024 15.354852
v 25.000000 -3.723495 15.538636
v 25.000000 -3.791709 15.726053
v 25.000000 -3.850497 15.916638
v 25.000000 -3.899712 16.109917
v 25.000000 -3.939231 16.305407
v 25.000000 -3.968957 16.502625
v 25.000000 -3.988815 16.701080
v 25.000000 -3.998757 16.900278
v 25.000000 -3.998757 17.099722
v 25.000000 -0.149584 22.998135
v 25.000000 -0.199384 20.995028
v 25.000000 -5.992541 17.299076
v 25.000000 -3.988815 17.298920
v 25.000000 -0.448381 22.983223
v 25.000000 -0.398271 20.980124
v 25.000000 -5.970185 17.597406
v 25.000000 -3.968957 17.497375
v 25.000000 -0.746062 22.953436
v 25.000000 -0.596169 20.955324
v 25.000000 -5.932985 17.894253
v 25.000000 -3.939231 17.694593
v 25.000000 -1.041889 22.908846
v 25.000000 -0.792585 20.920691
v 25.000000 -5.881035 18.188877
v 25.000000 -3.899712 17.890083
v 25.000000 -1.335126 22.849567
v 25.000000 -0.987030 20.876308
v 25.000000 -5.814464 18.480545
v 25.000000 -3.850497 18.083363
v 25.000000 -1.625043 22.775745
v 25.000000 -1.179021 20.822290
v 25.000000 -5.733437 18.768532
v 25.000000 -3.791709 18.273947
v 25.000000 -1.910920 22.687565
v 25.000000 -1.368081 20.758770
v 25.000000 -5.638156 19.052120
v 25.000000 -3.723495 18.461365
v 25.000000 -2.192046 22.585243
v 25.000000 -1.553739 20.685905
v 25.000000 -5.528857 19.330608
v 25.000000 -3.646024 18.645149
v 25.000000 -2.467723 22.469034
v 25.000000 -1.735535 20.603876
v 25.000000 -5.405813 19.603302
v 25.000000 -3.559487 18.824842
v 25.000000 -2.737264 22.339231
v 25.000000 -1.913016 20.512886
v 25.000000 -5.269330 19.869524
v 25.000000 -3.464102 19.000000
v 25.000000 -3.000000 22.196152
v 25.000000 -2.085741 20.413164
v 25.000000 -5.119745 20.128611
v 25.000000 -3.360104 19.170185
v 25.000000 -3.255278 22.040155
v 25.000000 -2.253280 20.304955
v 25.000000 -4.957433 20.379921
v 25.000000 -3.247752 19.334974
v 25.000000 -3.502462 21.871628
v 25.000000 -2.415218 20.188530
v 25.000000 -4.782795 20.622826
v 25.000000 -3.127326 19.493959
v 25.000000 -3.740939 21.690989
v 25.000000 -2.571151 20.064178
v 25.000000 -4.596267 20.856726
v 25.000000 -2.999125 19.646744
v 25.000000 -3.970115 21.498688
v 25.000000 -2.720691 19.932207
v 25.000000 -4.398311 21.081036
v 25.000000 -2.863467 19.792948
v 25.000000 -4.189421 21.295200
v 5.000000 6.000000 17.000000
v 5.000000 2.863467 19.792948
v 5.000000 4.189421 21.295200
v 5.000000 4.398311 21.081036
v 5.000000 2.720691 19.932207
v 5.000000 3.970115 21.498688
v 5.000000 2.999125 19.646744
v 5.000000 4.596267 20.856726
v 5.000000 2.571151 20.064178
v 5.000000 3.740939 21.690989
v 5.000000 3.127326 19.493959
v 5.000000 4.782795 20.622826
v 5.000000 2.415218 20.188530
v 5.000000 3.502462 21.871628
v 5.000000 3.247752 19.334974
v 5.000000 4.957433 20.379921
v 5.000000 2.253280 20.304955
v 5.000000 3.255278 22.040155
v 5.000000 3.360104 19.170185
v 5.000000 5.119745 20.128611
v 5.000000 2.085741 20.413164
v 5.000000 3.000000 22.196152
v 5.000000 3.464102 19.000000
v 5.000000 5.269330 19.869524
v 5.000000 1.913016 20.512886
v 5.000000 2.737264 22.339231
v 5.000000 3.559487 18.824842
v 5.000000 5.405813 19.603302
v 5.000000 1.735535 20.603876
v 5.000000 2.467723 22.469034
v 5.000000 3.646024 18.645149
v 5.000000 5.528857 19.330608
v 5.000000 1.553739 20.685905
v 5.000000 2.192046 22.585243
v 5.000000 3.723495 18.461365
v 5.000000 5.638156 19.052120
v 5.000000 1.368081 20.758770
v 5.000000 1.910920 22.687565
v 5.000000 3.791709 18.273947
v 5.000000 5.733437 18.768532
v 5.000000 1.179021 20.822290
v 5.000000 1.625043 22.775745
v 5.000000 3.850497 18.083363
v 5.000000 5.814464 18.480545
v 5.000000 0.987030 20.876308
v 5.000000 1.335126 22.849567
v 5.000000 3.899712 17.890083
v 5.000000 5.881035 18.188877
v 5.000000 0.792585 20.920691
v 5.000000 1.041889 22.908846
v 5.000000 3.939231 17.694593
v 5.000000 5.932985 17.894253
v 5.000000 0.596169 20.955324
v 5.000000 0.746062 22.953436
v 5.000000 3.968957 17.497375
v 5.000000 5.970185 17.597406
v 5.000000 0.398271 20.980124
v 5.000000 0.448381 22.983223
v 5.000000 3.988815 17.298920
v 5.000000 5.992541 17.299076
v 5.000000 0.199384 20.995028
v 5.000000 0.149584 22.998135
v 5.000000 3.998757 17.099722
v 5.000000 0.000000 21.000000
v 5.000000 -0.149584 22.998135
v 5.000000 3.998757 16.900278
v 5.000000 -0.199384 20.995028
v 5.000000 -0.448381 22.983223
v 5.000000 3.988815 16.701080
v 5.000000 -0.398271 20.980124
v 5.000000 -0.746062 22.953436
v 5.000000 3.968957 16.502625
v 5.000000 -0.596169 20.955324
v 5.000000 -1.041889 22.908846
v 5.000000 3.939231 16.305407
v 5.000000 -0.792585 20.920691
v 5.000000 -1.335126 22.849567
v 5.000000 3.899712 16.109917
v 5.000000 -0.987030 20.876308
v 5.000000 -1.625043 22.775745
v 5.000000 3.850497 15.916638
v 5.000000 -1.179021 20.822290
v 5.000000 -1.910920 22.687565
v 5.000000 3.791709 15.726053
v 5.000000 -1.368081 20.758770
v 5.000000 -2.192046 22.585243
v 5.000000 3.723495 15.538636
v 5.000000 -1.553739 20.685905
v 5.000000 -2.467723 22.469034
v 5.000000 3.646024 15.354852
v 5.000000 -1.735535 20.603876
v 5.000000 -2.737264 22.339231
v 5.000000 3.559487 15.175158
v 5.000000 -1.913016 20.512886
v 5.000000 -3.000000 22.196152
v 5.000000 3.464102 15.000000
v 5.000000 -2.085741 20.413164
v 5.000000 -3.255278 22.040155
v 5.000000 3.360104 14.829815
v 5.000000 -2.253280 20.304955
v 5.000000 -3.502462 21.871628
v 5.000000 -2.415218 20.188530
v 5.000000 -3.740939 21.690989
v 5.000000 -2.571151 20.064178
v 5.000000 -3.970115 21.498688
v 5.000000 -2.720691 19.932207
v 5.000000 -4.189421 21.295200
v 5.000000 -2.863467 19.792948
v 5.000000 -4.398311 21.081036
v 5.000000 -2.999125 19.646744
v 5.000000 -4.596267 20.856726
v 5.000000 -3.127326 19.493959
v 5.000000 -4.782795 20.622826
v 5.000000 -3.247752 19.334974
v 5.000000 -4.957433 20.379921
v 5.000000 -3.360104 19.170185
v 5.000000 -5.119745 20.128611
v 5.000000 -3.464102 19.000000
v 5.000000 -5.269330 19.869524
v 5.000000 -3.559487 18.824842
v 5.000000 -5.405813 19.603302
v 5.000000 -3.646024 18.645149
v 5.000000 -5.528857 19.330608
v 5.000000 -3.723495 18.461365
v 5.000000 -5.638156 19.052120
v 5.000000 -3.791709 18.273947
v 5.000000 -5.733437 18.768532
v 5.000000 -3.850497 18.083363
v 5.000000 3.247752 14.665026
v 5.000000 3.127326 14.506041
v 5.000000 2.999125 14.353256
v 5.000000 2.863467 14.207053
v 5.000000 2.720691 14.067793
v 5.000000 2.571151 13.935822
v 5.000000 2.415218 13.811470
v 5.000000 2.253280 13.695045
v 5.000000 2.085741 13.586837
v 5.000000 1.913016 13.487114
v 5.000000 1.735535 13.396125
v 5.000000 1.553739 13.314095
v 5.000000 1.368081 13.241229
v 5.000000 1.179021 13.177709
v 5.000000 0.987030 13.123691
v 5.000000 0.792585 13.079310
v 5.000000 0.596169 13.044677
v 5.000000 0.398271 13.019876
v 5.000000 0.199384 13.004972
v 5.000000 0.000000 13.000000
v 5.000000 -5.814464 18.480545
v 5.000000 -3.899712 17.890083
v 5.000000 -5.881035 18.188877
v 5.000000 -3.939231 17.694593
v 5.000000 -5.932985 17.894253
v 5.000000 -3.968957 17.497375
v 5.000000 -5.970185 17.597406
v 5.000000 -3.988815 17.298920
v 5.000000 -5.992541 17.299076
v 5.000000 -3.998757 17.099722
v 5.000000 -3.464102 15.000000
v 5.000000 -3.360104 14.829815
v 5.000000 -3.559487 15.175158
v 5.000000 -3.646024 15.354852
v 5.000000 -3.723495 15.538636
v 5.000000 -3.791709 15.726053
v 5.000000 -3.850497 15.916638
v 5.000000 -3.899712 16.109917
v 5.000000 -3.939231 16.305407
v 5.000000 -3.968957 16.502625
v 5.000000 -3.988815 16.701080
v 5.000000 -3.998757 16.900278
v 5.000000 -0.199384 13.004972
v 5.000000 -0.398271 13.019876
v 5.000000 -0.596169 13.044677
v 5.000000 -0.792585 13.079310
v 5.000000 -0.987030 13.123691
v 5.000000 -1.179021 13.177709
v 5.000000 -1.368081 13.241229
v 5.000000 -1.553739 13.314095
v 5.000000 -1.735535 13.396125
v 5.000000 -1.913016 13.487114
v 5.000000 -2.085741 13.586837
v 5.000000 -2.253280 13.695045
v 5.000000 -2.415218 13.811470
v 5.000000 -2.571151 13.935822
v 5.000000 -2.720691 14.067793
v 5.000000 -2.863467 14.207053
v 5.000000 -2.999125 14.353256
v 5.000000 -3.127326 14.506041
v 5.000000 -3.247752 14.665026
v 123.995026 0.199384 15.000000
v 124.000000 -0.000000 15.000000
v 123.980125 0.398271 15.000000
v 123.955322 0.596169 15.000000
v 123.920692 0.792585 15.000000
v 123.876312 0.987030 15.000000
v 123.822289 1.179021 15.000000
v 123.758774 1.368081 15.000000
v 123.685905 1.553739 15.000000
v 123.603874 1.735535 15.000000
v 123.512886 1.913016 15.000000
v 123.413162 2.085741 15.000000
v 123.304955 2.253280 15.000000
v 123.188530 2.415218 15.000000
v 123.064178 2.571151 15.000000
v 122.932205 2.720691 15.000000
v 122.792946 2.863467 15.000000
v 122.646744 2.999125 15.000000
v 122.493958 3.127326 15.000000
v 122.334976 3.247752 15.000000
v 122.170181 3.360104 15.000000
v 122.000000 3.464102 15.000000
v 121.824844 3.559487 15.000000
v 121.645149 3.646024 15.000000
v 121.461365 3.723495 15.000000
v 121.273949 3.791709 15.000000
v 121.083359 3.850497 15.000000
v 120.890083 3.899712 15.000000
v 120.694595 3.939231 15.000000
v 120.497375 3.968957 15.000000
v 120.298920 3.988815 15.000000
v 120.099724 3.998757 15.000000
v 119.900276 3.998757 15.000000
v 119.701080 3.988815 15.000000
v 119.502625 3.968957 15.000000
v 119.305405 3.939231 15.000000
v 119.109917 3.899712 15.000000
v 118.916641 3.850497 15.000000
v 118.726051 3.791709 15.000000
v 118.538635 3.723495 15.000000
v 118.354851 3.646024 15.000000
v 118.175156 3.559487 15.000000
v 118.000000 3.464102 15.000000
v 117.829819 3.360104 15.000000
v 117.665024 3.247752 15.000000
v 117.506042 3.127326 15.000000
v 117.353256 2.999125 15.000000
v 117.207054 2.863467 15.000000
v 117.067795 2.720691 15.000000
v 116.935822 2.571151 15.000000
v 116.811470 2.415218 15.000000
v 116.695045 2.253280 15.000000
v 116.586838 2.085741 15.000000
v 116.487114 1.913016 15.000000
v 116.396126 1.735535 15.000000
v 116.314095 1.553739 15.000000
v 116.241226 1.368081 15.000000
v 116.177711 1.179021 15.000000
v 116.123688 0.987030 15.000000
v 116.079308 0.792585 15.000000
v 116.044678 0.596169 15.000000
v 116.019875 0.398271 15.000000
v 116.004974 0.199384 15.000000
v 116.000000 -0.000000 15.000000
v 116.004974 -0.199384 15.000000
v 116.019875 -0.398271 15.000000
v 116.044678 -0.596169 15.000000
v 116.079308 -0.792585 15.000000
v 116.123688 -0.987030 15.000000
v 116.177711 -1.179021 15.000000
v 116.241226 -1.368081 15.000000
v 116.314095 -1.553739 15.000000
v 116.396126 -1.735535 15.000000
v 116.487114 -1.913016 15.000000
v 116.586838 -2.085741 15.000000
v 116.695045 -2.253280 15.000000
v 116.811470 -2.415218 15.000000
v 116.935822 -2.571151 15.000000
v 117.067795 -2.720691 15.000000
v 117.207054 -2.863467 15.000000
v 117.353256 -2.999125 15.000000
v 117.506042 -3.127326 15.000000
v 117.665024 -3.247752 15.000000
v 117.829819 -3.360104 15.000000
v 118.000000 -3.464102 15.000000
v 118.175156 -3.559487 15.000000
v 118.354851 -3.646024 15.000000
v 118.538635 -3.723495 15.000000
v 118.726051 -3.791709 15.000000
v 118.916641 -3.850497 15.000000
v 119.109917 -3.899712 15.000000
v 119.305405 -3.939231 15.000000
v 119.502625 -3.968957 15.000000
v 119.701080 -3.988815 15.000000
v 119.900276 -3.998757 15.000000
v 120.099724 -3.998757 15.000000
v 120.298920 -3.988815 15.000000
v 120.497375 -3.968957 15.000000
v 120.694595 -3.939231 15.000000
v 120.890083 -3.899712 15.000000
v 121.083359 -3.850497 15.000000
v 121.273949 -3.791709 15.000000
v 121.461365 -3.723495 15.000000
v 121.645149 -3.646024 15.000000
v 121.824844 -3.559487 15.000000
v 122.000000 -3.464102 15.000000
v 122.170181 -3.360104 15.000000
v 122.334976 -3.247752 15.000000
v 122.493958 -3.127326 15.000000
v 122.646744 -2.999125 15.000000
v 122.792946 -2.863467 15.000000
v 122.932205 -2.720691 15.000000
v 123.064178 -2.571151 15.000000
v 123.188530 -2.415218 15.000000
v 123.304955 -2.253280 15.000000
v 123.413162 -2.085741 15.000000
v 123.512886 -1.913016 15.000000
v 123.603874 -1.735535 15.000000
v 123.685905 -1.553739 15.000000
v 123.758774 -1.368081 15.000000
v 123.822289 -1.179021 15.000000
v 123.876312 -0.987030 15.000000
v 123.920692 -0.792585 15.000000
v 123.955322 -0.596169 15.000000
v 123.980125 -0.398271 15.000000
v 123.995026 -0.199384 15.000000
vn -1.000000 0.000000 0.000000
vn -1.000000 0.000000 0.000000
vn 0.000000 -1.000000 0.000000
vn 0.000000 -1.000000 0.000000
vn 0.000000 0.000000 1.000000
vn 0.000000 0.000000 1.000000
vn 0.000000 0.000000 1.000000
vn 0.000000 0.000000 1.000000
vn 0.000000 0.000000 1.000000
vn 0.000000 0.000000 1.000000
vn 0.000000 0.000000 1.000000
vn 0.000000 0.000000 1.000000
vn 0.000000 0.000000 1.000000
vn 0.000000 0.000000 1.000000
vn 0.000000 0.000000 1.000000
vn 0.000000 0.000000 1.000000
vn 0.000000 0.000000 1.000000
vn 0.000000 0.000000 1.000000
vn 0.000000 0.000000 1.000000
vn 0.000000 0.000000 1.000000
vn 0.000000 0.000000 1.000000
vn 0.000000 0.000000 1.000000
vn 0.000000 0.000000 1.000000
vn 0.000000 0.000000 1.000000
vn 0.000000 0.000000 1.000000
vn 0.000000 0.000000 1.000000
vn 0.000000 0.000000 1.000000
vn 0.000000 0.000000 1.000000
vn 0.000000 0.000000 1.000000
vn 0.000000 0.000000 1.000000
vn 0.000000 0.000000 1.000000
vn 0.000000 0.000000 1.000000
vn 0.000000 0.000000 1.000000
vn 0.000000 0.000000 1.000000
vn 0.000000 0.000000 1.000000
vn 0.000000 0.000000 1.000000
vn 0.000000 0.000000 1.000000
vn 0.000000 0.000000 1.000000
vn 0.000000 0.000000 1.000000
vn 0.000000 0.000000 1.000000
vn 0.000000 0.000000 1.000000
vn 0.000000 0.000000 1.000000
vn 0.000000 0.000000 1.000000
vn 0.000000 0.000000 1.000000
vn 0.000000 0.000000 1.000000
vn 0.000000 0.000000 1.000000
vn 0.000000 0.000000 1.000000
vn 0.000000 0.000000 1.000000
vn 0.000000 0.000000 1.000000
vn 0.000000 0.000000 1.000000
vn 0.000000 0.000000 1.000000
vn 0.000000 0.000000 1.000000
vn 0.000000 0.000000 1.000000
vn 0.000000 0.000000 1.000000
vn 0.000000 0.000000 1.000000
vn 0.000000 0.000000 1.000000
vn 0.000000 0.000000 1.000000
vn 0.000000 0.000000 1.000000
vn 0.000000 0.000000 1.000000
vn 0.000000 0.000000 1.000000
vn 0.000000 0.000000 1.000000
vn 0.000000 0.000000 1.000000
vn 0.000000 0.000000 1.000000
vn 0.000000 0.000000 1.000000
vn 0.000000 0.000000 1.000000
vn 0.000000 0.000000 1.000000
vn 0.000000 0.000000 1.000000
vn 0.000000 0.000000 1.000000
vn 0.000000 0.000000 1.000000
vn 0.000000 0.000000 1.000000
vn 0.000000 0.000000 1.000000
vn 0.000000 0.000000 1.000000
vn 0.000000 0.000000 1.000000
vn 0.000000 0.000000 1.000000
vn 0.000000 0.000000 1.000000
vn 0.000000 0.000000 1.000000
vn 0.000000 0.000000 1.000000
vn 0.000000 0.000000 1.000000
vn 0.000000 0.000000 1.000000
vn 0.000000 0.000000 1.000000
vn 0.000000 0.000000 1.000000
vn 0.000000 0.000000 1.000000
vn 0.000000 0.000000 1.000000
vn 0.000000 0.000000 1.000000
vn 0.000000 0.000000 1.000000
vn 0.000000 0.000000 1.000000
vn 0.000000 0.000000 1.000000
vn 0.000000 0.000000 1.000000
vn 0.000000 0.000000 1.000000
vn 0.000000 0.000000 1.000000
vn 0.000000 0.000000 1.000000
vn 0.000000 0.000000 1.000000
vn 0.000000 0.000000 1.000000
vn 0.000000 0.000000 1.000000
vn 0.000000 0.000000 1.000000
vn 0.000000 0.000000 1.000000
vn 0.000000 0.000000 1.000000
vn 0.000000 0.000000 1.000000
vn 0.000000 0.000000 1.000000
vn 0.000000 0.000000 1.000000
vn 0.000000 0.000000 1.000000
vn 0.000000 0.000000 1.000000
vn 0.000000 0.000000 1.000000
vn 0.000000 0.000000 1.000000
vn 0.000000 0.000000 1.000000
vn 0.000000 0.000000 1.000000
vn 0.000000 0.000000 1.000000
vn 0.000000 0.000000 1.000000
vn 0.000000 0.000000 1.000000
vn 0.000000 0.000000 1.000000
vn 0.000000 0.000000 1.000000
vn 0.000000 0.000000 1.000000
vn 0.000000 0.000000 1.000000
vn 0.000000 0.000000 1.000000
vn 0.000000 0.000000 1.000000
vn 0.000000 0.000000 1.000000
vn 0.000000 0.000000 1.000000
vn 0.000000 0.000000 1.000000
vn 0.000000 0.000000 1.000000
vn 0.000000 0.000000 1.000000
vn 0.000000 0.000000 1.000000
vn 0.000000 0.000000 1.000000
vn 0.000000 0.000000 1.000000
vn 0.000000 0.000000 1.000000
vn 0.000000 0.000000 1.000000
vn 0.000000 0.000000 1.000000
vn 0.000000 0.000000 1.000000
vn 0.000000 0.000000 1.000000
vn 0.000000 0.000000 1.000000
vn 0.000000 0.000000 1.000000
vn 0.000000 0.000000 1.000000
vn 0.000000 0.000000 1.000000
vn 0.000000 0.000000 1.000000
vn 0.000000 0.000000 1.000000
vn 0.000000 0.000000 1.000000
vn 0.000000 0.000000 1.000000
vn 0.000000 0.000000 1.000000
vn 0.000000 0.000000 1.000000
vn 0.000000 0.000000 1.000000
vn 0.000000 0.000000 1.000000
vn 0.000000 1.000000 0.000000
vn 0.000000 1.000000 0.000000
vn 0.000000 0.000000 -1.000000
vn 0.000000 0.000000 -1.000000
vn 1.000000 0.000000 0.000000
vn 1.000000 -0.000000 0.000000
vn 0.000000 -1.000000 0.000000
vn 0.000000 -1.000000 0.000000
vn 1.000000 -0.000000 0.000000
vn 1.000000 0.000000 0.000000
vn 1.000000 -0.000000 0.000000
vn 1.000000 0.000000 0.000000
vn 1.000000 -0.000000 0.000000
vn 1.000000 0.000000 0.000000
vn 1.000000 -0.000000 0.000000
vn 1.000000 -0.000000 0.000000
vn 1.000000 0.000000 0.000000
vn 1.000000 -0.000000 0.000000
vn 1.000000 -0.000000 0.000000
vn 1.000000 -0.000000 0.000000
vn 1.000000 -0.000000 0.000000
vn 1.000000 -0.000000 0.000000
vn 1.000000 -0.000000 0.000000
vn 1.000000 -0.000000 0.000000
vn 1.000000 -0.000000 0.000000
vn 1.000000 -0.000000 0.000000
vn 1.000000 -0.000000 0.000000
vn 1.000000 -0.000000 0.000000
vn 1.000000 -0.000000 0.000000
vn 1.000000 -0.000000 0.000000
vn 1.000000 -0.000000 0.000000
vn 1.000000 -0.000000 0.000000
vn 1.000000 -0.000000 0.000000
vn 1.000000 -0.000000 0.000000
vn 1.000000 -0.000000 0.000000
vn 1.000000 -0.000000 0.000000
vn 1.000000 -0.000000 0.000000
vn 1.000000 -0.000000 0.000000
vn 1.000000 -0.000000 0.000000
vn 1.000000 0.000000 0.000000
vn 1.000000 -0.000000 0.000000
vn 1.000000 0.000000 0.000000
vn 1.000000 -0.000000 0.000000
vn 1.000000 0.000000 0.000000
vn 1.000000 0.000000 0.000000
vn 1.000000 -0.000000 0.000000
vn 1.000000 0.000000 0.000000
vn 1.000000 0.000000 0.000000
vn 1.000000 -0.000000 0.000000
vn 1.000000 0.000000 0.000000
vn 1.000000 0.000000 0.000000
vn 1.000000 -0.000000 0.000000
vn 1.000000 0.000000 0.000000
vn 1.000000 -0.000000 0.000000
vn 1.000000 0.000000 0.000000
vn 1.000000 0.000000 0.000000
vn 1.000000 -0.000000 0.000000
vn 1.000000 0.000000 0.000000
vn 1.000000 0.000000 0.000000
vn 1.000000 -0.000000 0.000000
vn 1.000000 0.000000 0.000000
vn 1.000000 0.000000 0.000000
vn 1.000000 -0.000000 0.000000
vn 1.000000 0.000000 0.000000
vn 1.000000 0.000000 0.000000
vn 1.000000 -0.000000 0.000000
vn 1.000000 0.000000 0.000000
vn 1.000000 0.000000 0.000000
vn 1.000000 -0.000000 0.000000
vn 1.000000 0.000000 0.000000
vn 1.000000 0.000000 0.000000
vn 1.000000 -0.000000 0.000000
vn 1.000000 0.000000 0.000000
vn 1.000000 0.000000 0.000000
vn 1.000000 -0.000000 0.000000
vn 1.000000 0.000000 0.000000
vn 1.000000 0.000000 0.000000
vn 1.000000 -0.000000 0.000000
vn 1.000000 0.000000 0.000000
vn 1.000000 0.000000 0.000000
vn 1.000000 -0.000000 0.000000
vn 1.000000 0.000000 0.000000
vn 1.000000 0.000000 0.000000
vn 1.000000 -0.000000 0.000000
vn 1.000000 0.000000 0.000000
vn 1.000000 0.000000 0.000000
vn 1.000000 -0.000000 0.000000
vn 1.000000 0.000000 0.000000
vn 1.000000 0.000000 0.000000
vn 1.000000 -0.000000 0.000000
vn 1.000000 0.000000 0.000000
vn 1.000000 0.000000 0.000000
vn 1.000000 0.000000 0.000000
vn 1.000000 0.000000 0.000000
vn 1.000000 0.000000 0.000000
vn 1.000000 0.000000 0.000000
vn 1.000000 0.000000 0.000000
vn 1.000000 0.000000 0.000000
vn 1.000000 0.000000 0.000000
vn 1.000000 0.000000 0.000000
vn 1.000000 0.000000 0.000000
vn 1.000000 0.000000 0.000000
vn 1.000000 0.000000 0.000000
vn 1.000000 0.000000 0.000000
vn 1.000000 0.000000 0.000000
vn 1.000000 0.000000 0.000000
vn 1.000000 0.000000 0.000000
vn 1.000000 0.000000 0.000000
vn 1.000000 0.000000 0.000000
vn 1.000000 0.000000 0.000000
vn 1.000000 0.000000 0.000000
vn 1.000000 0.000000 0.000000
vn 1.000000 0.000000 0.000000
vn 1.000000 0.000000 0.000000
vn 1.000000 0.000000 0.000000
vn 1.000000 0.000000 0.000000
vn 1.000000 0.000000 0.000000
vn 1.000000 0.000000 0.000000
vn 1.000000 0.000000 0.000000
vn 1.000000 0.000000 0.000000
vn 1.000000 0.000000 0.000000
vn 1.000000 0.000000 0.000000
vn 1.000000 0.000000 0.000000
vn 1.000000 0.000000 0.000000
vn 1.000000 0.000000 0.000000
vn 1.000000 0.000000 0.000000
vn 1.000000 0.000000 0.000000
vn 1.000000 0.000000 0.000000
vn 1.000000 0.000000 0.000000
vn 1.000000 0.000000 0.000000
vn 1.000000 0.000000 0.000000
vn 1.000000 0.000000 0.000000
vn 1.000000 0.000000 0.000000
vn 1.000000 0.000000 0.000000
vn 1.000000 0.000000 0.000000
vn 1.000000 0.000000 0.000000
vn 1.000000 -0.000000 0.000000
vn 1.000000 0.000000 0.000000
vn 1.000000 -0.000000 0.000000
vn 1.000000 0.000000 0.000000
vn 1.000000 0.000000 0.000000
vn 1.000000 -0.000000 0.000000
vn 1.000000 0.000000 0.000000
vn 1.000000 0.000000 0.000000
vn 1.000000 0.000000 0.000000
vn 1.000000 -0.000000 0.000000
vn 1.000000 0.000000 0.000000
vn 1.000000 0.000000 0.000000
vn 1.000000 0.000000 0.000000
vn 1.000000 -0.000000 0.000000
vn 1.000000 0.000000 0.000000
vn 1.000000 0.000000 0.000000
vn 1.000000 0.000000 0.000000
vn 1.000000 -0.000000 0.000000
vn 1.000000 0.000000 0.000000
vn 1.000000 0.000000 0.000000
vn 1.000000 0.000000 0.000000
vn 1.000000 0.000000 0.000000
vn 1.000000 -0.000000 0.000000
vn 1.000000 0.000000 0.000000
vn 1.000000 0.000000 0.000000
vn 1.000000 0.000000 0.000000
vn 1.000000 -0.000000 0.000000
vn 1.000000 0.000000 0.000000
vn 1.000000 0.000000 0.000000
vn 1.000000 0.000000 0.000000
vn 1.000000 -0.000000 0.000000
vn 1.000000 0.000000 0.000000
vn 1.000000 0.000000 0.000000
vn 1.000000 0.000000 0.000000
vn 1.000000 -0.000000 0.000000
vn 1.000000 0.000000 0.000000
vn 1.000000 0.000000 0.000000
vn 1.000000 0.000000 0.000000
vn 1.000000 -0.000000 0.000000
vn 1.000000 0.000000 0.000000
vn 1.000000 0.000000 0.000000
vn 1.000000 0.000000 0.000000
vn 1.000000 -0.000000 0.000000
vn 1.000000 0.000000 0.000000
vn 1.000000 0.000000 0.000000
vn 1.000000 0.000000 0.000000
vn 1.000000 -0.000000 0.000000
vn 1.000000 0.000000 0.000000
vn 1.000000 0.000000 0.000000
vn 1.000000 0.000000 0.000000
vn 1.000000 -0.000000 0.000000
vn 1.000000 0.000000 0.000000
vn 1.000000 0.000000 0.000000
vn 1.000000 0.000000 0.000000
vn 1.000000 -0.000000 0.000000
vn 1.000000 0.000000 0.000000
vn 1.000000 0.000000 0.000000
vn 1.000000 0.000000 0.000000
vn 1.000000 -0.000000 0.000000
vn 1.000000 0.000000 0.000000
vn 1.000000 0.000000 0.000000
vn 1.000000 0.000000 0.000000
vn 1.000000 0.000000 0.000000
vn 1.000000 -0.000000 0.000000
vn 0.000000 1.000000 0.000000
vn 0.000000 1.000000 0.000000
vn -1.000000 0.000000 0.000000
vn -1.000000 0.000000 0.000000
vn -1.000000 0.000000 0.000000
vn -1.000000 0.000000 0.000000
vn -1.000000 0.000000 0.000000
vn -1.000000 0.000000 0.000000
vn -1.000000 0.000000 0.000000
vn -1.000000 0.000000 0.000000
vn -1.000000 0.000000 0.000000
vn -1.000000 0.000000 0.000000
vn -1.000000 0.000000 0.000000
vn -1.000000 0.000000 0.000000
vn -1.000000 0.000000 0.000000
vn -1.000000 0.000000 0.000000
vn -1.000000 0.000000 0.000000
vn -1.000000 0.000000 0.000000
vn -1.000000 0.000000 0.000000
vn -1.000000 0.000000 0.000000
vn -1.000000 0.000000 0.000000
vn -1.000000 0.000000 0.000000
vn -1.000000 0.000000 0.000000
vn -1.000000 0.000000 0.000000
vn -1.000000 0.000000 0.000000
vn -1.000000 0.000000 0.000000
vn -1.000000 0.000000 0.000000
vn -1.000000 0.000000 0.000000
vn -1.000000 0.000000 0.000000
vn -1.000000 0.000000 0.000000
vn -1.000000 0.000000 0.000000
vn -1.000000 0.000000 0.000000
vn -1.000000 0.000000 0.000000
vn -1.000000 0.000000 0.000000
vn -1.000000 0.000000 0.000000
vn -1.000000 0.000000 0.000000
vn -1.000000 0.000000 0.000000
vn -1.000000 0.000000 0.000000
vn -1.000000 0.000000 0.000000
vn -1.000000 0.000000 0.000000
vn -1.000000 0.000000 0.000000
vn -1.000000 0.000000 0.000000
vn -1.000000 0.000000 0.000000
vn -1.000000 0.000000 0.000000
vn -1.000000 0.000000 0.000000
vn -1.000000 0.000000 0.000000
vn -1.000000 0.000000 0.000000
vn -1.000000 0.000000 0.000000
vn -1.000000 0.000000 0.000000
vn -1.000000 0.000000 0.000000
vn -1.000000 0.000000 0.000000
vn -1.000000 0.000000 0.000000
vn -1.000000 0.000000 0.000000
vn -1.000000 0.000000 0.000000
vn -1.000000 0.000000 0.000000
vn -1.000000 0.000000 0.000000
vn -1.000000 0.000000 0.000000
vn -1.000000 0.000000 0.000000
vn -1.000000 0.000000 0.000000
vn -1.000000 0.000000 0.000000
vn -1.000000 0.000000 0.000000
vn -1.000000 0.000000 0.000000
vn -1.000000 0.000000 0.000000
vn -1.000000 0.000000 0.000000
vn -1.000000 0.000000 0.000000
vn -1.000000 0.000000 0.000000
vn -1.000000 0.000000 0.000000
vn -1.000000 0.000000 0.000000
vn -1.000000 0.000000 0.000000
vn -1.000000 0.000000 0.000000
vn -1.000000 0.000000 0.000000
vn -1.000000 0.000000 0.000000
vn -1.000000 0.000000 0.000000
vn -1.000000 0.000000 0.000000
vn -1.000000 0.000000 0.000000
vn -1.000000 0.000000 0.000000
vn -1.000000 0.000000 0.000000
vn -1.000000 0.000000 0.000000
vn -1.000000 0.000000 0.000000
vn -1.000000 0.000000 0.000000
vn -1.000000 0.000000 0.000000
vn -1.000000 0.000000 0.000000
vn -1.000000 0.000000 0.000000
vn -1.000000 0.000000 0.000000
vn -1.000000 0.000000 0.000000
vn -1.000000 0.000000 0.000000
vn -1.000000 0.000000 0.000000
vn -1.000000 0.000000 0.000000
vn -1.000000 0.000000 0.000000
vn -1.000000 0.000000 0.000000
vn -1.000000 0.000000 0.000000
vn -1.000000 0.000000 0.000000
vn -1.000000 0.000000 0.000000
vn -1.000000 0.000000 0.000000
vn -1.000000 0.000000 0.000000
vn -1.000000 0.000000 0.000000
vn -1.000000 0.000000 0.000000
vn -1.000000 0.000000 0.000000
vn -1.000000 0.000000 0.000000
vn -1.000000 0.000000 0.000000
vn -1.000000 0.000000 0.000000
vn -1.000000 0.000000 0.000000
vn -1.000000 0.000000 0.000000
vn -1.000000 0.000000 0.000000
vn -1.000000 0.000000 0.000000
vn -1.000000 0.000000 0.000000
vn -1.000000 0.000000 0.000000
vn -1.000000 0.000000 0.000000
vn -1.000000 0.000000 0.000000
vn -1.000000 0.000000 0.000000
vn -1.000000 0.000000 0.000000
vn -1.000000 0.000000 0.000000
vn -1.000000 0.000000 0.000000
vn -1.000000 0.000000 0.000000
vn -1.000000 0.000000 0.000000
vn -1.000000 0.000000 0.000000
vn -1.000000 0.000000 0.000000
vn -1.000000 0.000000 0.000000
vn -1.000000 0.000000 0.000000
vn -1.000000 0.000000 0.000000
vn -1.000000 0.000000 0.000000
vn -1.000000 0.000000 0.000000
vn -1.000000 0.000000 0.000000
vn -1.000000 0.000000 0.000000
vn -1.000000 0.000000 0.000000
vn -1.000000 0.000000 0.000000
vn -1.000000 0.000000 0.000000
vn -1.000000 0.000000 0.000000
vn -1.000000 0.000000 0.000000
vn -1.000000 0.000000 0.000000
vn -1.000000 0.000000 0.000000
vn -1.000000 0.000000 0.000000
vn -1.000000 0.000000 0.000000
vn -1.000000 0.000000 0.000000
vn -1.000000 0.000000 0.000000
vn -1.000000 0.000000 0.000000
vn -1.000000 0.000000 0.000000
vn -1.000000 0.000000 0.000000
vn -1.000000 0.000000 0.000000
vn -1.000000 0.000000 0.000000
vn -1.000000 0.000000 0.000000
vn -1.000000 0.000000 0.000000
vn -1.000000 0.000000 0.000000
vn -1.000000 0.000000 0.000000
vn -1.000000 0.000000 0.000000
vn -1.000000 0.000000 0.000000
vn -1.000000 0.000000 0.000000
vn -1.000000 0.000000 0.000000
vn -1.000000 0.000000 0.000000
vn -1.000000 0.000000 0.000000
vn -1.000000 0.000000 0.000000
vn -1.000000 0.000000 0.000000
vn -1.000000 0.000000 0.000000
vn -1.000000 0.000000 0.000000
vn -1.000000 0.000000 0.000000
vn -1.000000 0.000000 0.000000
vn -1.000000 0.000000 0.000000
vn -1.000000 0.000000 0.000000
vn -1.000000 0.000000 0.000000
vn -1.000000 0.000000 0.000000
vn -1.000000 0.000000 0.000000
vn -1.000000 0.000000 0.000000
vn -1.000000 0.000000 0.000000
vn -1.000000 0.000000 0.000000
vn -1.000000 0.000000 0.000000
vn -1.000000 0.000000 0.000000
vn -1.000000 0.000000 0.000000
vn -1.000000 0.000000 0.000000
vn -1.000000 0.000000 0.000000
vn -1.000000 0.000000 0.000000
vn -1.000000 0.000000 0.000000
vn -1.000000 0.000000 0.000000
vn -1.000000 0.000000 0.000000
vn -1.000000 0.000000 0.000000
vn -1.000000 0.000000 0.000000
vn -1.000000 0.000000 0.000000
vn -1.000000 0.000000 0.000000
vn -1.000000 0.000000 0.000000
vn -1.000000 0.000000 0.000000
vn -1.000000 0.000000 0.000000
vn -1.000000 0.000000 0.000000
vn -1.000000 0.000000 0.000000
vn -1.000000 0.000000 0.000000
vn -1.000000 0.000000 0.000000
vn -1.000000 0.000000 0.000000
vn -1.000000 0.000000 0.000000
vn -1.000000 0.000000 0.000000
vn -1.000000 0.000000 0.000000
vn -1.000000 0.000000 0.000000
vn -1.000000 0.000000 0.000000
vn -1.000000 0.000000 0.000000
vn -1.000000 0.000000 0.000000
vn -1.000000 0.000000 0.000000
vn -1.000000 0.000000 0.000000
vn 0.999689 0.024941 0.000000
vn 0.999689 0.024941 0.000000
vn 0.997205 0.074708 0.000000
vn 0.997205 0.074708 0.000000
vn 0.992237 0.124360 0.000000
vn 0.992237 0.124360 0.000000
vn 0.984811 0.173631 0.000000
vn 0.984811 0.173631 0.000000
vn 0.974929 0.222518 0.000000
vn 0.974929 0.222518 0.000000
vn 0.962617 0.270868 0.000000
vn 0.947937 0.318459 0.000000
vn 0.962617 0.270868 0.000000
vn 0.947937 0.318459 0.000000
vn 0.930869 0.365353 0.000000
vn 0.930869 0.365353 0.000000
vn 0.911502 0.411295 0.000000
vn 0.911502 0.411295 0.000000
vn 0.889874 0.456206 0.000000
vn 0.866023 0.500004 0.000000
vn 0.889874 0.456206 0.000000
vn 0.866023 0.500004 0.000000
vn 0.840028 0.542544 0.000000
vn 0.840028 0.542544 0.000000
vn 0.811939 0.583742 0.000000
vn 0.811939 0.583742 0.000000
vn 0.781834 0.623487 0.000000
vn 0.781834 0.623487 0.000000
vn 0.749774 0.661694 0.000000
vn 0.749774 0.661694 0.000000
vn 0.715869 0.698234 0.000000
vn 0.715869 0.698234 0.000000
vn 0.680177 0.733048 0.000000
vn 0.680177 0.733048 0.000000
vn 0.642783 0.766048 0.000000
vn 0.642783 0.766048 0.000000
vn 0.603812 0.797127 0.000000
vn 0.603812 0.797127 0.000000
vn 0.563308 0.826247 0.000000
vn 0.563308 0.826247 0.000000
vn 0.521444 0.853286 0.000000
vn 0.521444 0.853286 0.000000
vn 0.478258 0.878219 0.000000
vn 0.478258 0.878219 0.000000
vn 0.433882 0.900970 0.000000
vn 0.433882 0.900970 0.000000
vn 0.388434 0.921476 0.000000
vn 0.388434 0.921476 0.000000
vn 0.342023 0.939692 0.000000
vn 0.342023 0.939692 0.000000
vn 0.294748 0.955575 0.000000
vn 0.294748 0.955575 0.000000
vn 0.246760 0.969077 0.000000
vn 0.246760 0.969077 0.000000
vn 0.198149 0.980172 0.000000
vn 0.198149 0.980172 0.000000
vn 0.149041 0.988831 0.000000
vn 0.149041 0.988831 0.000000
vn 0.099568 0.995031 0.000000
vn 0.099568 0.995031 0.000000
vn 0.049845 0.998757 0.000000
vn 0.049845 0.998757 0.000000
vn 0.000000 1.000000 0.000000
vn -0.049845 0.998757 0.000000
vn -0.000000 1.000000 0.000000
vn -0.049845 0.998757 0.000000
vn -0.099568 0.995031 0.000000
vn -0.099568 0.995031 0.000000
vn -0.149041 0.988831 0.000000
vn -0.149041 0.988831 0.000000
vn -0.198149 0.980172 0.000000
vn -0.198149 0.980172 0.000000
vn -0.246760 0.969077 0.000000
vn -0.246760 0.969077 0.000000
vn -0.294748 0.955575 0.000000
vn -0.294748 0.955575 0.000000
vn -0.342023 0.939692 0.000000
vn -0.342023 0.939692 0.000000
vn -0.388434 0.921476 0.000000
vn -0.388434 0.921476 0.000000
vn -0.433882 0.900970 0.000000
vn -0.433882 0.900970 0.000000
vn -0.478258 0.878219 0.000000
vn -0.478258 0.878219 0.000000
vn -0.521444 0.853286 0.000000
vn -0.521444 0.853286 0.000000
vn -0.563308 0.826247 0.000000
vn -0.563308 0.826247 0.000000
vn -0.603812 0.797127 0.000000
vn -0.603812 0.797127 0.000000
vn -0.642783 0.766048 0.000000
vn -0.642783 0.766048 0.000000
vn -0.680177 0.733048 0.000000
vn -0.680177 0.733048 0.000000
vn -0.715869 0.698234 0.000000
vn -0.715869 0.698234 0.000000
vn -0.749774 0.661694 0.000000
vn -0.749774 0.661694 0.000000
vn -0.781834 0.623487 0.000000
vn -0.781834 0.623487 0.000000
vn -0.811939 0.583742 0.000000
vn -0.811939 0.583742 0.000000
vn -0.840028 0.542544 0.000000
vn -0.840028 0.542544 0.000000
vn -0.866023 0.500004 0.000000
vn -0.866023 0.500004 0.000000
vn -0.889874 0.456206 0.000000
vn -0.889874 0.456206 0.000000
vn -0.911502 0.411295 0.000000
vn -0.911502 0.411295 0.000000
vn -0.930869 0.365353 0.000000
vn -0.930869 0.365353 0.000000
vn -0.947937 0.318459 0.000000
vn -0.947937 0.318459 0.000000
vn -0.962617 0.270868 0.000000
vn -0.962617 0.270868 0.000000
vn -0.974929 0.222518 0.000000
vn -0.974929 0.222518 0.000000
vn -0.984811 0.173631 0.000000
vn -0.984811 0.173631 0.000000
vn -0.992237 0.124360 0.000000
vn -0.992237 0.124360 0.000000
vn -0.997205 0.074708 0.000000
vn -0.997205 0.074708 0.000000
vn -0.999689 0.024941 0.000000
vn -0.999689 0.024941 0.000000
vn -0.999689 -0.024941 0.000000
vn -0.999689 -0.024941 -0.000000
vn -0.997205 -0.074708 0.000000
vn -0.997205 -0.074708 -0.000000
vn -0.992237 -0.124360 0.000000
vn -0.992237 -0.124360 -0.000000
vn -0.984811 -0.173631 0.000000
vn -0.984811 -0.173631 -0.000000
vn -0.974929 -0.222518 0.000000
vn -0.974929 -0.222518 -0.000000
vn -0.962617 -0.270868 0.000000
vn -0.962617 -0.270868 -0.000000
vn -0.947937 -0.318459 0.000000
vn -0.947937 -0.318459 -0.000000
vn -0.930869 -0.365353 0.000000
vn -0.930869 -0.365353 -0.000000
vn -0.911502 -0.411295 0.000000
vn -0.911502 -0.411295 -0.000000
vn -0.889874 -0.456206 0.000000
vn -0.889874 -0.456206 -0.000000
vn -0.866023 -0.500004 0.000000
vn -0.866023 -0.500004 -0.000000
vn -0.840028 -0.542544 -0.000000
vn -0.840028 -0.542544 0.000000
vn -0.811939 -0.583742 -0.000000
vn -0.811939 -0.583742 0.000000
vn -0.781834 -0.623487 -0.000000
vn -0.781834 -0.623487 0.000000
vn -0.749774 -0.661694 -0.000000
vn -0.749774 -0.661694 0.000000
vn -0.715869 -0.698234 -0.000000
vn -0.715869 -0.698234 0.000000
vn -0.680177 -0.733048 -0.000000
vn -0.680177 -0.733048 0.000000
vn -0.642783 -0.766048 -0.000000
vn -0.642783 -0.766048 0.000000
vn -0.603812 -0.797127 -0.000000
vn -0.603812 -0.797127 0.000000
vn -0.563308 -0.826247 -0.000000
vn -0.563308 -0.826247 0.000000
vn -0.521444 -0.853286 -0.000000
vn -0.521444 -0.853286 0.000000
vn -0.478258 -0.878219 -0.000000
vn -0.478258 -0.878219 0.000000
vn -0.433882 -0.900970 -0.000000
vn -0.433882 -0.900970 0.000000
vn -0.388434 -0.921476 -0.000000
vn -0.388434 -0.921476 0.000000
vn -0.342023 -0.939692 0.000000
vn -0.342023 -0.939692 -0.000000
vn -0.294748 -0.955575 0.000000
vn -0.294748 -0.955575 -0.000000
vn -0.246760 -0.969077 0.000000
vn -0.246760 -0.969077 -0.000000
vn -0.198149 -0.980172 0.000000
vn -0.198149 -0.980172 -0.000000
vn -0.149041 -0.988831 -0.000000
vn -0.149041 -0.988831 0.000000
vn -0.099568 -0.995031 -0.000000
vn -0.099568 -0.995031 0.000000
vn -0.049845 -0.998757 -0.000000
vn -0.049845 -0.998757 0.000000
vn 0.000000 -1.000000 -0.000000
vn -0.000000 -1.000000 0.000000
vn 0.049845 -0.998757 0.000000
vn 0.049845 -0.998757 0.000000
vn 0.099568 -0.995031 0.000000
vn 0.099568 -0.995031 0.000000
vn 0.149041 -0.988831 0.000000
vn 0.149041 -0.988831 0.000000
vn 0.198149 -0.980172 0.000000
vn 0.198149 -0.980172 0.000000
vn 0.246760 -0.969077 0.000000
vn 0.246760 -0.969077 0.000000
vn 0.294748 -0.955575 0.000000
vn 0.294748 -0.955575 0.000000
vn 0.342023 -0.939692 0.000000
vn 0.342023 -0.939692 0.000000
vn 0.388434 -0.921476 0.000000
vn 0.388434 -0.921476 0.000000
vn 0.433882 -0.900970 0.000000
vn 0.433882 -0.900970 0.000000
vn 0.478258 -0.878219 0.000000
vn 0.478258 -0.878219 0.000000
vn 0.521444 -0.853286 0.000000
vn 0.521444 -0.853286 0.000000
vn 0.563308 -0.826247 0.000000
vn 0.563308 -0.826247 0.000000
vn 0.603812 -0.797127 0.000000
vn 0.603812 -0.797127 0.000000
vn 0.642783 -0.766048 0.000000
vn 0.642783 -0.766048 0.000000
vn 0.680177 -0.733048 0.000000
vn 0.680177 -0.733048 0.000000
vn 0.715869 -0.698234 0.000000
vn 0.715869 -0.698234 0.000000
vn 0.749774 -0.661694 0.000000
vn 0.749774 -0.661694 0.000000
vn 0.781834 -0.623487 0.000000
vn 0.781834 -0.623487 0.000000
vn 0.811939 -0.583742 0.000000
vn 0.811939 -0.583742 0.000000
vn 0.840028 -0.542544 0.000000
vn 0.840028 -0.542544 0.000000
vn 0.866023 -0.500004 0.000000
vn 0.866023 -0.500004 0.000000
vn 0.889874 -0.456206 0.000000
vn 0.889874 -0.456206 0.000000
vn 0.911502 -0.411295 0.000000
vn 0.911502 -0.411295 0.000000
vn 0.930869 -0.365353 0.000000
vn 0.930869 -0.365353 0.000000
vn 0.947937 -0.318459 0.000000
vn 0.947937 -0.318459 0.000000
vn 0.962617 -0.270868 0.000000
vn 0.962617 -0.270868 0.000000
vn 0.974929 -0.222518 0.000000
vn 0.974929 -0.222518 0.000000
vn 0.984811 -0.173631 0.000000
vn 0.984811 -0.173631 0.000000
vn 0.992237 -0.124360 0.000000
vn 0.992237 -0.124360 0.000000
vn 0.997205 -0.074708 0.000000
vn 0.997205 -0.074708 0.000000
vn 0.999689 -0.024941 0.000000
vn 0.999689 -0.024941 0.000000
vn 0.000000 -0.999689 0.024931
vn 0.000000 -0.999689 0.024931
vn 0.000000 -0.997204 0.074729
vn 0.000000 -0.997204 0.074729
vn 0.000000 -0.992239 0.124345
vn 0.000000 -0.992239 0.124345
vn 0.000000 -0.984808 0.173647
vn 0.000000 -0.984808 0.173647
vn 0.000000 -0.974928 0.222521
vn 0.000000 -0.974928 0.222521
vn 0.000000 -0.962625 0.270839
vn 0.000000 -0.962625 0.270839
vn 0.000000 -0.947927 0.318488
vn 0.000000 -0.947927 0.318488
vn 0.000000 -0.930874 0.365341
vn 0.000000 -0.930874 0.365341
vn 0.000000 -0.911506 0.411287
vn 0.000000 -0.911506 0.411287
vn 0.000000 -0.889872 0.456210
vn 0.000000 -0.889872 0.456210
vn 0.000000 -0.866025 0.500001
vn 0.000000 -0.866025 0.500001
vn 0.000000 -0.840027 0.542544
vn 0.000000 -0.840027 0.542544
vn 0.000000 -0.811936 0.583746
vn 0.000000 -0.811936 0.583746
vn 0.000000 -0.781833 0.623488
vn 0.000000 -0.781833 0.623488
vn 0.000000 -0.749780 0.661688
vn 0.000000 -0.749780 0.661688
vn 0.000000 -0.715867 0.698237
vn 0.000000 -0.715867 0.698237
vn 0.000000 -0.680175 0.733050
vn 0.000000 -0.642786 0.766046
vn 0.000000 -0.680175 0.733050
vn 0.000000 -0.642786 0.766046
vn 0.000000 -0.603805 0.797132
vn 0.000000 -0.603805 0.797132
vn 0.000000 -0.563320 0.826239
vn 0.000000 -0.563320 0.826239
vn 0.000000 -0.521434 0.853292
vn 0.000000 -0.521434 0.853292
vn 0.000000 -0.478257 0.878220
vn 0.000000 -0.478257 0.878220
vn 0.000000 -0.433880 0.900971
vn 0.000000 -0.433880 0.900971
vn 0.000000 -0.388439 0.921474
vn 0.000000 -0.388439 0.921474
vn 0.000000 -0.342020 0.939693
vn 0.000000 -0.342020 0.939693
vn 0.000000 -0.294753 0.955574
vn 0.000000 -0.294753 0.955574
vn 0.000000 -0.246757 0.969077
vn 0.000000 -0.246757 0.969077
vn 0.000000 -0.198144 0.980173
vn 0.000000 -0.198144 0.980173
vn 0.000000 -0.149046 0.988830
vn 0.000000 -0.149046 0.988830
vn 0.000000 -0.099566 0.995031
vn 0.000000 -0.099566 0.995031
vn 0.000000 -0.049844 0.998757
vn 0.000000 -0.049844 0.998757
vn 0.000000 0.000000 1.000000
vn -0.000000 0.000000 1.000000
vn 0.000000 0.049844 0.998757
vn -0.000000 0.049844 0.998757
vn 0.000000 0.099566 0.995031
vn -0.000000 0.099566 0.995031
vn -0.000000 0.149046 0.988830
vn -0.000000 0.149046 0.988830
vn -0.000000 0.198144 0.980173
vn -0.000000 0.198144 0.980173
vn -0.000000 0.246757 0.969077
vn 0.000000 0.246757 0.969077
vn -0.000000 0.294753 0.955574
vn -0.000000 0.342020 0.939693
vn 0.000000 0.294753 0.955574
vn -0.000000 0.342020 0.939693
vn -0.000000 0.388439 0.921474
vn 0.000000 0.388439 0.921474
vn -0.000000 0.433880 0.900971
vn 0.000000 0.433880 0.900971
vn -0.000000 0.478257 0.878220
vn 0.000000 0.478257 0.878220
vn 0.000000 0.521434 0.853292
vn -0.000000 0.521434 0.853292
vn 0.000000 0.563320 0.826239
vn -0.000000 0.563320 0.826239
vn -0.000000 0.603805 0.797132
vn 0.000000 0.603805 0.797132
vn -0.000000 0.642786 0.766046
vn 0.000000 0.642786 0.766046
vn -0.000000 0.680175 0.733050
vn 0.000000 0.680175 0.733050
vn -0.000000 0.715867 0.698237
vn -0.000000 0.749780 0.661688
vn 0.000000 0.715867 0.698237
vn -0.000000 0.749780 0.661688
vn -0.000000 0.781833 0.623488
vn 0.000000 0.781833 0.623488
vn -0.000000 0.811936 0.583746
vn -0.000000 0.840027 0.542544
vn 0.000000 0.811936 0.583746
vn -0.000000 0.866025 0.500001
vn -0.000000 0.840027 0.542544
vn -0.000000 0.866025 0.500001
vn -0.000000 0.889872 0.456210
vn 0.000000 0.889872 0.456210
vn -0.000000 0.911506 0.411287
vn 0.000000 0.911506 0.411287
vn -0.000000 0.930874 0.365341
vn 0.000000 0.930874 0.365341
vn -0.000000 0.947927 0.318488
vn 0.000000 0.947927 0.318488
vn -0.000000 0.962625 0.270839
vn 0.000000 0.962625 0.270839
vn -0.000000 0.974928 0.222521
vn -0.000000 0.984808 0.173647
vn 0.000000 0.974928 0.222521
vn -0.000000 0.984808 0.173647
vn -0.000000 0.992239 0.124345
vn 0.000000 0.992239 0.124345
vn -0.000000 0.997204 0.074729
vn 0.000000 0.997204 0.074729
vn -0.000000 0.999689 0.024931
vn 0.000000 0.999689 0.024931
vn -0.000000 0.024931 0.999689
vn 0.000000 0.024931 0.999689
vn 0.000000 0.074727 0.997204
vn 0.000000 0.124346 0.992239
vn 0.000000 0.074727 0.997204
vn 0.000000 0.124346 0.992239
vn 0.000000 0.173650 0.984807
vn 0.000000 0.222518 0.974929
vn -0.000000 0.173650 0.984807
vn 0.000000 0.222518 0.974929
vn 0.000000 0.270841 0.962624
vn -0.000000 0.270841 0.962624
vn 0.000000 0.318485 0.947928
vn 0.000000 0.365345 0.930872
vn -0.000000 0.318485 0.947928
vn 0.000000 0.365345 0.930872
vn 0.000000 0.411287 0.911506
vn -0.000000 0.411287 0.911506
vn 0.000000 0.456210 0.889872
vn -0.000000 0.456210 0.889872
vn -0.000000 0.500000 0.866025
vn 0.000000 0.500000 0.866025
vn 0.000000 0.542544 0.840028
vn 0.000000 0.542544 0.840028
vn -0.000000 0.583745 0.811937
vn 0.000000 0.583745 0.811937
vn -0.000000 0.623490 0.781831
vn 0.000000 0.623490 0.781831
vn -0.000000 0.661686 0.749781
vn 0.000000 0.661686 0.749781
vn 0.000000 0.698237 0.715867
vn 0.000000 0.698237 0.715867
vn -0.000000 0.733050 0.680175
vn 0.000000 0.733050 0.680175
vn -0.000000 0.766044 0.642787
vn 0.000000 0.766044 0.642787
vn 0.000000 0.797134 0.603802
vn 0.000000 0.797134 0.603802
vn -0.000000 0.826238 0.563321
vn 0.000000 0.826238 0.563321
vn -0.000000 0.853291 0.521435
vn 0.000000 0.853291 0.521435
vn -0.000000 0.878221 0.478254
vn 0.000000 0.878221 0.478254
vn 0.000000 0.900969 0.433884
vn -0.000000 0.900969 0.433884
vn 0.000000 0.921477 0.388434
vn -0.000000 0.921477 0.388434
vn 0.000000 0.939692 0.342021
vn -0.000000 0.939692 0.342021
vn 0.000000 0.955573 0.294755
vn -0.000000 0.955573 0.294755
vn 0.000000 0.969077 0.246757
vn -0.000000 0.969077 0.246757
vn 0.000000 0.980172 0.198147
vn 0.000000 0.988831 0.149042
vn -0.000000 0.980172 0.198147
vn 0.000000 0.988831 0.149042
vn 0.000000 0.995031 0.099568
vn -0.000000 0.995031 0.099568
vn 0.000000 0.998757 0.049845
vn -0.000000 0.998757 0.049845
vn 0.000000 1.000000 -0.000000
vn 0.000000 1.000000 0.000000
vn 0.000000 0.998757 -0.049845
vn 0.000000 0.998757 -0.049845
vn 0.000000 0.995031 -0.099568
vn 0.000000 0.995031 -0.099568
vn 0.000000 0.988831 -0.149042
vn 0.000000 0.988831 -0.149042
vn 0.000000 0.980172 -0.198147
vn 0.000000 0.980172 -0.198147
vn 0.000000 0.969078 -0.246756
vn 0.000000 0.969078 -0.246756
vn 0.000000 0.955573 -0.294756
vn 0.000000 0.955573 -0.294756
vn 0.000000 0.939693 -0.342019
vn 0.000000 0.939693 -0.342019
vn 0.000000 0.921477 -0.388434
vn 0.000000 0.921477 -0.388434
vn 0.000000 0.900968 -0.433886
vn 0.000000 0.900968 -0.433886
vn 0.000000 0.878221 -0.478254
vn 0.000000 0.878221 -0.478254
vn 0.000000 0.853291 -0.521435
vn 0.000000 0.853291 -0.521435
vn 0.000000 0.826238 -0.563321
vn 0.000000 0.826238 -0.563321
vn 0.000000 0.797134 -0.603802
vn 0.000000 0.797134 -0.603802
vn 0.000000 0.766044 -0.642787
vn 0.000000 0.766044 -0.642787
vn 0.000000 0.733052 -0.680172
vn 0.000000 0.733052 -0.680172
vn 0.000000 0.698234 -0.715869
vn 0.000000 0.698234 -0.715869
vn 0.000000 0.661689 -0.749778
vn 0.000000 0.661689 -0.749778
vn 0.000000 0.623487 -0.781834
vn 0.000000 0.623487 -0.781834
vn 0.000000 0.583742 -0.811939
vn 0.000000 0.583742 -0.811939
vn 0.000000 0.542551 -0.840023
vn 0.000000 0.542551 -0.840023
vn 0.000000 0.499997 -0.866027
vn 0.000000 0.499997 -0.866027
vn 0.000000 0.456214 -0.889870
vn 0.000000 0.456214 -0.889870
vn 0.000000 0.411287 -0.911506
vn 0.000000 0.411287 -0.911506
vn 0.000000 0.365336 -0.930876
vn 0.000000 0.365336 -0.930876
vn 0.000000 0.318485 -0.947928
vn 0.000000 0.318485 -0.947928
vn 0.000000 0.270841 -0.962624
vn 0.000000 0.270841 -0.962624
vn 0.000000 0.222527 -0.974926
vn 0.000000 0.222527 -0.974926
vn 0.000000 0.173650 -0.984807
vn 0.000000 0.173650 -0.984807
vn 0.000000 0.124341 -0.992239
vn 0.000000 0.124341 -0.992239
vn 0.000000 0.074727 -0.997204
vn 0.000000 0.074727 -0.997204
vn 0.000000 0.024931 -0.999689
vn 0.000000 0.024931 -0.999689
vn -0.000000 -0.024931 -0.999689
vn 0.000000 -0.024931 -0.999689
vn 0.000000 -0.074727 -0.997204
vn 0.000000 -0.074727 -0.997204
vn -0.000000 -0.124341 -0.992239
vn 0.000000 -0.124341 -0.992239
vn -0.000000 -0.173650 -0.984807
vn 0.000000 -0.173650 -0.984807
vn -0.000000 -0.222527 -0.974926
vn 0.000000 -0.222527 -0.974926
vn 0.000000 -0.270841 -0.962624
vn 0.000000 -0.270841 -0.962624
vn -0.000000 -0.318485 -0.947928
vn 0.000000 -0.318485 -0.947928
vn -0.000000 -0.365336 -0.930876
vn 0.000000 -0.365336 -0.930876
vn 0.000000 -0.411287 -0.911506
vn 0.000000 -0.411287 -0.911506
vn -0.000000 -0.456214 -0.889870
vn 0.000000 -0.456214 -0.889870
vn 0.000000 -0.499997 -0.866027
vn 0.000000 -0.499997 -0.866027
vn 0.000000 -0.542551 -0.840023
vn 0.000000 -0.542551 -0.840023
vn 0.000000 -0.583742 -0.811939
vn -0.000000 -0.623487 -0.781834
vn 0.000000 -0.583742 -0.811939
vn 0.000000 -0.623487 -0.781834
vn 0.000000 -0.661689 -0.749778
vn 0.000000 -0.661689 -0.749778
vn 0.000000 -0.698234 -0.715869
vn -0.000000 -0.733052 -0.680172
vn 0.000000 -0.698234 -0.715869
vn 0.000000 -0.733052 -0.680172
vn 0.000000 -0.766044 -0.642787
vn 0.000000 -0.766044 -0.642787
vn 0.000000 -0.797134 -0.603802
vn 0.000000 -0.797134 -0.603802
vn 0.000000 -0.826238 -0.563321
vn -0.000000 -0.853291 -0.521435
vn 0.000000 -0.826238 -0.563321
vn 0.000000 -0.853291 -0.521435
vn 0.000000 -0.878221 -0.478254
vn 0.000000 -0.878221 -0.478254
vn 0.000000 -0.900968 -0.433886
vn 0.000000 -0.900968 -0.433886
vn 0.000000 -0.921477 -0.388434
vn 0.000000 -0.921477 -0.388434
vn 0.000000 -0.939693 -0.342019
vn 0.000000 -0.939693 -0.342019
vn 0.000000 -0.955573 -0.294756
vn 0.000000 -0.955573 -0.294756
vn 0.000000 -0.969078 -0.246756
vn 0.000000 -0.969078 -0.246756
vn 0.000000 -0.980172 -0.198147
vn 0.000000 -0.980172 -0.198147
vn -0.000000 -0.988831 -0.149042
vn 0.000000 -0.988831 -0.149042
vn 0.000000 -0.995031 -0.099568
vn 0.000000 -0.995031 -0.099568
vn 0.000000 -0.998757 -0.049845
vn 0.000000 -0.998757 -0.049845
vn 0.000000 -1.000000 -0.000000
vn 0.000000 -1.000000 0.000000
vn 0.000000 -0.998757 0.049845
vn 0.000000 -0.998757 0.049845
vn 0.000000 -0.995031 0.099568
vn 0.000000 -0.995031 0.099568
vn 0.000000 -0.988831 0.149042
vn 0.000000 -0.988831 0.149042
vn 0.000000 -0.980172 0.198147
vn 0.000000 -0.980172 0.198147
vn 0.000000 -0.969077 0.246757
vn 0.000000 -0.969077 0.246757
vn 0.000000 -0.955573 0.294755
vn 0.000000 -0.955573 0.294755
vn 0.000000 -0.939692 0.342021
vn 0.000000 -0.939692 0.342021
vn 0.000000 -0.921477 0.388434
vn 0.000000 -0.921477 0.388434
vn 0.000000 -0.900969 0.433884
vn 0.000000 -0.878221 0.478254
vn 0.000000 -0.900969 0.433884
vn 0.000000 -0.878221 0.478254
vn 0.000000 -0.853291 0.521435
vn 0.000000 -0.853291 0.521435
vn 0.000000 -0.826238 0.563321
vn 0.000000 -0.826238 0.563321
vn 0.000000 -0.797134 0.603802
vn 0.000000 -0.797134 0.603802
vn 0.000000 -0.766044 0.642787
vn 0.000000 -0.766044 0.642787
vn 0.000000 -0.733050 0.680175
vn 0.000000 -0.733050 0.680175
vn 0.000000 -0.698237 0.715867
vn 0.000000 -0.698237 0.715867
vn 0.000000 -0.661686 0.749781
vn 0.000000 -0.661686 0.749781
vn 0.000000 -0.623490 0.781831
vn 0.000000 -0.623490 0.781831
vn 0.000000 -0.583745 0.811937
vn 0.000000 -0.583745 0.811937
vn 0.000000 -0.542544 0.840028
vn 0.000000 -0.542544 0.840028
vn 0.000000 -0.500000 0.866025
vn 0.000000 -0.500000 0.866025
vn 0.000000 -0.456210 0.889872
vn 0.000000 -0.456210 0.889872
vn 0.000000 -0.411287 0.911506
vn 0.000000 -0.411287 0.911506
vn 0.000000 -0.365345 0.930872
vn 0.000000 -0.365345 0.930872
vn 0.000000 -0.318485 0.947928
vn 0.000000 -0.318485 0.947928
vn 0.000000 -0.270841 0.962624
vn 0.000000 -0.270841 0.962624
vn 0.000000 -0.222518 0.974929
vn 0.000000 -0.222518 0.974929
vn 0.000000 -0.173650 0.984807
vn 0.000000 -0.173650 0.984807
vn 0.000000 -0.124346 0.992239
vn 0.000000 -0.124346 0.992239
vn 0.000000 -0.074727 0.997204
vn 0.000000 -0.074727 0.997204
vn 0.000000 -0.024931 0.999689
vn 0.000000 -0.024931 0.999689
vn 0.000000 0.000000 1.000000
vn 0.000000 0.000000 1.000000
vn 0.000000 0.000000 1.000000
vn 0.000000 0.000000 1.000000
vn 0.000000 0.000000 1.000000
vn 0.000000 0.000000 1.000000
vn 0.000000 0.000000 1.000000
vn 0.000000 0.000000 1.000000
vn 0.000000 0.000000 1.000000
vn 0.000000 0.000000 1.000000
vn 0.000000 0.000000 1.000000
vn 0.000000 0.000000 1.000000
vn 0.000000 0.000000 1.000000
vn 0.000000 0.000000 1.000000
vn 0.000000 0.000000 1.000000
vn 0.000000 0.000000 1.000000
vn 0.000000 0.000000 1.000000
vn 0.000000 0.000000 1.000000
vn 0.000000 0.000000 1.000000
vn 0.000000 0.000000 1.000000
vn 0.000000 0.000000 1.000000
vn 0.000000 0.000000 1.000000
vn 0.000000 0.000000 1.000000
vn 0.000000 0.000000 1.000000
vn 0.000000 0.000000 1.000000
vn 0.000000 0.000000 1.000000
vn 0.000000 0.000000 1.000000
vn 0.000000 0.000000 1.000000
vn 0.000000 0.000000 1.000000
vn 0.000000 0.000000 1.000000
vn 0.000000 0.000000 1.000000
vn 0.000000 0.000000 1.000000
vn 0.000000 0.000000 1.000000
vn 0.000000 0.000000 1.000000
vn 0.000000 0.000000 1.000000
vn 0.000000 0.000000 1.000000
vn 0.000000 0.000000 1.000000
vn 0.000000 0.000000 1.000000
vn 0.000000 0.000000 1.000000
vn 0.000000 0.000000 1.000000
vn 0.000000 0.000000 1.000000
vn 0.000000 0.000000 1.000000
vn 0.000000 0.000000 1.000000
vn 0.000000 0.000000 1.000000
vn 0.000000 0.000000 1.000000
vn 0.000000 0.000000 1.000000
vn 0.000000 0.000000 1.000000
vn 0.000000 0.000000 1.000000
vn 0.000000 0.000000 1.000000
vn 0.000000 0.000000 1.000000
vn 0.000000 0.000000 1.000000
vn 0.000000 0.000000 1.000000
vn 0.000000 0.000000 1.000000
vn 0.000000 0.000000 1.000000
vn 0.000000 0.000000 1.000000
vn 0.000000 0.000000 1.000000
vn 0.000000 0.000000 1.000000
vn 0.000000 0.000000 1.000000
vn 0.000000 0.000000 1.000000
vn 0.000000 0.000000 1.000000
vn 0.000000 0.000000 1.000000
vn 0.000000 0.000000 1.000000
vn 0.000000 0.000000 1.000000
vn 0.000000 0.000000 1.000000
vn 0.000000 0.000000 1.000000
vn 0.000000 0.000000 1.000000
vn 0.000000 0.000000 1.000000
vn 0.000000 0.000000 1.000000
vn 0.000000 0.000000 1.000000
vn 0.000000 0.000000 1.000000
vn 0.000000 0.000000 1.000000
vn 0.000000 0.000000 1.000000
vn 0.000000 0.000000 1.000000
vn 0.000000 0.000000 1.000000
vn 0.000000 0.000000 1.000000
vn 0.000000 0.000000 1.000000
vn 0.000000 0.000000 1.000000
vn 0.000000 0.000000 1.000000
vn 0.000000 0.000000 1.000000
vn 0.000000 0.000000 1.000000
vn 0.000000 0.000000 1.000000
vn 0.000000 0.000000 1.000000
vn 0.000000 0.000000 1.000000
vn 0.000000 0.000000 1.000000
vn 0.000000 0.000000 1.000000
vn 0.000000 0.000000 1.000000
vn 0.000000 0.000000 1.000000
vn 0.000000 0.000000 1.000000
vn 0.000000 0.000000 1.000000
vn 0.000000 0.000000 1.000000
vn 0.000000 0.000000 1.000000
vn 0.000000 0.000000 1.000000
vn 0.000000 0.000000 1.000000
vn 0.000000 0.000000 1.000000
vn 0.000000 0.000000 1.000000
vn 0.000000 0.000000 1.000000
vn 0.000000 0.000000 1.000000
vn 0.000000 0.000000 1.000000
vn 0.000000 0.000000 1.000000
vn 0.000000 0.000000 1.000000
vn 0.000000 0.000000 1.000000
vn 0.000000 0.000000 1.000000
vn 0.000000 0.000000 1.000000
vn 0.000000 0.000000 1.000000
vn 0.000000 0.000000 1.000000
vn 0.000000 0.000000 1.000000
vn 0.000000 0.000000 1.000000
vn 0.000000 0.000000 1.000000
vn 0.000000 0.000000 1.000000
vn 0.000000 0.000000 1.000000
vn 0.000000 0.000000 1.000000
vn 0.000000 0.000000 1.000000
vn 0.000000 0.000000 1.000000
vn 0.000000 0.000000 1.000000
vn 0.000000 0.000000 1.000000
vn 0.000000 0.000000 1.000000
vn 0.000000 0.000000 1.000000
vn 0.000000 0.000000 1.000000
vn 0.000000 0.000000 1.000000
vn 0.000000 0.000000 1.000000
vn 0.000000 0.000000 1.000000
vn 0.000000 0.000000 1.000000
vn 0.000000 0.000000 1.000000
vn 0.000000 0.000000 1.000000
f 1//1 2//1 3//1
f 3//2 2//2 4//2
f 5//3 6//3 1//3
f 1//4 6//4 2//4
f 7//5 8//5 2//5
f 4//6 8//6 9//6
f 4//7 2//7 8//7
f 10//8 4//8 9//8
f 11//9 7//9 12//9
f 13//10 12//10 7//10
f 14//11 7//11 11//11
f 15//12 13//12 7//12
f 16//13 7//13 14//13
f 17//14 15//14 7//14
f 18//15 7//15 16//15
f 19//16 17//16 7//16
f 20//17 7//17 18//17
f 21//18 19//18 7//18
f 22//19 7//19 20//19
f 23//20 21//20 7//20
f 24//21 7//21 22//21
f 25//22 7//22 24//22
f 26//23 7//23 25//23
f 27//24 7//24 26//24
f 28//25 7//25 27//25
f 29//26 7//26 28//26
f 30//27 7//27 29//27
f 31//28 7//28 30//28
f 32//29 7//29 31//29
f 33//30 7//30 32//30
f 33//31 10//31 7//31
f 34//32 10//32 33//32
f 35//33 10//33 34//33
f 36//34 10//34 35//34
f 37//35 10//35 36//35
f 38//36 10//36 37//36
f 39//37 10//37 38//37
f 40//38 10//38 39//38
f 41//39 10//39 40//39
f 42//40 10//40 41//40
f 43//41 10//41 42//41
f 44//42 10//42 43//42
f 45//43 10//43 44//43
f 46//44 10//44 45//44
f 47//45 10//45 46//45
f 48//46 10//46 47//46
f 6//47 49//47 50//47
f 6//48 51//48 49//48
f 6//49 52//49 51//49
f 6//50 53//50 52//50
f 6//51 54//51 53//51
f 6//52 55//52 54//52
f 6//53 56//53 55//53
f 6//54 57//54 56//54
f 6//55 58//55 57//55
f 6//56 59//56 58//56
f 6//57 60//57 59//57
f 6//58 61//58 60//58
f 6//59 62//59 61//59
f 6//60 63//60 62//60
f 6//61 64//61 63//61
f 6//62 65//62 64//62
f 6//63 66//63 65//63
f 6//64 67//64 66//64
f 6//65 7//65 2//65
f 6//66 23//66 7//66
f 6//67 68//67 23//67
f 6//68 69//68 68//68
f 6//69 70//69 69//69
f 6//70 71//70 70//70
f 6//71 72//71 71//71
f 6//72 73//72 72//72
f 6//73 50//73 73//73
f 74//74 10//74 48//74
f 75//75 67//75 6//75
f 76//76 10//76 74//76
f 77//77 75//77 6//77
f 78//78 10//78 76//78
f 79//79 77//79 6//79
f 80//80 10//80 78//80
f 81//81 79//81 6//81
f 82//82 10//82 80//82
f 83//83 81//83 6//83
f 84//84 83//84 6//84
f 85//85 84//85 6//85
f 86//86 85//86 6//86
f 87//87 86//87 6//87
f 88//88 87//88 6//88
f 89//89 88//89 6//89
f 90//90 89//90 6//90
f 91//91 90//91 6//91
f 92//92 91//92 6//92
f 93//93 92//93 6//93
f 94//94 93//94 6//94
f 95//95 96//95 94//95
f 95//96 97//96 96//96
f 95//97 98//97 97//97
f 95//98 99//98 98//98
f 95//99 100//99 99//99
f 95//100 101//100 100//100
f 95//101 102//101 101//101
f 95//102 103//102 102//102
f 95//103 104//103 103//103
f 95//104 105//104 104//104
f 95//105 106//105 105//105
f 95//106 107//106 106//106
f 95//107 108//107 107//107
f 95//108 109//108 108//108
f 95//109 110//109 109//109
f 95//110 111//110 110//110
f 95//111 112//111 111//111
f 95//112 113//112 112//112
f 95//113 114//113 113//113
f 95//114 115//114 114//114
f 95//115 116//115 115//115
f 95//116 117//116 116//116
f 95//117 94//117 6//117
f 95//118 118//118 117//118
f 95//119 119//119 118//119
f 95//120 120//120 119//120
f 95//121 121//121 120//121
f 95//122 122//122 121//122
f 95//123 123//123 122//123
f 95//124 124//124 123//124
f 95//125 125//125 124//125
f 95//126 126//126 125//126
f 95//127 127//127 126//127
f 95//128 128//128 127//128
f 95//129 129//129 128//129
f 95//130 130//130 129//130
f 95//131 131//131 130//131
f 95//132 132//132 131//132
f 95//133 133//133 132//133
f 95//134 134//134 133//134
f 95//135 135//135 134//135
f 95//136 136//136 135//136
f 95//137 4//137 10//137
f 95//138 10//138 136//138
f 136//139 10//139 137//139
f 137//140 10//140 82//140
f 95//141 138//141 3//141
f 95//142 3//142 4//142
f 3//143 138//143 1//143
f 1//144 138//144 5//144
f 6//145 5//145 138//145
f 6//146 138//146 95//146
f 7//147 139//147 8//147
f 8//148 139//148 140//148
f 141//149 10//149 142//149
f 143//150 142//150 10//150
f 144//151 10//151 141//151
f 145//152 143//152 10//152
f 146//153 10//153 144//153
f 147//154 145//154 10//154
f 148//155 10//155 146//155
f 149//156 10//156 150//156
f 149//157 147//157 10//157
f 151//158 10//158 148//158
f 152//159 149//159 150//159
f 153//160 10//160 151//160
f 154//161 152//161 150//161
f 155//162 10//162 153//162
f 156//163 154//163 150//163
f 157//164 10//164 155//164
f 158//165 156//165 150//165
f 159//166 10//166 157//166
f 160//167 158//167 150//167
f 161//168 10//168 159//168
f 162//169 160//169 150//169
f 163//170 10//170 161//170
f 164//171 162//171 150//171
f 165//172 10//172 163//172
f 166//173 164//173 150//173
f 167//174 10//174 165//174
f 168//175 166//175 150//175
f 169//176 10//176 167//176
f 170//177 168//177 150//177
f 171//178 10//178 169//178
f 172//179 170//179 150//179
f 173//180 7//180 10//180
f 173//181 10//181 171//181
f 174//182 172//182 150//182
f 174//183 150//183 175//183
f 176//184 7//184 173//184
f 177//185 175//185 178//185
f 177//186 174//186 175//186
f 179//187 7//187 176//187
f 180//188 178//188 181//188
f 180//189 177//189 178//189
f 182//190 7//190 179//190
f 183//191 181//191 184//191
f 183//192 180//192 181//192
f 185//193 7//193 182//193
f 186//194 183//194 184//194
f 186//195 184//195 187//195
f 188//196 7//196 185//196
f 189//197 186//197 187//197
f 189//198 187//198 190//198
f 191//199 7//199 188//199
f 192//200 189//200 190//200
f 192//201 190//201 193//201
f 194//202 7//202 191//202
f 195//203 192//203 193//203
f 195//204 193//204 196//204
f 197//205 7//205 194//205
f 198//206 195//206 196//206
f 198//207 196//207 199//207
f 200//208 7//208 197//208
f 201//209 198//209 199//209
f 201//210 199//210 202//210
f 203//211 7//211 200//211
f 204//212 201//212 202//212
f 204//213 202//213 205//213
f 206//214 7//214 203//214
f 207//215 204//215 205//215
f 207//216 205//216 208//216
f 209//217 7//217 206//217
f 210//218 207//218 208//218
f 210//219 208//219 211//219
f 212//220 7//220 209//220
f 213//221 210//221 211//221
f 213//222 211//222 214//222
f 215//223 7//223 212//223
f 216//224 213//224 214//224
f 217//225 216//225 214//225
f 218//226 7//226 215//226
f 219//227 216//227 217//227
f 220//228 7//228 218//228
f 221//229 219//229 217//229
f 222//230 219//230 221//230
f 223//231 7//231 220//231
f 224//232 225//232 222//232
f 224//233 222//233 221//233
f 226//234 7//234 223//234
f 227//235 7//235 226//235
f 228//236 229//236 225//236
f 228//237 225//237 224//237
f 230//238 7//238 227//238
f 231//239 232//239 229//239
f 231//240 229//240 228//240
f 233//241 234//241 232//241
f 233//242 232//242 231//242
f 235//243 236//243 234//243
f 235//244 234//244 233//244
f 237//245 238//245 236//245
f 237//246 236//246 235//246
f 239//247 240//247 238//247
f 239//248 238//248 237//248
f 241//249 240//249 239//249
f 241//250 242//250 240//250
f 243//251 242//251 241//251
f 243//252 244//252 242//252
f 245//253 244//253 243//253
f 245//254 246//254 244//254
f 247//255 248//255 246//255
f 247//256 246//256 245//256
f 249//257 248//257 247//257
f 249//258 250//258 248//258
f 251//259 250//259 249//259
f 251//260 252//260 250//260
f 253//261 252//261 251//261
f 253//262 254//262 252//262
f 255//263 254//263 253//263
f 255//264 256//264 254//264
f 139//265 7//265 230//265
f 139//266 230//266 257//266
f 139//267 257//267 258//267
f 139//268 258//268 259//268
f 139//269 259//269 260//269
f 139//270 260//270 261//270
f 139//271 261//271 262//271
f 139//272 262//272 263//272
f 139//273 263//273 264//273
f 139//274 264//274 265//274
f 139//275 265//275 266//275
f 139//276 266//276 267//276
f 139//277 267//277 268//277
f 269//278 270//278 256//278
f 269//279 256//279 255//279
f 271//280 139//280 268//280
f 271//281 268//281 272//281
f 273//282 270//282 269//282
f 273//283 274//283 270//283
f 275//284 271//284 272//284
f 275//285 272//285 276//285
f 277//286 274//286 273//286
f 277//287 278//287 274//287
f 279//288 276//288 280//288
f 279//289 275//289 276//289
f 281//290 278//290 277//290
f 281//291 282//291 278//291
f 283//292 280//292 284//292
f 283//293 279//293 280//293
f 285//294 282//294 281//294
f 285//295 286//295 282//295
f 287//296 284//296 288//296
f 287//297 283//297 284//297
f 289//298 290//298 286//298
f 289//299 286//299 285//299
f 291//300 288//300 292//300
f 291//301 287//301 288//301
f 293//302 294//302 290//302
f 293//303 290//303 289//303
f 295//304 292//304 296//304
f 295//305 291//305 292//305
f 297//306 298//306 294//306
f 297//307 294//307 293//307
f 299//308 296//308 300//308
f 299//309 295//309 296//309
f 301//310 302//310 298//310
f 301//311 298//311 297//311
f 303//312 300//312 304//312
f 303//313 299//313 300//313
f 305//314 306//314 302//314
f 305//315 302//315 301//315
f 307//316 303//316 304//316
f 307//317 304//317 308//317
f 309//318 310//318 306//318
f 309//319 306//319 305//319
f 311//320 308//320 312//320
f 311//321 307//321 308//321
f 313//322 314//322 310//322
f 313//323 310//323 309//323
f 315//324 312//324 316//324
f 315//325 311//325 312//325
f 317//326 318//326 314//326
f 317//327 314//327 313//327
f 319//328 316//328 320//328
f 319//329 315//329 316//329
f 321//330 322//330 318//330
f 321//331 318//331 317//331
f 323//332 320//332 324//332
f 323//333 319//333 320//333
f 325//334 326//334 322//334
f 325//335 322//335 321//335
f 327//336 324//336 328//336
f 327//337 323//337 324//337
f 329//338 328//338 326//338
f 329//339 327//339 328//339
f 329//340 326//340 325//340
f 150//341 10//341 9//341
f 150//342 9//342 330//342
f 331//343 332//343 333//343
f 334//344 332//344 331//344
f 334//345 335//345 332//345
f 336//346 331//346 333//346
f 336//347 333//347 337//347
f 338//348 339//348 335//348
f 338//349 335//349 334//349
f 340//350 337//350 341//350
f 340//351 336//351 337//351
f 342//352 343//352 339//352
f 342//353 339//353 338//353
f 344//354 341//354 345//354
f 344//355 340//355 341//355
f 346//356 347//356 343//356
f 346//357 343//357 342//357
f 348//358 345//358 349//358
f 348//359 344//359 345//359
f 350//360 351//360 347//360
f 350//361 347//361 346//361
f 352//362 348//362 349//362
f 352//363 349//363 353//363
f 354//364 351//364 350//364
f 354//365 355//365 351//365
f 356//366 352//366 353//366
f 356//367 353//367 357//367
f 358//368 359//368 355//368
f 358//369 355//369 354//369
f 360//370 357//370 361//370
f 360//371 356//371 357//371
f 362//372 363//372 359//372
f 362//373 359//373 358//373
f 364//374 361//374 365//374
f 364//375 360//375 361//375
f 366//376 367//376 363//376
f 366//377 363//377 362//377
f 368//378 364//378 365//378
f 368//379 365//379 369//379
f 370//380 371//380 367//380
f 370//381 367//381 366//381
f 372//382 369//382 373//382
f 372//383 368//383 369//383
f 374//384 375//384 371//384
f 374//385 371//385 370//385
f 376//386 373//386 377//386
f 376//387 372//387 373//387
f 378//388 375//388 374//388
f 378//389 379//389 375//389
f 380//390 377//390 381//390
f 380//391 376//391 377//391
f 382//392 379//392 378//392
f 382//393 383//393 379//393
f 384//394 380//394 381//394
f 384//395 381//395 385//395
f 386//396 383//396 382//396
f 386//397 387//397 383//397
f 388//398 384//398 385//398
f 388//399 385//399 389//399
f 390//400 391//400 387//400
f 390//401 387//401 386//401
f 392//402 388//402 389//402
f 392//403 389//403 330//403
f 393//404 391//404 390//404
f 393//405 394//405 391//405
f 395//406 392//406 330//406
f 396//407 397//407 394//407
f 396//408 394//408 393//408
f 398//409 395//409 330//409
f 399//410 400//410 397//410
f 399//411 397//411 396//411
f 401//412 398//412 330//412
f 402//413 403//413 400//413
f 402//414 400//414 399//414
f 404//415 401//415 330//415
f 405//416 406//416 403//416
f 405//417 403//417 402//417
f 407//418 404//418 330//418
f 408//419 409//419 406//419
f 408//420 406//420 405//420
f 410//421 407//421 330//421
f 411//422 412//422 409//422
f 411//423 409//423 408//423
f 413//424 410//424 330//424
f 414//425 415//425 412//425
f 414//426 412//426 411//426
f 416//427 413//427 330//427
f 417//428 418//428 415//428
f 417//429 415//429 414//429
f 419//430 416//430 330//430
f 420//431 421//431 418//431
f 420//432 418//432 417//432
f 422//433 419//433 330//433
f 423//434 424//434 421//434
f 423//435 421//435 420//435
f 425//436 422//436 330//436
f 426//437 427//437 424//437
f 426//438 424//438 423//438
f 428//439 425//439 330//439
f 429//440 430//440 427//440
f 429//441 427//441 426//441
f 431//442 432//442 430//442
f 431//443 430//443 429//443
f 433//444 434//444 432//444
f 433//445 432//445 431//445
f 435//446 434//446 433//446
f 436//447 434//447 435//447
f 437//448 436//448 435//448
f 438//449 436//449 437//449
f 439//450 438//450 437//450
f 440//451 438//451 439//451
f 440//452 439//452 441//452
f 442//453 441//453 443//453
f 442//454 440//454 441//454
f 444//455 443//455 445//455
f 444//456 442//456 443//456
f 446//457 445//457 447//457
f 446//458 444//458 445//458
f 448//459 447//459 449//459
f 448//460 446//460 447//460
f 450//461 449//461 451//461
f 450//462 448//462 449//462
f 452//463 451//463 453//463
f 452//464 450//464 451//464
f 454//465 453//465 455//465
f 454//466 452//466 453//466
f 456//467 455//467 457//467
f 456//468 454//468 455//468
f 9//469 458//469 428//469
f 9//470 459//470 458//470
f 9//471 460//471 459//471
f 9//472 461//472 460//472
f 9//473 462//473 461//473
f 9//474 463//474 462//474
f 9//475 464//475 463//475
f 9//476 465//476 464//476
f 9//477 466//477 465//477
f 9//478 467//478 466//478
f 9//479 468//479 467//479
f 9//480 469//480 468//480
f 9//481 470//481 469//481
f 9//482 471//482 470//482
f 9//483 472//483 471//483
f 9//484 428//484 330//484
f 9//485 473//485 472//485
f 9//486 474//486 473//486
f 9//487 475//487 474//487
f 9//488 476//488 475//488
f 9//489 477//489 476//489
f 478//490 457//490 479//490
f 478//491 456//491 457//491
f 480//492 479//492 481//492
f 480//493 478//493 479//493
f 482//494 481//494 483//494
f 482//495 480//495 481//495
f 484//496 482//496 483//496
f 484//497 483//497 485//497
f 486//498 484//498 485//498
f 486//499 485//499 487//499
f 140//500 486//500 487//500
f 140//501 488//501 489//501
f 140//502 490//502 488//502
f 140//503 491//503 490//503
f 140//504 492//504 491//504
f 140//505 493//505 492//505
f 140//506 494//506 493//506
f 140//507 495//507 494//507
f 140//508 496//508 495//508
f 140//509 497//509 496//509
f 140//510 498//510 497//510
f 140//511 499//511 498//511
f 140//512 487//512 499//512
f 8//513 500//513 477//513
f 8//514 501//514 500//514
f 8//515 502//515 501//515
f 8//516 503//516 502//516
f 8//517 504//517 503//517
f 8//518 505//518 504//518
f 8//519 506//519 505//519
f 8//520 507//520 506//520
f 8//521 508//521 507//521
f 8//522 509//522 508//522
f 8//523 510//523 509//523
f 8//524 511//524 510//524
f 8//525 512//525 511//525
f 8//526 513//526 512//526
f 8//527 514//527 513//527
f 8//528 515//528 514//528
f 8//529 516//529 515//529
f 8//530 517//530 516//530
f 8//531 518//531 517//531
f 8//532 489//532 518//532
f 8//533 140//533 489//533
f 8//534 477//534 9//534
f 519//535 520//535 94//535
f 519//536 94//536 96//536
f 521//537 96//537 97//537
f 521//538 519//538 96//538
f 522//539 97//539 98//539
f 522//540 521//540 97//540
f 523//541 98//541 99//541
f 523//542 522//542 98//542
f 524//543 99//543 100//543
f 524//544 523//544 99//544
f 525//545 100//545 101//545
f 525//546 101//546 102//546
f 525//547 524//547 100//547
f 526//548 525//548 102//548
f 527//549 102//549 103//549
f 527//550 526//550 102//550
f 528//551 103//551 104//551
f 528//552 527//552 103//552
f 529//553 104//553 105//553
f 529//554 105//554 106//554
f 529//555 528//555 104//555
f 530//556 529//556 106//556
f 531//557 530//557 106//557
f 531//558 106//558 107//558
f 532//559 531//559 107//559
f 532//560 107//560 108//560
f 533//561 532//561 108//561
f 533//562 108//562 109//562
f 534//563 533//563 109//563
f 534//564 109//564 110//564
f 535//565 534//565 110//565
f 535//566 110//566 111//566
f 536//567 535//567 111//567
f 536//568 111//568 112//568
f 536//569 112//569 113//569
f 537//570 536//570 113//570
f 538//571 537//571 113//571
f 538//572 113//572 114//572
f 539//573 538//573 114//573
f 539//574 114//574 115//574
f 539//575 115//575 116//575
f 540//576 539//576 116//576
f 540//577 116//577 117//577
f 541//578 540//578 117//578
f 542//579 117//579 118//579
f 542//580 541//580 117//580
f 543//581 118//581 119//581
f 543//582 542//582 118//582
f 544//583 119//583 120//583
f 544//584 543//584 119//584
f 545//585 120//585 121//585
f 545//586 544//586 120//586
f 546//587 121//587 122//587
f 546//588 545//588 121//588
f 547//589 122//589 123//589
f 547//590 546//590 122//590
f 548//591 123//591 124//591
f 548//592 547//592 123//592
f 549//593 124//593 125//593
f 549//594 548//594 124//594
f 550//595 125//595 126//595
f 550//596 549//596 125//596
f 551//597 126//597 127//597
f 551//598 127//598 128//598
f 551//599 550//599 126//599
f 552//600 551//600 128//600
f 553//601 128//601 129//601
f 553//602 552//602 128//602
f 554//603 129//603 130//603
f 554//604 553//604 129//604
f 555//605 130//605 131//605
f 555//606 554//606 130//606
f 556//607 555//607 131//607
f 556//608 131//608 132//608
f 557//609 556//609 132//609
f 557//610 132//610 133//610
f 558//611 557//611 133//611
f 558//612 133//612 134//612
f 559//613 558//613 134//613
f 559//614 134//614 135//614
f 560//615 559//615 135//615
f 560//616 135//616 136//616
f 561//617 560//617 136//617
f 561//618 136//618 137//618
f 562//619 561//619 137//619
f 562//620 137//620 82//620
f 563//621 562//621 82//621
f 563//622 82//622 80//622
f 564//623 563//623 80//623
f 564//624 80//624 78//624
f 565//625 564//625 78//625
f 565//626 78//626 76//626
f 566//627 565//627 76//627
f 566//628 76//628 74//628
f 567//629 566//629 74//629
f 567//630 74//630 48//630
f 568//631 567//631 48//631
f 568//632 48//632 47//632
f 569//633 568//633 47//633
f 569//634 47//634 46//634
f 570//635 569//635 46//635
f 570//636 46//636 45//636
f 571//637 570//637 45//637
f 571//638 45//638 44//638
f 571//639 44//639 43//639
f 572//640 571//640 43//640
f 573//641 572//641 43//641
f 573//642 43//642 42//642
f 574//643 573//643 42//643
f 574//644 42//644 41//644
f 575//645 574//645 41//645
f 575//646 41//646 40//646
f 576//647 575//647 40//647
f 576//648 40//648 39//648
f 577//649 39//649 38//649
f 577//650 576//650 39//650
f 578//651 38//651 37//651
f 578//652 577//652 38//652
f 579//653 37//653 36//653
f 579//654 578//654 37//654
f 580//655 36//655 35//655
f 580//656 579//656 36//656
f 581//657 580//657 35//657
f 581//658 35//658 34//658
f 582//659 581//659 34//659
f 582//660 34//660 33//660
f 583//661 582//661 33//661
f 583//662 33//662 32//662
f 584//663 583//663 32//663
f 584//664 32//664 31//664
f 585//665 584//665 31//665
f 585//666 31//666 30//666
f 586//667 585//667 30//667
f 586//668 30//668 29//668
f 587//669 586//669 29//669
f 587//670 29//670 28//670
f 588//671 587//671 28//671
f 588//672 28//672 27//672
f 589//673 588//673 27//673
f 589//674 27//674 26//674
f 590//675 589//675 26//675
f 590//676 26//676 25//676
f 591//677 590//677 25//677
f 591//678 25//678 24//678
f 592//679 591//679 24//679
f 592//680 24//680 22//680
f 593//681 592//681 22//681
f 593//682 22//682 20//682
f 594//683 20//683 18//683
f 594//684 593//684 20//684
f 595//685 18//685 16//685
f 595//686 594//686 18//686
f 596//687 16//687 14//687
f 596//688 595//688 16//688
f 597//689 14//689 11//689
f 597//690 596//690 14//690
f 598//691 11//691 12//691
f 598//692 597//692 11//692
f 599//693 12//693 13//693
f 599//694 598//694 12//694
f 600//695 13//695 15//695
f 600//696 599//696 13//696
f 601//697 15//697 17//697
f 601//698 600//698 15//698
f 602//699 17//699 19//699
f 602//700 601//700 17//700
f 603//701 19//701 21//701
f 603//702 602//702 19//702
f 604//703 21//703 23//703
f 604//704 603//704 21//704
f 605//705 23//705 68//705
f 605//706 604//706 23//706
f 606//707 68//707 69//707
f 606//708 605//708 68//708
f 607//709 606//709 69//709
f 607//710 69//710 70//710
f 608//711 607//711 70//711
f 608//712 70//712 71//712
f 609//713 608//713 71//713
f 609//714 71//714 72//714
f 610//715 609//715 72//715
f 610//716 72//716 73//716
f 611//717 73//717 50//717
f 611//718 610//718 73//718
f 612//719 50//719 49//719
f 612//720 611//720 50//720
f 613//721 49//721 51//721
f 613//722 612//722 49//722
f 614//723 51//723 52//723
f 614//724 613//724 51//724
f 615//725 52//725 53//725
f 615//726 614//726 52//726
f 616//727 53//727 54//727
f 616//728 615//728 53//728
f 617//729 54//729 55//729
f 617//730 616//730 54//730
f 618//731 55//731 56//731
f 618//732 617//732 55//732
f 619//733 56//733 57//733
f 619//734 618//734 56//734
f 620//735 57//735 58//735
f 620//736 619//736 57//736
f 621//737 58//737 59//737
f 621//738 620//738 58//738
f 622//739 59//739 60//739
f 622//740 621//740 59//740
f 623//741 60//741 61//741
f 623//742 622//742 60//742
f 624//743 61//743 62//743
f 624//744 623//744 61//744
f 625//745 62//745 63//745
f 625//746 624//746 62//746
f 626//747 63//747 64//747
f 626//748 625//748 63//748
f 627//749 64//749 65//749
f 627//750 626//750 64//750
f 628//751 65//751 66//751
f 628//752 627//752 65//752
f 629//753 66//753 67//753
f 629//754 628//754 66//754
f 630//755 67//755 75//755
f 630//756 629//756 67//756
f 631//757 630//757 75//757
f 631//758 75//758 77//758
f 632//759 631//759 77//759
f 632//760 77//760 79//760
f 633//761 632//761 79//761
f 633//762 79//762 81//762
f 634//763 633//763 81//763
f 634//764 81//764 83//764
f 635//765 634//765 83//765
f 635//766 83//766 84//766
f 636//767 635//767 84//767
f 636//768 84//768 85//768
f 637//769 636//769 85//769
f 637//770 85//770 86//770
f 638//771 637//771 86//771
f 638//772 86//772 87//772
f 639//773 638//773 87//773
f 639//774 87//774 88//774
f 640//775 639//775 88//775
f 640//776 88//776 89//776
f 641//777 640//777 89//777
f 641//778 89//778 90//778
f 642//779 641//779 90//779
f 642//780 90//780 91//780
f 643//781 642//781 91//781
f 643//782 91//782 92//782
f 644//783 92//783 93//783
f 644//784 643//784 92//784
f 520//785 93//785 94//785
f 520//786 644//786 93//786
f 486//787 140//787 139//787
f 486//788 139//788 271//788
f 484//789 486//789 271//789
f 484//790 271//790 275//790
f 482//791 484//791 275//791
f 482//792 275//792 279//792
f 482//793 279//793 283//793
f 480//794 482//794 283//794
f 478//795 480//795 283//795
f 478//796 283//796 287//796
f 456//797 478//797 287//797
f 456//798 287//798 291//798
f 454//799 456//799 291//799
f 454//800 291//800 295//800
f 452//801 454//801 295//801
f 452//802 295//802 299//802
f 450//803 452//803 299//803
f 450//804 299//804 303//804
f 450//805 303//805 307//805
f 448//806 450//806 307//806
f 446//807 448//807 307//807
f 446//808 307//808 311//808
f 444//809 311//809 315//809
f 444//810 446//810 311//810
f 442//811 315//811 319//811
f 442//812 444//812 315//812
f 440//813 319//813 323//813
f 440//814 442//814 319//814
f 438//815 323//815 327//815
f 438//816 440//816 323//816
f 436//817 327//817 329//817
f 436//818 438//818 327//818
f 434//819 329//819 325//819
f 434//820 325//820 321//820
f 434//821 436//821 329//821
f 432//822 434//822 321//822
f 430//823 432//823 321//823
f 430//824 321//824 317//824
f 430//825 317//825 313//825
f 427//826 430//826 313//826
f 424//827 427//827 313//827
f 424//828 313//828 309//828
f 421//829 424//829 309//829
f 421//830 309//830 305//830
f 418//831 421//831 305//831
f 418//832 305//832 301//832
f 415//833 418//833 301//833
f 415//834 301//834 297//834
f 412//835 415//835 297//835
f 412//836 297//836 293//836
f 409//837 412//837 293//837
f 409//838 293//838 289//838
f 406//839 409//839 289//839
f 406//840 289//840 285//840
f 403//841 406//841 285//841
f 403//842 285//842 281//842
f 400//843 403//843 281//843
f 400//844 281//844 277//844
f 397//845 400//845 277//845
f 397//846 277//846 273//846
f 394//847 397//847 273//847
f 394//848 273//848 269//848
f 391//849 394//849 269//849
f 391//850 269//850 255//850
f 387//851 391//851 255//851
f 387//852 255//852 253//852
f 383//853 387//853 253//853
f 383//854 253//854 251//854
f 383//855 251//855 249//855
f 379//856 383//856 249//856
f 379//857 249//857 247//857
f 375//858 379//858 247//858
f 371//859 247//859 245//859
f 371//860 375//860 247//860
f 367//861 245//861 243//861
f 367//862 243//862 241//862
f 367//863 371//863 245//863
f 363//864 367//864 241//864
f 359//865 241//865 239//865
f 359//866 363//866 241//866
f 355//867 239//867 237//867
f 355//868 359//868 239//868
f 351//869 237//869 235//869
f 351//870 355//870 237//870
f 347//871 351//871 235//871
f 347//872 235//872 233//872
f 343//873 347//873 233//873
f 343//874 233//874 231//874
f 339//875 231//875 228//875
f 339//876 343//876 231//876
f 335//877 228//877 224//877
f 335//878 339//878 228//878
f 332//879 224//879 221//879
f 332//880 335//880 224//880
f 333//881 221//881 217//881
f 333//882 217//882 214//882
f 333//883 332//883 221//883
f 337//884 333//884 214//884
f 341//885 214//885 211//885
f 341//886 337//886 214//886
f 345//887 211//887 208//887
f 345//888 208//888 205//888
f 345//889 341//889 211//889
f 349//890 205//890 202//890
f 349//891 345//891 205//891
f 353//892 349//892 202//892
f 357//893 202//893 199//893
f 357//894 353//894 202//894
f 361//895 199//895 196//895
f 361//896 357//896 199//896
f 365//897 196//897 193//897
f 365//898 361//898 196//898
f 369//899 193//899 190//899
f 369//900 365//900 193//900
f 373//901 190//901 187//901
f 373//902 369//902 190//902
f 377//903 187//903 184//903
f 377//904 184//904 181//904
f 377//905 373//905 187//905
f 381//906 377//906 181//906
f 385//907 181//907 178//907
f 385//908 381//908 181//908
f 389//909 178//909 175//909
f 389//910 385//910 178//910
f 330//911 175//911 150//911
f 330//912 389//912 175//912
f 477//913 500//913 173//913
f 173//914 500//914 176//914
f 176//915 500//915 179//915
f 179//916 501//916 182//916
f 500//917 501//917 179//917
f 501//918 502//918 182//918
f 182//919 503//919 185//919
f 185//920 503//920 188//920
f 502//921 503//921 182//921
f 503//922 504//922 188//922
f 188//923 505//923 191//923
f 504//924 505//924 188//924
f 191//925 506//925 194//925
f 194//926 506//926 197//926
f 505//927 506//927 191//927
f 506//928 507//928 197//928
f 197//929 508//929 200//929
f 507//930 508//930 197//930
f 200//931 509//931 203//931
f 508//932 509//932 200//932
f 509//933 510//933 203//933
f 203//934 510//934 206//934
f 206//935 510//935 209//935
f 510//936 511//936 209//936
f 511//937 512//937 209//937
f 209//938 512//938 212//938
f 512//939 513//939 212//939
f 212//940 513//940 215//940
f 513//941 514//941 215//941
f 215//942 514//942 218//942
f 218//943 514//943 220//943
f 514//944 515//944 220//944
f 515//945 516//945 220//945
f 220//946 516//946 223//946
f 516//947 517//947 223//947
f 223//948 517//948 226//948
f 226//949 517//949 227//949
f 517//950 518//950 227//950
f 518//951 489//951 227//951
f 227//952 489//952 230//952
f 489//953 488//953 230//953
f 230//954 488//954 257//954
f 488//955 490//955 257//955
f 257//956 490//956 258//956
f 258//957 491//957 259//957
f 490//958 491//958 258//958
f 259//959 492//959 260//959
f 491//960 492//960 259//960
f 260//961 493//961 261//961
f 492//962 493//962 260//962
f 261//963 494//963 262//963
f 493//964 494//964 261//964
f 262//965 495//965 263//965
f 494//966 495//966 262//966
f 263//967 496//967 264//967
f 264//968 496//968 265//968
f 495//969 496//969 263//969
f 496//970 497//970 265//970
f 265//971 498//971 266//971
f 497//972 498//972 265//972
f 266//973 499//973 267//973
f 498//974 499//974 266//974
f 267//975 487//975 268//975
f 499//976 487//976 267//976
f 268//977 485//977 272//977
f 487//978 485//978 268//978
f 272//979 483//979 276//979
f 485//980 483//980 272//980
f 276//981 481//981 280//981
f 483//982 481//982 276//982
f 280//983 479//983 284//983
f 481//984 479//984 280//984
f 479//985 457//985 284//985
f 284//986 457//986 288//986
f 288//987 457//987 292//987
f 457//988 455//988 292//988
f 292//989 455//989 296//989
f 455//990 453//990 296//990
f 453//991 451//991 296//991
f 296//992 451//992 300//992
f 451//993 449//993 300//993
f 300//994 449//994 304//994
f 449//995 447//995 304//995
f 304//996 447//996 308//996
f 447//997 445//997 308//997
f 308//998 445//998 312//998
f 445//999 443//999 312//999
f 312//1000 443//1000 316//1000
f 443//1001 441//1001 316//1001
f 316//1002 441//1002 320//1002
f 441//1003 439//1003 320//1003
f 320//1004 439//1004 324//1004
f 324//1005 439//1005 328//1005
f 439//1006 437//1006 328//1006
f 437//1007 435//1007 328//1007
f 328//1008 435//1008 326//1008
f 435//1009 433//1009 326//1009
f 326//1010 433//1010 322//1010
f 433//1011 431//1011 322//1011
f 322//1012 431//1012 318//1012
f 318//1013 431//1013 314//1013
f 431//1014 429//1014 314//1014
f 429//1015 426//1015 314//1015
f 314//1016 426//1016 310//1016
f 310//1017 426//1017 306//1017
f 426//1018 423//1018 306//1018
f 423//1019 420//1019 306//1019
f 306//1020 420//1020 302//1020
f 302//1021 420//1021 298//1021
f 420//1022 417//1022 298//1022
f 417//1023 414//1023 298//1023
f 298//1024 414//1024 294//1024
f 414//1025 411//1025 294//1025
f 294//1026 411//1026 290//1026
f 290//1027 411//1027 286//1027
f 411//1028 408//1028 286//1028
f 286//1029 405//1029 282//1029
f 408//1030 405//1030 286//1030
f 282//1031 402//1031 278//1031
f 405//1032 402//1032 282//1032
f 278//1033 399//1033 274//1033
f 402//1034 399//1034 278//1034
f 399//1035 396//1035 274//1035
f 274//1036 396//1036 270//1036
f 270//1037 396//1037 256//1037
f 396//1038 393//1038 256//1038
f 256//1039 393//1039 254//1039
f 393//1040 390//1040 254//1040
f 390//1041 386//1041 254//1041
f 254//1042 386//1042 252//1042
f 252//1043 386//1043 250//1043
f 386//1044 382//1044 250//1044
f 250//1045 382//1045 248//1045
f 382//1046 378//1046 248//1046
f 248//1047 378//1047 246//1047
f 378//1048 374//1048 246//1048
f 374//1049 370//1049 246//1049
f 246//1050 370//1050 244//1050
f 244//1051 370//1051 242//1051
f 370//1052 366//1052 242//1052
f 242//1053 366//1053 240//1053
f 366//1054 362//1054 240//1054
f 362//1055 358//1055 240//1055
f 240//1056 358//1056 238//1056
f 238//1057 358//1057 236//1057
f 358//1058 354//1058 236//1058
f 354//1059 350//1059 236//1059
f 236//1060 350//1060 234//1060
f 234//1061 346//1061 232//1061
f 350//1062 346//1062 234//1062
f 232//1063 342//1063 229//1063
f 229//1064 342//1064 225//1064
f 346//1065 342//1065 232//1065
f 342//1066 338//1066 225//1066
f 225//1067 334//1067 222//1067
f 338//1068 334//1068 225//1068
f 222//1069 331//1069 219//1069
f 219//1070 331//1070 216//1070
f 334//1071 331//1071 222//1071
f 331//1072 336//1072 216//1072
f 216//1073 340//1073 213//1073
f 336//1074 340//1074 216//1074
f 213//1075 344//1075 210//1075
f 340//1076 344//1076 213//1076
f 210//1077 348//1077 207//1077
f 207//1078 348//1078 204//1078
f 344//1079 348//1079 210//1079
f 348//1080 352//1080 204//1080
f 204//1081 356//1081 201//1081
f 352//1082 356//1082 204//1082
f 201//1083 360//1083 198//1083
f 356//1084 360//1084 201//1084
f 198//1085 364//1085 195//1085
f 360//1086 364//1086 198//1086
f 364//1087 368//1087 195//1087
f 195//1088 368//1088 192//1088
f 368//1089 372//1089 192//1089
f 192//1090 372//1090 189//1090
f 372//1091 376//1091 189//1091
f 189//1092 376//1092 186//1092
f 376//1093 380//1093 186//1093
f 186//1094 380//1094 183//1094
f 183//1095 380//1095 180//1095
f 380//1096 384//1096 180//1096
f 180//1097 388//1097 177//1097
f 384//1098 388//1098 180//1098
f 177//1099 392//1099 174//1099
f 388//1100 392//1100 177//1100
f 174//1101 395//1101 172//1101
f 392//1102 395//1102 174//1102
f 172//1103 398//1103 170//1103
f 395//1104 398//1104 172//1104
f 170//1105 401//1105 168//1105
f 398//1106 401//1106 170//1106
f 168//1107 404//1107 166//1107
f 401//1108 404//1108 168//1108
f 166//1109 407//1109 164//1109
f 404//1110 407//1110 166//1110
f 164//1111 410//1111 162//1111
f 407//1112 410//1112 164//1112
f 162//1113 413//1113 160//1113
f 410//1114 413//1114 162//1114
f 160//1115 416//1115 158//1115
f 413//1116 416//1116 160//1116
f 158//1117 419//1117 156//1117
f 416//1118 419//1118 158//1118
f 156//1119 422//1119 154//1119
f 154//1120 422//1120 152//1120
f 419//1121 422//1121 156//1121
f 422//1122 425//1122 152//1122
f 152//1123 428//1123 149//1123
f 425//1124 428//1124 152//1124
f 149//1125 458//1125 147//1125
f 428//1126 458//1126 149//1126
f 147//1127 459//1127 145//1127
f 458//1128 459//1128 147//1128
f 145//1129 460//1129 143//1129
f 459//1130 460//1130 145//1130
f 143//1131 461//1131 142//1131
f 460//1132 461//1132 143//1132
f 142//1133 462//1133 141//1133
f 461//1134 462//1134 142//1134
f 462//1135 463//1135 141//1135
f 141//1136 463//1136 144//1136
f 463//1137 464//1137 144//1137
f 144//1138 464//1138 146//1138
f 464//1139 465//1139 146//1139
f 146//1140 465//1140 148//1140
f 465//1141 466//1141 148//1141
f 148//1142 466//1142 151//1142
f 466//1143 467//1143 151//1143
f 151//1144 467//1144 153//1144
f 467//1145 468//1145 153//1145
f 153//1146 468//1146 155//1146
f 468//1147 469//1147 155//1147
f 155//1148 469//1148 157//1148
f 469//1149 470//1149 157//1149
f 157//1150 470//1150 159//1150
f 159//1151 470//1151 161//1151
f 470//1152 471//1152 161//1152
f 471//1153 472//1153 161//1153
f 161//1154 472//1154 163//1154
f 472//1155 473//1155 163//1155
f 163//1156 473//1156 165//1156
f 473//1157 474//1157 165//1157
f 165//1158 474//1158 167//1158
f 474//1159 475//1159 167//1159
f 167//1160 475//1160 169//1160
f 169//1161 476//1161 171//1161
f 475//1162 476//1162 169//1162
f 171//1163 476//1163 173//1163
f 476//1164 477//1164 173//1164
f 600//1165 598//1165 599//1165
f 601//1166 598//1166 600//1166
f 601//1167 596//1167 597//1167
f 601//1168 597//1168 598//1168
f 592//1169 593//1169 594//1169
f 605//1170 602//1170 603//1170
f 605//1171 603//1171 604//1171
f 590//1172 592//1172 594//1172
f 590//1173 591//1173 592//1173
f 607//1174 602//1174 605//1174
f 607//1175 601//1175 602//1175
f 607//1176 605//1176 606//1176
f 588//1177 590//1177 594//1177
f 588//1178 589//1178 590//1178
f 588//1179 594//1179 595//1179
f 588//1180 595//1180 596//1180
f 585//1181 586//1181 587//1181
f 585//1182 587//1182 588//1182
f 611//1183 609//1183 610//1183
f 612//1184 609//1184 611//1184
f 613//1185 609//1185 612//1185
f 579//1186 580//1186 581//1186
f 579//1187 581//1187 582//1187
f 579//1188 582//1188 583//1188
f 579//1189 583//1189 584//1189
f 617//1190 613//1190 614//1190
f 617//1191 614//1191 615//1191
f 617//1192 615//1192 616//1192
f 619//1193 617//1193 618//1193
f 576//1194 577//1194 578//1194
f 576//1195 578//1195 579//1195
f 576//1196 584//1196 585//1196
f 576//1197 579//1197 584//1197
f 620//1198 613//1198 617//1198
f 620//1199 617//1199 619//1199
f 574//1200 576//1200 585//1200
f 574//1201 596//1201 601//1201
f 574//1202 575//1202 576//1202
f 574//1203 601//1203 607//1203
f 574//1204 588//1204 596//1204
f 574//1205 585//1205 588//1205
f 574//1206 607//1206 608//1206
f 574//1207 608//1207 609//1207
f 573//1208 574//1208 609//1208
f 624//1209 622//1209 623//1209
f 571//1210 572//1210 573//1210
f 626//1211 624//1211 625//1211
f 628//1212 626//1212 627//1212
f 628//1213 622//1213 624//1213
f 628//1214 624//1214 626//1214
f 567//1215 568//1215 569//1215
f 567//1216 569//1216 570//1216
f 566//1217 571//1217 573//1217
f 566//1218 570//1218 571//1218
f 566//1219 567//1219 570//1219
f 631//1220 628//1220 629//1220
f 631//1221 629//1221 630//1221
f 564//1222 566//1222 573//1222
f 564//1223 565//1223 566//1223
f 563//1224 620//1224 621//1224
f 563//1225 613//1225 620//1225
f 563//1226 573//1226 609//1226
f 563//1227 564//1227 573//1227
f 563//1228 609//1228 613//1228
f 633//1229 621//1229 622//1229
f 633//1230 631//1230 632//1230
f 633//1231 622//1231 628//1231
f 633//1232 628//1232 631//1232
f 560//1233 561//1233 562//1233
f 560//1234 562//1234 563//1234
f 636//1235 633//1235 634//1235
f 636//1236 634//1236 635//1236
f 557//1237 558//1237 559//1237
f 639//1238 636//1238 637//1238
f 639//1239 637//1239 638//1239
f 639//1240 633//1240 636//1240
f 556//1241 557//1241 559//1241
f 555//1242 559//1242 560//1242
f 555//1243 556//1243 559//1243
f 554//1244 555//1244 560//1244
f 642//1245 640//1245 641//1245
f 643//1246 640//1246 642//1246
f 643//1247 639//1247 640//1247
f 552//1248 553//1248 554//1248
f 552//1249 554//1249 560//1249
f 520//1250 639//1250 643//1250
f 520//1251 643//1251 644//1251
f 519//1252 639//1252 520//1252
f 549//1253 550//1253 551//1253
f 549//1254 551//1254 552//1254
f 522//1255 519//1255 521//1255
f 522//1256 639//1256 519//1256
f 547//1257 552//1257 560//1257
f 547//1258 548//1258 549//1258
f 547//1259 560//1259 563//1259
f 547//1260 549//1260 552//1260
f 524//1261 522//1261 523//1261
f 525//1262 639//1262 522//1262
f 525//1263 522//1263 524//1263
f 525//1264 621//1264 633//1264
f 525//1265 633//1265 639//1265
f 544//1266 545//1266 546//1266
f 544//1267 546//1267 547//1267
f 544//1268 547//1268 563//1268
f 528//1269 526//1269 527//1269
f 529//1270 526//1270 528//1270
f 540//1271 541//1271 542//1271
f 540//1272 542//1272 543//1272
f 540//1273 543//1273 544//1273
f 530//1274 525//1274 526//1274
f 530//1275 526//1275 529//1275
f 539//1276 540//1276 544//1276
f 538//1277 539//1277 544//1277
f 532//1278 530//1278 531//1278
f 532//1279 621//1279 525//1279
f 532//1280 525//1280 530//1280
f 537//1281 544//1281 563//1281
f 537//1282 538//1282 544//1282
f 534//1283 532//1283 533//1283
f 535//1284 536//1284 537//1284
f 535//1285 563//1285 621//1285
f 535//1286 621//1286 532//1286
f 535//1287 537//1287 563//1287
f 535//1288 532//1288 534//1288
