# Created by FreeCAD <https://www.freecad.org>
v 68.008484 6.000000 10.093228
v 68.073051 2.720691 13.160341
v 68.075981 2.863467 13.299571
v 68.079063 2.999125 13.445743
v 68.070274 2.571151 13.028400
v 68.082275 3.127326 13.598493
v 68.067657 2.415218 12.904076
v 68.085625 3.247752 13.757442
v 68.065208 2.253280 12.787677
v 68.089088 3.360104 13.922195
v 68.062927 2.085741 12.679492
v 68.092674 3.464102 14.092342
v 68.060829 1.913016 12.579791
v 68.096359 3.559487 14.267462
v 68.058914 1.735535 12.488823
v 68.100143 3.646024 14.447116
v 68.057190 1.553739 12.406812
v 68.104012 3.723495 14.630859
v 68.055656 1.368081 12.333961
v 68.107956 3.791709 14.818235
v 68.054321 1.179021 12.270455
v 68.111969 3.850497 15.008778
v 68.053185 0.987030 12.216449
v 68.116035 3.899712 15.202013
v 68.052246 0.792585 12.172078
v 68.120148 3.939231 15.397461
v 68.051521 0.596169 12.137453
v 68.124298 3.968957 15.594635
v 68.050995 0.398271 12.112659
v 68.128479 3.988815 15.793046
v 68.050682 0.199384 12.097756
v 68.132668 3.998757 15.992199
v 68.050575 0.000000 12.092786
v 68.136871 3.998757 16.191601
v 68.261055 6.000000 22.090570
v 68.193558 2.863467 18.884228
v 68.190475 2.999125 18.738056
v 68.187263 3.127326 18.585306
v 68.183914 3.247752 18.426357
v 68.180450 3.360104 18.261604
v 68.176865 3.464102 18.091457
v 68.173180 3.559487 17.916338
v 68.169395 3.646024 17.736683
v 68.165527 3.723495 17.552940
v 68.161583 3.791709 17.365564
v 68.157570 3.850497 17.175022
v 68.153503 3.899712 16.981787
v 68.149391 3.939231 16.786339
v 68.145241 3.968957 16.589165
v 68.141060 3.988815 16.390753
v 68.008484 -6.000000 10.093228
v 68.050682 -0.199384 12.097756
v 68.050995 -0.398271 12.112659
v 68.051521 -0.596169 12.137453
v 68.052246 -0.792585 12.172078
v 68.053185 -0.987030 12.216449
v 68.054321 -1.179021 12.270455
v 68.055656 -1.368081 12.333961
v 68.057190 -1.553739 12.406812
v 68.058914 -1.735535 12.488823
v 68.060829 -1.913016 12.579791
v 68.062927 -2.085741 12.679492
v 68.065208 -2.253280 12.787677
v 68.067657 -2.415218 12.904076
v 68.070274 -2.571151 13.028400
v 68.073051 -2.720691 13.160341
v 68.075981 -2.863467 13.299571
v 68.196487 2.720691 19.023457
v 68.079063 -2.999125 13.445743
v 68.199265 2.571151 19.155397
v 68.082275 -3.127326 13.598493
v 68.201881 2.415218 19.279724
v 68.085625 -3.247752 13.757442
v 68.204330 2.253280 19.396122
v 68.089088 -3.360104 13.922195
v 68.206612 2.085741 19.504307
v 68.092674 -3.464102 14.092342
v 68.208710 1.913016 19.604008
v 68.096359 -3.559487 14.267462
v 68.210625 1.735535 19.694977
v 68.100143 -3.646024 14.447116
v 68.212349 1.553739 19.776987
v 68.104012 -3.723495 14.630859
v 68.213882 1.368081 19.849838
v 68.107956 -3.791709 14.818235
v 68.215218 1.179021 19.913343
v 68.111969 -3.850497 15.008778
v 68.216354 0.987030 19.967350
v 68.116035 -3.899712 15.202013
v 68.217293 0.792585 20.011721
v 68.120148 -3.939231 15.397461
v 68.218018 0.596169 20.046347
v 68.124298 -3.968957 15.594635
v 68.218544 0.398271 20.071142
v 68.128479 -3.988815 15.793046
v 68.218857 0.199384 20.086042
v 68.218964 0.000000 20.091013
v 68.261055 -6.000000 22.090570
v 68.141060 -3.988815 16.390753
v 68.145241 -3.968957 16.589165
v 68.149391 -3.939231 16.786339
v 68.153503 -3.899712 16.981787
v 68.157570 -3.850497 17.175022
v 68.161583 -3.791709 17.365564
v 68.165527 -3.723495 17.552940
v 68.169395 -3.646024 17.736683
v 68.173180 -3.559487 17.916338
v 68.176865 -3.464102 18.091457
v 68.180450 -3.360104 18.261604
v 68.183914 -3.247752 18.426357
v 68.187263 -3.127326 18.585306
v 68.190475 -2.999125 18.738056
v 68.193558 -2.863467 18.884228
v 68.196487 -2.720691 19.023457
v 68.199265 -2.571151 19.155397
v 68.201881 -2.415218 19.279724
v 68.204330 -2.253280 19.396122
v 68.206612 -2.085741 19.504307
v 68.208710 -1.913016 19.604008
v 68.210625 -1.735535 19.694977
v 68.212349 -1.553739 19.776987
v 68.213882 -1.368081 19.849838
v 68.215218 -1.179021 19.913343
v 68.216354 -0.987030 19.967350
v 68.217293 -0.792585 20.011721
v 68.218018 -0.596169 20.046347
v 68.218544 -0.398271 20.071142
v 68.218857 -0.199384 20.086042
v 68.132668 -3.998757 15.992199
v 68.136871 -3.998757 16.191601
v 72.260170 6.000000 22.006378
v 72.260170 -6.000000 22.006378
v -19.929823 -0.199384 13.949978
v -19.929928 0.000000 13.945007
v -19.929510 -0.398271 13.964879
v -19.928988 -0.596169 13.989674
v -19.928259 -0.792585 14.024300
v -19.927324 -0.987030 14.068670
v -19.926188 -1.179021 14.122677
v -19.924850 -1.368081 14.186183
v -19.923317 -1.553739 14.259032
v -19.921591 -1.735535 14.341043
v -19.919674 -1.913016 14.432013
v -19.917576 -2.085741 14.531713
v -19.915298 -2.253280 14.639898
v -19.912848 -2.415218 14.756297
v -19.910231 -2.571151 14.880622
v -19.907454 -2.720691 15.012563
v -19.904522 -2.863467 15.151793
v -19.901443 -2.999125 15.297964
v -19.898228 -3.127326 15.450714
v -19.894882 -3.247752 15.609663
v -19.891415 -3.360104 15.774416
v -19.887831 -3.464102 15.944564
v -19.884146 -3.559487 16.119682
v -19.880363 -3.646024 16.299337
v -19.876495 -3.723495 16.483080
v -19.872549 -3.791709 16.670456
v -19.868538 -3.850497 16.860998
v -19.864470 -3.899712 17.054234
v -19.860355 -3.939231 17.249681
v -19.856205 -3.968957 17.446856
v -19.852028 -3.988815 17.645267
v -19.847836 -3.998757 17.844419
v -19.843637 -3.998757 18.043821
v -19.839443 -3.988815 18.242975
v -19.835266 -3.968957 18.441385
v -19.831116 -3.939231 18.638559
v -19.827002 -3.899712 18.834007
v -19.822933 -3.850497 19.027243
v -19.818922 -3.791709 19.217785
v -19.814978 -3.723495 19.405161
v -19.811110 -3.646024 19.588905
v -19.807327 -3.559487 19.768559
v -19.803640 -3.464102 19.943678
v -19.800058 -3.360104 20.113825
v -19.796589 -3.247752 20.278578
v -19.793243 -3.127326 20.437529
v -19.790028 -2.999125 20.590279
v -19.786949 -2.863467 20.736448
v -19.784019 -2.720691 20.875679
v -19.781240 -2.571151 21.007620
v -19.778624 -2.415218 21.131945
v -19.776173 -2.253280 21.248344
v -19.773895 -2.085741 21.356527
v -19.771797 -1.913016 21.456228
v -19.769882 -1.735535 21.547197
v -19.768154 -1.553739 21.629210
v -19.766621 -1.368081 21.702059
v -19.765284 -1.179021 21.765566
v -19.764147 -0.987030 21.819571
v -19.763214 -0.792585 21.863941
v -19.762484 -0.596169 21.898567
v -19.761963 -0.398271 21.923363
v -19.761648 -0.199384 21.938263
v -19.761543 0.000000 21.943235
v -19.761648 0.199384 21.938263
v -19.761963 0.398271 21.923363
v -19.762484 0.596169 21.898567
v -19.763214 0.792585 21.863941
v -19.764147 0.987030 21.819571
v -19.765284 1.179021 21.765566
v -19.766621 1.368081 21.702059
v -19.768154 1.553739 21.629210
v -19.769882 1.735535 21.547197
v -19.771797 1.913016 21.456228
v -19.773895 2.085741 21.356527
v -19.776173 2.253280 21.248344
v -19.778624 2.415218 21.131945
v -19.781240 2.571151 21.007620
v -19.784019 2.720691 20.875679
v -19.786949 2.863467 20.736448
v -19.790028 2.999125 20.590279
v -19.793243 3.127326 20.437529
v -19.796589 3.247752 20.278578
v -19.800058 3.360104 20.113825
v -19.803640 3.464102 19.943678
v -19.807327 3.559487 19.768559
v -19.811110 3.646024 19.588905
v -19.814978 3.723495 19.405161
v -19.818922 3.791709 19.217785
v -19.822933 3.850497 19.027243
v -19.827002 3.899712 18.834007
v -19.831116 3.939231 18.638559
v -19.835266 3.968957 18.441385
v -19.839443 3.988815 18.242975
v -19.843637 3.998757 18.043821
v -19.847836 3.998757 17.844419
v -19.852028 3.988815 17.645267
v -19.856205 3.968957 17.446856
v -19.860355 3.939231 17.249681
v -19.864470 3.899712 17.054234
v -19.868538 3.850497 16.860998
v -19.872549 3.791709 16.670456
v -19.876495 3.723495 16.483080
v -19.880363 3.646024 16.299337
v -19.884146 3.559487 16.119682
v -19.887831 3.464102 15.944564
v -19.891415 3.360104 15.774416
v -19.894882 3.247752 15.609663
v -19.898228 3.127326 15.450714
v -19.901443 2.999125 15.297964
v -19.904522 2.863467 15.151793
v -19.907454 2.720691 15.012563
v -19.910231 2.571151 14.880622
v -19.912848 2.415218 14.756297
v -19.915298 2.253280 14.639898
v -19.917576 2.085741 14.531713
v -19.919674 1.913016 14.432013
v -19.921591 1.735535 14.341043
v -19.923317 1.553739 14.259032
v -19.924850 1.368081 14.186183
v -19.926188 1.179021 14.122677
v -19.927324 0.987030 14.068670
v -19.928259 0.792585 14.024300
v -19.928988 0.596169 13.989674
v -19.929510 0.398271 13.964879
v -19.929823 0.199384 13.949978
v 72.091789 -6.000000 14.008151
v 72.091789 6.000000 14.008151
v 77.158455 -2.720691 13.901484
v 77.297684 -2.863467 13.898553
v 77.443855 -2.999125 13.895475
v 77.026520 -2.571151 13.904262
v 77.596611 -3.127326 13.892260
v 76.902191 -2.415218 13.906879
v 77.755554 -3.247752 13.888913
v 76.785789 -2.253280 13.909329
v 77.920311 -3.360104 13.885445
v 76.677605 -2.085741 13.911607
v 78.090462 -3.464102 13.881863
v 76.577904 -1.913016 13.913706
v 78.265579 -3.559487 13.878177
v 76.486938 -1.735535 13.915622
v 78.445229 -3.646024 13.874394
v 76.404930 -1.553739 13.917348
v 78.628975 -3.723495 13.870525
v 76.332077 -1.368081 13.918881
v 78.816353 -3.791709 13.866581
v 76.268570 -1.179021 13.920218
v 79.006897 -3.850497 13.862570
v 76.214561 -0.987030 13.921355
v 79.200127 -3.899712 13.858501
v 76.170197 -0.792585 13.922290
v 79.395576 -3.939231 13.854387
v 76.135567 -0.596169 13.923018
v 79.592751 -3.968957 13.850236
v 76.110771 -0.398271 13.923540
v 79.791161 -3.988815 13.846059
v 76.095871 -0.199384 13.923854
v 76.090904 -0.000000 13.923959
v 76.332077 1.368081 13.918881
v 76.404930 1.553739 13.917348
v 76.268570 1.179021 13.920218
v 76.214561 0.987030 13.921355
v 76.170197 0.792585 13.922290
v 76.135567 0.596169 13.923018
v 76.110771 0.398271 13.923540
v 76.095871 0.199384 13.923854
v 76.486938 1.735535 13.915622
v 76.577904 1.913016 13.913706
v 76.677605 2.085741 13.911607
v 76.785789 2.253280 13.909329
v 76.902191 2.415218 13.906879
v 77.026520 2.571151 13.904262
v 77.158455 2.720691 13.901484
v 86.088684 -6.000000 13.713479
v 80.587280 -3.968957 13.829298
v 80.388870 -3.988815 13.833475
v 80.784454 -3.939231 13.825148
v 80.979904 -3.899712 13.821033
v 81.173134 -3.850497 13.816964
v 81.363678 -3.791709 13.812953
v 81.551056 -3.723495 13.809009
v 81.734802 -3.646024 13.805140
v 81.914452 -3.559487 13.801358
v 82.089569 -3.464102 13.797671
v 82.259720 -3.360104 13.794089
v 82.424469 -3.247752 13.790621
v 82.583420 -3.127326 13.787274
v 82.736176 -2.999125 13.784059
v 82.882347 -2.863467 13.780981
v 79.990311 -3.998757 13.841866
v 80.189713 -3.998757 13.837668
v 77.297684 2.863467 13.898553
v 83.021576 -2.720691 13.778050
v 77.443855 2.999125 13.895475
v 83.153511 -2.571151 13.775272
v 77.596611 3.127326 13.892260
v 83.277840 -2.415218 13.772655
v 77.755554 3.247752 13.888913
v 83.394241 -2.253280 13.770205
v 77.920311 3.360104 13.885445
v 83.502419 -2.085741 13.767927
v 78.090462 3.464102 13.881863
v 83.602119 -1.913016 13.765828
v 78.265579 3.559487 13.878177
v 83.693092 -1.735535 13.763913
v 78.445229 3.646024 13.874394
v 83.775101 -1.553739 13.762186
v 78.628975 3.723495 13.870525
v 83.847954 -1.368081 13.760653
v 78.816353 3.791709 13.866581
v 83.911461 -1.179021 13.759315
v 79.006897 3.850497 13.862570
v 83.965462 -0.987030 13.758179
v 79.200127 3.899712 13.858501
v 84.009834 -0.792585 13.757244
v 79.395576 3.939231 13.854387
v 84.044464 -0.596169 13.756516
v 84.069260 -0.398271 13.755994
v 84.084160 -0.199384 13.755680
v 84.089127 -0.000000 13.755575
v 86.088684 6.000000 13.713479
v 84.084160 0.199384 13.755680
v 84.069260 0.398271 13.755994
v 84.044464 0.596169 13.756516
v 84.009834 0.792585 13.757244
v 83.965462 0.987030 13.758179
v 83.911461 1.179021 13.759315
v 83.847954 1.368081 13.760653
v 83.775101 1.553739 13.762186
v 83.693092 1.735535 13.763913
v 83.602119 1.913016 13.765828
v 83.502419 2.085741 13.767927
v 83.394241 2.253280 13.770205
v 83.277840 2.415218 13.772655
v 83.153511 2.571151 13.775272
v 83.021576 2.720691 13.778050
v 82.882347 2.863467 13.780981
v 82.736176 2.999125 13.784059
v 82.583420 3.127326 13.787274
v 82.424469 3.247752 13.790621
v 82.259720 3.360104 13.794089
v 82.089569 3.464102 13.797671
v 81.914452 3.559487 13.801358
v 81.734802 3.646024 13.805140
v 81.551056 3.723495 13.809009
v 81.363678 3.791709 13.812953
v 81.173134 3.850497 13.816964
v 80.979904 3.899712 13.821033
v 80.784454 3.939231 13.825148
v 80.587280 3.968957 13.829298
v 80.388870 3.988815 13.833475
v 79.990311 3.998757 13.841866
v 79.791161 3.988815 13.846059
v 79.592751 3.968957 13.850236
v 80.189713 3.998757 13.837668
v 86.004494 -6.000000 9.714365
v 86.004494 6.000000 9.714365
v 84.252541 0.199384 21.753908
v 84.257515 -0.000000 21.753803
v 84.237640 0.398271 21.754221
v 84.212845 0.596169 21.754744
v 84.178223 0.792585 21.755472
v 84.133850 0.987030 21.756407
v 84.079842 1.179021 21.757544
v 84.016335 1.368081 21.758881
v 83.943489 1.553739 21.760414
v 83.861473 1.735535 21.762140
v 83.770508 1.913016 21.764055
v 83.670807 2.085741 21.766155
v 83.562622 2.253280 21.768433
v 83.446220 2.415218 21.770884
v 83.321899 2.571151 21.773500
v 83.189957 2.720691 21.776278
v 83.050728 2.863467 21.779209
v 82.904556 2.999125 21.782286
v 82.751808 3.127326 21.785501
v 82.592857 3.247752 21.788849
v 82.428101 3.360104 21.792316
v 82.257957 3.464102 21.795898
v 82.082840 3.559487 21.799585
v 81.903183 3.646024 21.803368
v 81.719437 3.723495 21.807236
v 81.532066 3.791709 21.811180
v 81.341522 3.850497 21.815191
v 81.148285 3.899712 21.819260
v 80.952835 3.939231 21.823376
v 80.755661 3.968957 21.827526
v 80.557251 3.988815 21.831703
v 80.358101 3.998757 21.835896
v 80.158699 3.998757 21.840094
v 79.959541 3.988815 21.844286
v 79.761131 3.968957 21.848463
v 79.563957 3.939231 21.852615
v 79.368515 3.899712 21.856730
v 79.175278 3.850497 21.860798
v 78.984734 3.791709 21.864809
v 78.797356 3.723495 21.868753
v 78.613617 3.646024 21.872622
v 78.433960 3.559487 21.876404
v 78.258842 3.464102 21.880091
v 78.088692 3.360104 21.883673
v 77.923943 3.247752 21.887142
v 77.764992 3.127326 21.890488
v 77.612244 2.999125 21.893703
v 77.466072 2.863467 21.896780
v 77.326843 2.720691 21.899712
v 77.194901 2.571151 21.902489
v 77.070572 2.415218 21.905107
v 76.954178 2.253280 21.907557
v 76.845993 2.085741 21.909836
v 76.746292 1.913016 21.911934
v 76.655319 1.735535 21.913849
v 76.573311 1.553739 21.915575
v 76.500458 1.368081 21.917109
v 76.436951 1.179021 21.918446
v 76.382950 0.987030 21.919582
v 76.338577 0.792585 21.920517
v 76.303955 0.596169 21.921246
v 76.279160 0.398271 21.921768
v 76.264259 0.199384 21.922083
v 76.259285 -0.000000 21.922186
v 76.264259 -0.199384 21.922083
v 76.279160 -0.398271 21.921768
v 76.303955 -0.596169 21.921246
v 76.338577 -0.792585 21.920517
v 76.382950 -0.987030 21.919582
v 76.436951 -1.179021 21.918446
v 76.500458 -1.368081 21.917109
v 76.573311 -1.553739 21.915575
v 76.655319 -1.735535 21.913849
v 76.746292 -1.913016 21.911934
v 76.845993 -2.085741 21.909836
v 76.954178 -2.253280 21.907557
v 77.070572 -2.415218 21.905107
v 77.194901 -2.571151 21.902489
v 77.326843 -2.720691 21.899712
v 77.466072 -2.863467 21.896780
v 77.612244 -2.999125 21.893703
v 77.764992 -3.127326 21.890488
v 77.923943 -3.247752 21.887142
v 78.088692 -3.360104 21.883673
v 78.258842 -3.464102 21.880091
v 78.433960 -3.559487 21.876404
v 78.613617 -3.646024 21.872622
v 78.797356 -3.723495 21.868753
v 78.984734 -3.791709 21.864809
v 79.175278 -3.850497 21.860798
v 79.368515 -3.899712 21.856730
v 79.563957 -3.939231 21.852615
v 79.761131 -3.968957 21.848463
v 79.959541 -3.988815 21.844286
v 80.158699 -3.998757 21.840094
v 80.358101 -3.998757 21.835896
v 80.557251 -3.988815 21.831703
v 80.755661 -3.968957 21.827526
v 80.952835 -3.939231 21.823376
v 81.148285 -3.899712 21.819260
v 81.341522 -3.850497 21.815191
v 81.532066 -3.791709 21.811180
v 81.719437 -3.723495 21.807236
v 81.903183 -3.646024 21.803368
v 82.082840 -3.559487 21.799585
v 82.257957 -3.464102 21.795898
v 82.428101 -3.360104 21.792316
v 82.592857 -3.247752 21.788849
v 82.751808 -3.127326 21.785501
v 82.904556 -2.999125 21.782286
v 83.050728 -2.863467 21.779209
v 83.189957 -2.720691 21.776278
v 83.321899 -2.571151 21.773500
v 83.446220 -2.415218 21.770884
v 83.562622 -2.253280 21.768433
v 83.670807 -2.085741 21.766155
v 83.770508 -1.913016 21.764055
v 83.861473 -1.735535 21.762140
v 83.943489 -1.553739 21.760414
v 84.016335 -1.368081 21.758881
v 84.079842 -1.179021 21.757544
v 84.133850 -0.987030 21.756407
v 84.178223 -0.792585 21.755472
v 84.212845 -0.596169 21.754744
v 84.237640 -0.398271 21.754221
v 84.252541 -0.199384 21.753908
vn -0.999779 -0.000005 0.021042
vn -0.999778 0.000019 0.021065
vn -0.999779 -0.000002 0.021045
vn -0.999779 -0.000014 0.021035
vn -0.999779 -0.000001 0.021046
vn -0.999778 0.000013 0.021057
vn -0.999779 -0.000004 0.021042
vn -0.999779 -0.000020 0.021033
vn -0.999778 0.000011 0.021064
vn -0.999778 0.000018 0.021059
vn -0.999779 -0.000002 0.021043
vn -0.999779 -0.000008 0.021042
vn -0.999779 -0.000000 0.021047
vn -0.999778 0.000011 0.021054
vn -0.999779 -0.000007 0.021035
vn -0.999778 -0.000001 0.021047
vn -0.999778 -0.000000 0.021047
vn -0.999779 -0.000002 0.021047
vn -0.999779 -0.000006 0.021036
vn -0.999778 0.000012 0.021053
vn -0.999778 -0.000001 0.021047
vn -0.999779 -0.000012 0.021043
vn -0.999778 0.000014 0.021082
vn -0.999779 -0.000020 0.021039
vn -0.999779 -0.000015 0.021010
vn -0.999779 -0.000005 0.021045
vn -0.999778 0.000017 0.021093
vn -0.999778 0.000043 0.021063
vn -0.999779 -0.000004 0.021036
vn -0.999779 -0.000051 0.021030
vn -0.999778 0.000010 0.021076
vn -0.999778 0.000089 0.021077
vn -0.999778 -0.000001 0.021048
vn -0.999778 -0.000019 0.021065
vn -0.999779 0.000014 0.021035
vn -0.999778 -0.000013 0.021057
vn -0.999779 0.000020 0.021033
vn -0.999778 -0.000018 0.021059
vn -0.999779 0.000008 0.021042
vn -0.999778 -0.000011 0.021054
vn -0.999778 0.000001 0.021047
vn -0.999779 0.000002 0.021047
vn -0.999778 -0.000012 0.021053
vn -0.999779 0.000012 0.021043
vn -0.999779 0.000020 0.021039
vn -0.999778 0.000005 0.021045
vn -0.999778 -0.000043 0.021063
vn -0.999779 0.000051 0.021030
vn -0.999778 -0.000010 0.021076
vn -0.999779 0.000004 0.021036
vn -0.999777 -0.000017 0.021093
vn -0.999779 0.000014 0.021010
vn -0.999778 -0.000014 0.021082
vn -0.999778 0.000001 0.021047
vn -0.999779 0.000006 0.021036
vn -0.999778 0.000000 0.021047
vn -0.999779 0.000007 0.021035
vn -0.999779 0.000000 0.021047
vn -0.999779 0.000002 0.021043
vn -0.999778 -0.000011 0.021064
vn -0.999779 0.000004 0.021042
vn -0.999779 0.000001 0.021046
vn -0.999779 0.000002 0.021045
vn -0.999779 0.000000 0.021046
vn -0.999779 0.000005 0.021042
vn -0.999779 0.000004 0.021042
vn -0.999778 -0.000019 0.021065
vn -0.999779 0.000002 0.021045
vn -0.999779 0.000014 0.021035
vn -0.999779 0.000001 0.021045
vn -0.999778 -0.000013 0.021057
vn -0.999779 0.000004 0.021042
vn -0.999779 0.000020 0.021033
vn -0.999778 -0.000011 0.021064
vn -0.999778 -0.000018 0.021059
vn -0.999779 0.000002 0.021043
vn -0.999779 0.000008 0.021043
vn -0.999779 0.000000 0.021046
vn -0.999778 -0.000011 0.021054
vn -0.999779 0.000007 0.021035
vn -0.999779 0.000001 0.021047
vn -0.999778 0.000001 0.021047
vn -0.999779 0.000002 0.021047
vn -0.999779 0.000006 0.021036
vn -0.999778 -0.000012 0.021053
vn -0.999779 0.000001 0.021047
vn -0.999779 0.000012 0.021043
vn -0.999778 -0.000014 0.021082
vn -0.999779 0.000020 0.021039
vn -0.999779 0.000015 0.021010
vn -0.999779 0.000005 0.021045
vn -0.999777 -0.000017 0.021093
vn -0.999778 -0.000043 0.021063
vn -0.999779 0.000004 0.021036
vn -0.999778 -0.000010 0.021076
vn -0.999779 0.000000 0.021046
vn -0.999778 0.000043 0.021063
vn -0.999778 -0.000005 0.021045
vn -0.999779 -0.000020 0.021039
vn -0.999779 -0.000012 0.021043
vn -0.999778 0.000012 0.021053
vn -0.999779 -0.000002 0.021047
vn -0.999778 -0.000001 0.021047
vn -0.999778 0.000011 0.021054
vn -0.999779 -0.000008 0.021042
vn -0.999778 0.000018 0.021059
vn -0.999779 -0.000020 0.021033
vn -0.999778 0.000013 0.021057
vn -0.999779 -0.000014 0.021035
vn -0.999778 0.000019 0.021065
vn -0.999779 -0.000004 0.021042
vn -0.999779 -0.000002 0.021045
vn -0.999779 -0.000001 0.021045
vn -0.999779 -0.000004 0.021042
vn -0.999778 0.000011 0.021064
vn -0.999779 -0.000002 0.021043
vn -0.999779 -0.000000 0.021046
vn -0.999779 -0.000007 0.021035
vn -0.999778 -0.000001 0.021047
vn -0.999779 -0.000006 0.021036
vn -0.999779 -0.000001 0.021047
vn -0.999778 0.000014 0.021082
vn -0.999779 -0.000015 0.021010
vn -0.999777 0.000017 0.021093
vn -0.999779 -0.000004 0.021036
vn -0.999778 0.000010 0.021076
vn -0.999778 -0.000001 0.021048
vn -0.999779 0.000051 0.021030
vn -0.999778 0.000089 0.021077
vn -0.999779 -0.000051 0.021030
vn 0.021048 0.000000 0.999779
vn 0.021048 0.000000 0.999779
vn -0.021041 -0.024927 -0.999468
vn -0.021041 -0.024928 -0.999468
vn -0.020989 -0.074734 -0.996983
vn -0.020989 -0.074729 -0.996983
vn -0.020885 -0.124346 -0.992019
vn -0.020728 -0.173644 -0.984590
vn -0.020885 -0.124345 -0.992019
vn -0.020728 -0.173650 -0.984589
vn -0.020520 -0.222520 -0.974712
vn -0.020520 -0.222519 -0.974712
vn -0.020261 -0.270843 -0.962410
vn -0.019952 -0.318484 -0.947718
vn -0.020261 -0.270843 -0.962410
vn -0.019952 -0.318484 -0.947718
vn -0.019593 -0.365344 -0.930666
vn -0.019593 -0.365340 -0.930668
vn -0.019185 -0.411288 -0.911304
vn -0.018730 -0.456206 -0.889677
vn -0.019185 -0.411287 -0.911304
vn -0.018228 -0.500001 -0.865833
vn -0.018730 -0.456211 -0.889675
vn -0.018228 -0.500001 -0.865833
vn -0.017681 -0.542548 -0.839839
vn -0.017681 -0.542548 -0.839839
vn -0.017090 -0.583742 -0.811759
vn -0.017090 -0.583742 -0.811759
vn -0.016456 -0.623490 -0.781658
vn -0.016456 -0.623490 -0.781658
vn -0.015781 -0.661685 -0.749615
vn -0.015781 -0.661686 -0.749615
vn -0.015068 -0.698238 -0.715707
vn -0.015068 -0.698238 -0.715708
vn -0.014316 -0.733052 -0.680022
vn -0.014316 -0.733053 -0.680021
vn -0.013529 -0.766043 -0.642646
vn -0.013529 -0.766044 -0.642646
vn -0.012709 -0.797132 -0.603671
vn -0.012709 -0.797134 -0.603669
vn -0.011857 -0.826238 -0.563196
vn -0.011857 -0.826239 -0.563196
vn -0.010975 -0.853292 -0.521318
vn -0.010975 -0.853290 -0.521320
vn -0.010066 -0.878222 -0.478147
vn -0.010066 -0.878221 -0.478149
vn -0.009132 -0.900969 -0.433788
vn -0.009132 -0.900969 -0.433786
vn -0.008176 -0.921476 -0.388348
vn -0.008176 -0.921475 -0.388350
vn -0.007199 -0.939693 -0.341945
vn -0.007199 -0.939693 -0.341944
vn -0.006204 -0.955573 -0.294690
vn -0.006204 -0.955573 -0.294690
vn -0.005194 -0.969077 -0.246702
vn -0.005194 -0.969077 -0.246702
vn -0.004171 -0.980173 -0.198102
vn -0.003137 -0.988831 -0.149009
vn -0.004171 -0.980173 -0.198102
vn -0.003137 -0.988831 -0.149009
vn -0.002096 -0.995031 -0.099547
vn -0.002096 -0.995031 -0.099546
vn -0.001049 -0.998757 -0.049834
vn 0.000000 -1.000000 0.000000
vn -0.001049 -0.998757 -0.049834
vn 0.001049 -0.998757 0.049834
vn 0.000000 -1.000000 -0.000000
vn 0.001049 -0.998757 0.049834
vn 0.002096 -0.995031 0.099546
vn 0.002096 -0.995031 0.099547
vn 0.003137 -0.988831 0.149009
vn 0.003137 -0.988831 0.149009
vn 0.004171 -0.980173 0.198102
vn 0.004171 -0.980173 0.198102
vn 0.005194 -0.969077 0.246702
vn 0.005194 -0.969077 0.246703
vn 0.006204 -0.955573 0.294690
vn 0.006204 -0.955573 0.294690
vn 0.007199 -0.939693 0.341944
vn 0.007199 -0.939693 0.341944
vn 0.008176 -0.921477 0.388347
vn 0.008176 -0.921476 0.388350
vn 0.009132 -0.900968 0.433790
vn 0.009132 -0.900970 0.433786
vn 0.010066 -0.878222 0.478147
vn 0.010066 -0.878222 0.478147
vn 0.010975 -0.853290 0.521320
vn 0.010975 -0.853290 0.521321
vn 0.011857 -0.826239 0.563196
vn 0.011857 -0.826238 0.563196
vn 0.012709 -0.797132 0.603671
vn 0.012709 -0.797136 0.603667
vn 0.013529 -0.766043 0.642646
vn 0.013529 -0.766044 0.642646
vn 0.014316 -0.733048 0.680026
vn 0.014316 -0.733052 0.680022
vn 0.015068 -0.698235 0.715710
vn 0.015067 -0.698240 0.715705
vn 0.015781 -0.661686 0.749615
vn 0.015781 -0.661685 0.749616
vn 0.016456 -0.623495 0.781654
vn 0.016456 -0.623490 0.781658
vn 0.017090 -0.583745 0.811757
vn 0.017090 -0.583738 0.811762
vn 0.017681 -0.542541 0.839843
vn 0.017681 -0.542548 0.839839
vn 0.018228 -0.500001 0.865833
vn 0.018228 -0.500001 0.865833
vn 0.018730 -0.456211 0.889675
vn 0.018730 -0.456211 0.889675
vn 0.019185 -0.411291 0.911302
vn 0.019185 -0.411283 0.911306
vn 0.019593 -0.365340 0.930668
vn 0.019593 -0.365348 0.930665
vn 0.019952 -0.318488 0.947717
vn 0.019952 -0.318480 0.947720
vn 0.020261 -0.270843 0.962410
vn 0.020261 -0.270835 0.962413
vn 0.020520 -0.222520 0.974712
vn 0.020520 -0.222519 0.974712
vn 0.020728 -0.173650 0.984589
vn 0.020728 -0.173650 0.984589
vn 0.020885 -0.124350 0.992019
vn 0.020885 -0.124350 0.992019
vn 0.020989 -0.074725 0.996983
vn 0.020989 -0.074725 0.996983
vn 0.021041 -0.024937 0.999468
vn 0.021041 -0.024927 0.999468
vn 0.021041 0.024937 0.999468
vn 0.021041 0.024928 0.999468
vn 0.020989 0.074725 0.996983
vn 0.020989 0.074725 0.996983
vn 0.020885 0.124350 0.992019
vn 0.020885 0.124350 0.992019
vn 0.020728 0.173650 0.984589
vn 0.020728 0.173650 0.984589
vn 0.020520 0.222519 0.974712
vn 0.020520 0.222520 0.974712
vn 0.020261 0.270843 0.962410
vn 0.020261 0.270835 0.962413
vn 0.019952 0.318488 0.947717
vn 0.019952 0.318480 0.947719
vn 0.019593 0.365348 0.930665
vn 0.019593 0.365340 0.930668
vn 0.019185 0.411291 0.911302
vn 0.019185 0.411283 0.911306
vn 0.018730 0.456211 0.889675
vn 0.018730 0.456211 0.889675
vn 0.017681 0.542548 0.839839
vn 0.018228 0.500001 0.865833
vn 0.018228 0.500001 0.865833
vn 0.017681 0.542541 0.839843
vn 0.017090 0.583739 0.811762
vn 0.017090 0.583745 0.811757
vn 0.016456 0.623495 0.781654
vn 0.015781 0.661685 0.749616
vn 0.016456 0.623490 0.781658
vn 0.015781 0.661686 0.749615
vn 0.015068 0.698235 0.715710
vn 0.015067 0.698240 0.715705
vn 0.014316 0.733052 0.680022
vn 0.014316 0.733048 0.680026
vn 0.013529 0.766043 0.642646
vn 0.012709 0.797132 0.603671
vn 0.013529 0.766044 0.642646
vn 0.012709 0.797136 0.603667
vn 0.011857 0.826238 0.563196
vn 0.010975 0.853290 0.521321
vn 0.011857 0.826239 0.563196
vn 0.010975 0.853290 0.521321
vn 0.010066 0.878222 0.478147
vn 0.010066 0.878222 0.478147
vn 0.009132 0.900970 0.433786
vn 0.009132 0.900968 0.433790
vn 0.008176 0.921475 0.388351
vn 0.007199 0.939693 0.341945
vn 0.008176 0.921477 0.388347
vn 0.007199 0.939693 0.341944
vn 0.006204 0.955573 0.294690
vn 0.006204 0.955573 0.294690
vn 0.005194 0.969077 0.246702
vn 0.005194 0.969077 0.246703
vn 0.004171 0.980173 0.198102
vn 0.004171 0.980173 0.198102
vn 0.003137 0.988831 0.149009
vn 0.003137 0.988831 0.149009
vn 0.002096 0.995031 0.099546
vn 0.001049 0.998757 0.049834
vn 0.002096 0.995031 0.099547
vn 0.001049 0.998757 0.049834
vn 0.000000 1.000000 0.000000
vn -0.000000 1.000000 0.000000
vn -0.001049 0.998757 -0.049834
vn -0.001049 0.998757 -0.049834
vn -0.002096 0.995031 -0.099547
vn -0.002096 0.995031 -0.099546
vn -0.003137 0.988831 -0.149009
vn -0.003137 0.988831 -0.149009
vn -0.004171 0.980173 -0.198102
vn -0.004171 0.980173 -0.198102
vn -0.005194 0.969077 -0.246703
vn -0.006204 0.955573 -0.294690
vn -0.005194 0.969077 -0.246702
vn -0.006204 0.955573 -0.294690
vn -0.007199 0.939693 -0.341944
vn -0.007199 0.939693 -0.341944
vn -0.008176 0.921476 -0.388349
vn -0.009132 0.900969 -0.433788
vn -0.008176 0.921475 -0.388350
vn -0.009132 0.900970 -0.433786
vn -0.010066 0.878222 -0.478147
vn -0.010975 0.853290 -0.521320
vn -0.010066 0.878221 -0.478149
vn -0.010975 0.853292 -0.521318
vn -0.011857 0.826238 -0.563196
vn -0.012709 0.797134 -0.603669
vn -0.011857 0.826239 -0.563196
vn -0.012709 0.797132 -0.603671
vn -0.013529 0.766043 -0.642646
vn -0.013529 0.766044 -0.642646
vn -0.014316 0.733053 -0.680021
vn -0.014316 0.733052 -0.680022
vn -0.015068 0.698238 -0.715708
vn -0.015068 0.698238 -0.715707
vn -0.015781 0.661685 -0.749615
vn -0.015781 0.661685 -0.749616
vn -0.016456 0.623490 -0.781658
vn -0.016456 0.623490 -0.781658
vn -0.017090 0.583742 -0.811759
vn -0.017090 0.583742 -0.811759
vn -0.017681 0.542548 -0.839839
vn -0.017681 0.542548 -0.839839
vn -0.018228 0.500000 -0.865833
vn -0.018228 0.500001 -0.865833
vn -0.018730 0.456211 -0.889675
vn -0.018730 0.456206 -0.889677
vn -0.019185 0.411287 -0.911304
vn -0.019185 0.411287 -0.911304
vn -0.019593 0.365344 -0.930666
vn -0.019593 0.365340 -0.930668
vn -0.019952 0.318484 -0.947718
vn -0.019952 0.318484 -0.947718
vn -0.020261 0.270843 -0.962410
vn -0.020261 0.270843 -0.962410
vn -0.020520 0.222519 -0.974712
vn -0.020520 0.222520 -0.974712
vn -0.020728 0.173645 -0.984590
vn -0.020728 0.173650 -0.984589
vn -0.020885 0.124346 -0.992019
vn -0.020885 0.124345 -0.992019
vn -0.020989 0.074734 -0.996983
vn -0.020989 0.074729 -0.996983
vn -0.021041 0.024927 -0.999468
vn -0.021041 0.024927 -0.999468
vn 0.999779 0.000000 -0.021048
vn 0.999779 0.000000 -0.021048
vn -0.999780 -0.000093 0.020970
vn -0.999780 -0.000055 0.020975
vn -0.999777 0.000040 0.021109
vn -0.999778 0.000039 0.021072
vn -0.999779 -0.000040 0.021027
vn -0.999778 0.000010 0.021054
vn -0.999779 -0.000008 0.021045
vn -0.999780 -0.000029 0.020996
vn -0.999782 -0.000075 0.020900
vn -0.999779 -0.000012 0.021041
vn -0.999779 -0.000009 0.021043
vn -0.999779 -0.000021 0.021034
vn -0.999778 0.000027 0.021065
vn -0.999779 -0.000015 0.021041
vn -0.999779 -0.000001 0.021047
vn -0.999778 0.000002 0.021052
vn -0.999779 -0.000007 0.021027
vn -0.999778 0.000016 0.021048
vn -0.999778 0.000068 0.021055
vn -0.999779 0.000032 0.021045
vn -0.999778 0.000000 0.021049
vn -0.999783 0.000023 0.020815
vn -0.999778 0.000000 0.021048
vn -0.999779 0.000002 0.021024
vn -0.999778 -0.000001 0.021058
vn -0.999778 -0.000002 0.021086
vn -0.999780 0.000000 0.020995
vn -0.999778 0.000000 0.021093
vn -0.999779 -0.000002 0.021006
vn -0.999779 -0.000000 0.021044
vn -0.999779 -0.000001 0.021046
vn -0.999778 0.000001 0.021050
vn -0.999778 -0.000022 0.021049
vn -0.999778 -0.000021 0.021049
vn -0.999779 0.000009 0.021043
vn -0.999785 0.000059 0.020755
vn -0.999779 0.000003 0.021034
vn -0.999778 -0.000000 0.021048
vn -0.999779 -0.000001 0.021046
vn -0.999778 0.000005 0.021056
vn -0.999779 0.000007 0.021027
vn -0.999779 0.000061 0.021028
vn -0.999777 -0.000158 0.021114
vn -0.999779 0.000014 0.021045
vn -0.999778 0.000006 0.021048
vn -0.999778 -0.000013 0.021082
vn -0.999782 0.000075 0.020900
vn -0.999778 0.000001 0.021048
vn -0.999782 0.000310 0.020870
vn -0.999780 0.000055 0.020975
vn -0.999778 -0.000005 0.021055
vn -0.999777 -0.000041 0.021104
vn -0.999778 -0.000027 0.021086
vn -0.999779 0.000030 0.021006
vn -0.999778 -0.000026 0.021080
vn -0.999777 -0.000057 0.021109
vn -0.999777 -0.000072 0.021125
vn -0.999778 -0.000027 0.021078
vn -0.999780 0.000065 0.020993
vn -0.999779 0.000009 0.021039
vn -0.999777 -0.000038 0.021105
vn -0.999778 -0.000013 0.021064
vn -0.999778 -0.000019 0.021059
vn -0.999779 0.000053 0.021018
vn -0.999779 0.000028 0.021013
vn -0.999779 0.000013 0.021042
vn -0.999778 -0.000001 0.021049
vn -0.999778 -0.000020 0.021061
vn -0.999778 0.000002 0.021046
vn -0.999778 -0.000007 0.021059
vn -0.999779 0.000009 0.021036
vn -0.999778 -0.000003 0.021052
vn -0.999779 0.000015 0.021041
vn -0.999779 0.000008 0.021037
vn -0.999778 -0.000000 0.021048
vn -0.999778 -0.000001 0.021049
vn -0.999778 0.000001 0.021047
vn -0.999779 -0.000002 0.021047
vn -0.999780 0.000018 0.020982
vn -0.999778 -0.000008 0.021081
vn -0.999778 -0.000068 0.021055
vn -0.999778 -0.000016 0.021048
vn -0.999779 0.000032 0.021041
vn -0.999779 -0.000002 0.021047
vn -0.999779 0.000000 0.021047
vn -0.999777 -0.000005 0.021111
vn -0.999781 0.000004 0.020931
vn -0.999778 0.000141 0.021049
vn -0.999779 -0.000032 0.021045
vn -0.999775 0.000016 0.021200
vn -0.999778 0.000032 0.021050
vn -0.999779 -0.000002 0.021024
vn -0.999779 -0.000001 0.021033
vn -0.999779 0.000000 0.021046
vn -0.999778 0.000050 0.021062
vn -0.999779 -0.000010 0.021013
vn -0.999778 0.000009 0.021075
vn -0.999778 0.000000 0.021050
vn -0.999778 0.000017 0.021052
vn -0.999779 -0.000034 0.021039
vn -0.999777 0.000158 0.021114
vn -0.999779 -0.000034 0.021038
vn -0.999779 -0.000012 0.021045
vn -0.999777 0.000021 0.021100
vn -0.999774 0.000091 0.021244
vn -0.999782 -0.000310 0.020870
vn -0.999778 -0.000001 0.021048
vn -0.999778 0.000044 0.021072
vn -0.999777 0.000037 0.021104
vn -0.999777 0.000036 0.021102
vn -0.999778 0.000002 0.021048
vn -0.999779 -0.000000 0.021048
vn -0.999778 -0.000000 0.021049
vn -0.999779 -0.000010 0.021030
vn -0.999778 0.000000 0.021048
vn -0.999778 -0.000000 0.021048
vn -0.999779 -0.000002 0.021047
vn -0.999778 0.000006 0.021050
vn -0.999778 0.000022 0.021060
vn -0.999779 -0.000006 0.021037
vn -0.999778 0.000004 0.021049
vn -0.999778 -0.000005 0.021047
vn -0.999780 -0.000090 0.020973
vn -0.999778 0.000005 0.021056
vn 0.021049 -0.000002 0.999778
vn 0.021049 -0.000001 0.999778
vn 0.021047 0.000002 0.999779
vn 0.021048 0.000001 0.999779
vn 0.021049 -0.000002 0.999778
vn 0.021049 -0.000001 0.999778
vn 0.021046 0.000002 0.999779
vn 0.021048 0.000000 0.999778
vn 0.021047 0.000001 0.999779
vn 0.021048 0.000001 0.999778
vn 0.021048 -0.000000 0.999778
vn 0.021046 0.000004 0.999778
vn 0.021051 -0.000003 0.999778
vn 0.021048 -0.000001 0.999778
vn 0.021047 0.000001 0.999779
vn 0.021050 -0.000005 0.999778
vn 0.021047 0.000001 0.999778
vn 0.021047 0.000003 0.999779
vn 0.021048 -0.000000 0.999778
vn 0.021047 0.000003 0.999778
vn 0.021047 0.000001 0.999779
vn 0.021049 -0.000003 0.999778
vn 0.021051 -0.000002 0.999778
vn 0.021046 0.000006 0.999779
vn 0.021046 0.000002 0.999779
vn 0.021049 -0.000004 0.999778
vn 0.021046 0.000002 0.999779
vn 0.021048 -0.000000 0.999778
vn 0.021049 -0.000000 0.999778
vn 0.021051 -0.000002 0.999778
vn 0.021047 -0.000001 0.999778
vn 0.021048 0.000000 0.999778
vn 0.021047 -0.000001 0.999779
vn 0.021051 0.000002 0.999778
vn 0.021046 -0.000002 0.999779
vn 0.021046 -0.000002 0.999778
vn 0.021049 0.000000 0.999778
vn 0.021051 0.000002 0.999778
vn 0.021048 0.000000 0.999779
vn 0.021047 -0.000001 0.999779
vn 0.021051 0.000003 0.999778
vn 0.021048 0.000000 0.999778
vn 0.021047 -0.000001 0.999779
vn 0.021046 -0.000002 0.999779
vn 0.021049 0.000002 0.999778
vn 0.021047 -0.000002 0.999779
vn 0.021048 0.000000 0.999779
vn 0.021046 -0.000006 0.999779
vn 0.021049 0.000003 0.999778
vn 0.021049 0.000003 0.999778
vn 0.021047 -0.000002 0.999778
vn 0.021047 -0.000003 0.999779
vn 0.021050 0.000004 0.999778
vn 0.021046 -0.000004 0.999779
vn 0.021049 0.000001 0.999778
vn 0.021048 -0.000001 0.999779
vn 0.021048 0.000000 0.999778
vn 0.021048 0.000000 0.999778
vn 0.021048 -0.000001 0.999778
vn 0.021049 0.000001 0.999779
vn 0.021048 -0.000000 0.999779
vn 0.021052 0.000012 0.999778
vn 0.021044 -0.000012 0.999779
vn 0.021050 0.000006 0.999778
vn 0.021049 0.000002 0.999778
vn 0.021046 -0.000002 0.999779
vn 0.021049 0.000001 0.999778
vn 0.021050 0.000002 0.999778
vn 0.021048 -0.000001 0.999779
vn 0.021050 0.000001 0.999778
vn 0.021049 0.000001 0.999778
vn 0.021046 -0.000002 0.999779
vn 0.021048 -0.000000 0.999778
vn 0.021048 -0.000000 0.999778
vn 0.021048 -0.000001 0.999778
vn 0.021048 0.000000 0.999779
vn 0.021046 -0.000004 0.999778
vn 0.021047 -0.000001 0.999779
vn 0.021048 0.000001 0.999778
vn 0.021051 0.000002 0.999778
vn 0.021050 0.000005 0.999778
vn 0.021047 -0.000001 0.999778
vn 0.021047 -0.000003 0.999779
vn 0.021048 0.000000 0.999779
vn 0.021047 -0.000003 0.999778
vn 0.021047 -0.000000 0.999778
vn 0.021049 0.000003 0.999778
vn 0.021052 0.000001 0.999778
vn 0.021046 -0.000006 0.999779
vn 0.021044 -0.000002 0.999779
vn 0.021045 -0.000001 0.999779
vn 0.021049 0.000000 0.999778
vn 0.021053 0.000002 0.999778
vn 0.021053 -0.000002 0.999778
vn 0.021049 -0.000000 0.999778
vn 0.021045 0.000001 0.999778
vn 0.021044 0.000002 0.999779
vn 0.021052 -0.000001 0.999778
vn 0.021047 0.000000 0.999779
vn 0.021048 -0.000000 0.999779
vn 0.021047 0.000001 0.999778
vn 0.021051 -0.000002 0.999778
vn 0.021047 0.000001 0.999778
vn 0.021048 -0.000000 0.999778
vn 0.021048 0.000000 0.999778
vn 0.021046 0.000002 0.999779
vn 0.021050 -0.000001 0.999778
vn 0.021050 -0.000002 0.999778
vn 0.021046 0.000002 0.999779
vn 0.021049 -0.000001 0.999779
vn 0.021048 0.000001 0.999778
vn 0.021048 -0.000000 0.999778
vn 0.021048 0.000000 0.999779
vn 0.021048 -0.000000 0.999778
vn 0.021048 0.000001 0.999779
vn 0.021049 -0.000001 0.999778
vn 0.021046 0.000004 0.999779
vn 0.021050 -0.000004 0.999778
vn 0.021047 0.000003 0.999779
vn 0.021047 0.000002 0.999778
vn 0.021049 -0.000003 0.999778
vn 0.021049 -0.000003 0.999778
vn 0.021046 0.000006 0.999779
vn 0.021048 -0.000000 0.999779
vn 0.021048 -0.000000 0.999778
vn 0.021051 0.000011 0.999778
vn 0.021048 0.000000 0.999778
vn 0.021049 0.000004 0.999778
vn 0.021044 0.000012 0.999779
vn 0.021050 -0.000006 0.999778
vn 0.999778 0.000000 -0.021048
vn 0.999778 0.000000 -0.021048
vn 0.999467 0.024947 -0.021042
vn 0.999468 0.024908 -0.021041
vn 0.996983 0.074725 -0.020989
vn 0.996983 0.074725 -0.020989
vn 0.992019 0.124350 -0.020884
vn 0.992019 0.124350 -0.020884
vn 0.984586 0.173668 -0.020729
vn 0.984593 0.173631 -0.020728
vn 0.974710 0.222529 -0.020521
vn 0.974710 0.222529 -0.020521
vn 0.962418 0.270817 -0.020261
vn 0.947717 0.318488 -0.019952
vn 0.962408 0.270852 -0.020262
vn 0.947717 0.318488 -0.019952
vn 0.930661 0.365357 -0.019593
vn 0.930674 0.365324 -0.019593
vn 0.911309 0.411275 -0.019185
vn 0.911295 0.411307 -0.019186
vn 0.889667 0.456226 -0.018730
vn 0.865833 0.500001 -0.018229
vn 0.889682 0.456196 -0.018730
vn 0.865833 0.500001 -0.018229
vn 0.839839 0.542548 -0.017681
vn 0.839856 0.542521 -0.017681
vn 0.811753 0.583751 -0.017089
vn 0.811753 0.583751 -0.017089
vn 0.781668 0.623478 -0.016456
vn 0.781649 0.623502 -0.016456
vn 0.749611 0.661691 -0.015782
vn 0.749630 0.661669 -0.015781
vn 0.715710 0.698235 -0.015067
vn 0.715710 0.698235 -0.015067
vn 0.680022 0.733052 -0.014316
vn 0.680022 0.733052 -0.014316
vn 0.642632 0.766055 -0.013529
vn 0.642651 0.766040 -0.013530
vn 0.603666 0.797136 -0.012709
vn 0.603667 0.797136 -0.012709
vn 0.563187 0.826245 -0.011857
vn 0.563205 0.826232 -0.011857
vn 0.521312 0.853296 -0.010975
vn 0.521329 0.853285 -0.010976
vn 0.478151 0.878220 -0.010067
vn 0.478151 0.878220 -0.010067
vn 0.433798 0.900964 -0.009132
vn 0.433783 0.900971 -0.009133
vn 0.388343 0.921478 -0.008176
vn 0.388343 0.921478 -0.008176
vn 0.341941 0.939694 -0.007199
vn 0.341954 0.939689 -0.007199
vn 0.294688 0.955573 -0.006204
vn 0.294688 0.955574 -0.006204
vn 0.246709 0.969076 -0.005194
vn 0.246700 0.969078 -0.005194
vn 0.198100 0.980173 -0.004170
vn 0.198100 0.980173 -0.004170
vn 0.149009 0.988831 -0.003137
vn 0.149009 0.988831 -0.003137
vn 0.099547 0.995031 -0.002096
vn 0.099547 0.995031 -0.002096
vn 0.049833 0.998757 -0.001049
vn 0.049835 0.998757 -0.001049
vn 0.000000 1.000000 0.000000
vn -0.049835 0.998757 0.001049
vn 0.000000 1.000000 0.000000
vn -0.049833 0.998757 0.001049
vn -0.099547 0.995031 0.002096
vn -0.099547 0.995031 0.002096
vn -0.149009 0.988831 0.003137
vn -0.149009 0.988831 0.003137
vn -0.198100 0.980173 0.004171
vn -0.198107 0.980171 0.004171
vn -0.246700 0.969078 0.005194
vn -0.246709 0.969076 0.005194
vn -0.294688 0.955574 0.006204
vn -0.294687 0.955573 0.006204
vn -0.341941 0.939694 0.007199
vn -0.341941 0.939694 0.007199
vn -0.388357 0.921473 0.008176
vn -0.388343 0.921478 0.008176
vn -0.433783 0.900971 0.009133
vn -0.433798 0.900964 0.009132
vn -0.478151 0.878220 0.010066
vn -0.478151 0.878220 0.010066
vn -0.521312 0.853296 0.010975
vn -0.521312 0.853296 0.010975
vn -0.563204 0.826232 0.011857
vn -0.563187 0.826245 0.011857
vn -0.603667 0.797136 0.012709
vn -0.603685 0.797122 0.012709
vn -0.642651 0.766040 0.013529
vn -0.642632 0.766055 0.013529
vn -0.680022 0.733052 0.014317
vn -0.680022 0.733052 0.014317
vn -0.715710 0.698235 0.015068
vn -0.715710 0.698235 0.015068
vn -0.749611 0.661691 0.015782
vn -0.749630 0.661669 0.015781
vn -0.781649 0.623502 0.016455
vn -0.781649 0.623502 0.016455
vn -0.811771 0.583726 0.017090
vn -0.811753 0.583751 0.017090
vn -0.839839 0.542548 0.017681
vn -0.839839 0.542548 0.017681
vn -0.865833 0.500001 0.018229
vn -0.865833 0.500001 0.018229
vn -0.889667 0.456226 0.018730
vn -0.889682 0.456196 0.018730
vn -0.911309 0.411275 0.019185
vn -0.911309 0.411275 0.019185
vn -0.930661 0.365357 0.019593
vn -0.930661 0.365357 0.019593
vn -0.947717 0.318488 0.019952
vn -0.947717 0.318488 0.019952
vn -0.962408 0.270852 0.020262
vn -0.962418 0.270817 0.020261
vn -0.974719 0.222492 0.020520
vn -0.974710 0.222529 0.020521
vn -0.984586 0.173668 0.020729
vn -0.984593 0.173631 0.020728
vn -0.992019 0.124350 0.020885
vn -0.992019 0.124350 0.020885
vn -0.996983 0.074725 0.020990
vn -0.996983 0.074725 0.020990
vn -0.999467 0.024946 0.021042
vn -0.999468 0.024908 0.021041
vn -0.999467 -0.024946 0.021041
vn -0.999468 -0.024908 0.021042
vn -0.996983 -0.074725 0.020990
vn -0.996983 -0.074725 0.020990
vn -0.992019 -0.124350 0.020885
vn -0.992019 -0.124350 0.020885
vn -0.984593 -0.173631 0.020729
vn -0.984586 -0.173668 0.020728
vn -0.974710 -0.222529 0.020520
vn -0.974718 -0.222492 0.020521
vn -0.962418 -0.270817 0.020262
vn -0.962408 -0.270852 0.020261
vn -0.947717 -0.318488 0.019952
vn -0.947717 -0.318488 0.019952
vn -0.930661 -0.365357 0.019593
vn -0.930661 -0.365357 0.019593
vn -0.911309 -0.411275 0.019185
vn -0.911309 -0.411275 0.019185
vn -0.889667 -0.456226 0.018729
vn -0.889682 -0.456196 0.018731
vn -0.865833 -0.500001 0.018229
vn -0.865833 -0.500001 0.018229
vn -0.839839 -0.542548 0.017681
vn -0.839839 -0.542548 0.017681
vn -0.811753 -0.583751 0.017089
vn -0.811771 -0.583726 0.017090
vn -0.781649 -0.623502 0.016455
vn -0.781649 -0.623502 0.016455
vn -0.749630 -0.661669 0.015782
vn -0.749611 -0.661691 0.015781
vn -0.715710 -0.698235 0.015068
vn -0.715710 -0.698235 0.015068
vn -0.680022 -0.733052 0.014317
vn -0.680022 -0.733052 0.014317
vn -0.642632 -0.766055 0.013529
vn -0.642651 -0.766040 0.013530
vn -0.603685 -0.797122 0.012710
vn -0.603667 -0.797136 0.012709
vn -0.563187 -0.826245 0.011856
vn -0.563204 -0.826233 0.011857
vn -0.521312 -0.853295 0.010975
vn -0.521312 -0.853295 0.010975
vn -0.478151 -0.878220 0.010066
vn -0.478151 -0.878220 0.010066
vn -0.433797 -0.900964 0.009133
vn -0.433783 -0.900971 0.009132
vn -0.388343 -0.921478 0.008176
vn -0.388357 -0.921473 0.008176
vn -0.341941 -0.939694 0.007199
vn -0.341941 -0.939694 0.007199
vn -0.294688 -0.955574 0.006204
vn -0.294688 -0.955573 0.006204
vn -0.246700 -0.969078 0.005194
vn -0.246709 -0.969076 0.005194
vn -0.198107 -0.980171 0.004171
vn -0.198100 -0.980173 0.004170
vn -0.149009 -0.988831 0.003137
vn -0.149009 -0.988831 0.003137
vn -0.099547 -0.995031 0.002096
vn -0.099547 -0.995031 0.002096
vn -0.049835 -0.998757 0.001049
vn -0.049833 -0.998757 0.001049
vn 0.000000 -1.000000 0.000000
vn -0.000000 -1.000000 0.000000
vn 0.049833 -0.998757 -0.001049
vn 0.049835 -0.998757 -0.001049
vn 0.099547 -0.995031 -0.002096
vn 0.099547 -0.995031 -0.002096
vn 0.149009 -0.988831 -0.003137
vn 0.149009 -0.988831 -0.003137
vn 0.198100 -0.980173 -0.004170
vn 0.198100 -0.980173 -0.004170
vn 0.246709 -0.969076 -0.005194
vn 0.246700 -0.969078 -0.005194
vn 0.294688 -0.955573 -0.006204
vn 0.294688 -0.955573 -0.006204
vn 0.341941 -0.939694 -0.007199
vn 0.341954 -0.939689 -0.007199
vn 0.388343 -0.921478 -0.008176
vn 0.388343 -0.921478 -0.008176
vn 0.433798 -0.900964 -0.009133
vn 0.433783 -0.900971 -0.009132
vn 0.478151 -0.878220 -0.010067
vn 0.478151 -0.878220 -0.010067
vn 0.521312 -0.853296 -0.010975
vn 0.521329 -0.853285 -0.010976
vn 0.563205 -0.826232 -0.011857
vn 0.563187 -0.826245 -0.011856
vn 0.603666 -0.797136 -0.012709
vn 0.603666 -0.797136 -0.012709
vn 0.642632 -0.766055 -0.013529
vn 0.642651 -0.766040 -0.013530
vn 0.680022 -0.733052 -0.014316
vn 0.680022 -0.733052 -0.014316
vn 0.715710 -0.698235 -0.015067
vn 0.715710 -0.698235 -0.015067
vn 0.749611 -0.661691 -0.015781
vn 0.749630 -0.661669 -0.015782
vn 0.781668 -0.623478 -0.016457
vn 0.781649 -0.623502 -0.016455
vn 0.811752 -0.583751 -0.017089
vn 0.811753 -0.583751 -0.017089
vn 0.839839 -0.542548 -0.017681
vn 0.839856 -0.542521 -0.017682
vn 0.865833 -0.500001 -0.018229
vn 0.865833 -0.500001 -0.018229
vn 0.889682 -0.456196 -0.018731
vn 0.889667 -0.456226 -0.018729
vn 0.911295 -0.411307 -0.019185
vn 0.911309 -0.411275 -0.019186
vn 0.930674 -0.365324 -0.019594
vn 0.930661 -0.365357 -0.019593
vn 0.947717 -0.318488 -0.019952
vn 0.947717 -0.318488 -0.019952
vn 0.962408 -0.270852 -0.020261
vn 0.962418 -0.270817 -0.020262
vn 0.974710 -0.222529 -0.020521
vn 0.974710 -0.222529 -0.020521
vn 0.984593 -0.173631 -0.020729
vn 0.984586 -0.173668 -0.020728
vn 0.992019 -0.124350 -0.020884
vn 0.992019 -0.124350 -0.020884
vn 0.996983 -0.074725 -0.020989
vn 0.996983 -0.074725 -0.020989
vn 0.999468 -0.024908 -0.021042
vn 0.999467 -0.024947 -0.021041
vn 0.021099 0.000060 0.999777
vn 0.021265 0.000164 0.999774
vn 0.021014 -0.000026 0.999779
vn 0.020985 -0.000101 0.999780
vn 0.021040 -0.000016 0.999779
vn 0.021072 0.000039 0.999778
vn 0.021039 -0.000018 0.999779
vn 0.021042 -0.000004 0.999779
vn 0.021041 -0.000004 0.999779
vn 0.021049 0.000001 0.999778
vn 0.021056 0.000006 0.999778
vn 0.021012 -0.000016 0.999779
vn 0.021145 0.000053 0.999776
vn 0.021059 0.000007 0.999778
vn 0.021035 -0.000030 0.999779
vn 0.021019 -0.000010 0.999779
vn 0.021062 0.000051 0.999778
vn 0.020997 -0.000014 0.999779
vn 0.021041 -0.000025 0.999779
vn 0.021078 0.000007 0.999778
vn 0.021036 -0.000123 0.999779
vn 0.021051 0.000015 0.999778
vn 0.021042 -0.000073 0.999779
vn 0.021324 0.000016 0.999773
vn 0.021112 0.000005 0.999777
vn 0.021045 0.000032 0.999779
vn 0.021006 0.000008 0.999779
vn 0.020975 0.000011 0.999780
vn 0.021046 0.000023 0.999778
vn 0.021048 0.000001 0.999778
vn 0.021049 -0.000001 0.999778
vn 0.021015 0.000195 0.999779
vn 0.021048 0.000002 0.999779
vn 0.021135 -0.000011 0.999777
vn 0.021049 0.000002 0.999778
vn 0.021045 0.000000 0.999779
vn 0.021019 0.000010 0.999779
vn 0.021032 0.000005 0.999779
vn 0.021044 0.000001 0.999779
vn 0.021039 0.000018 0.999779
vn 0.021039 0.000002 0.999779
vn 0.020990 0.000028 0.999780
vn 0.021047 -0.000000 0.999779
vn 0.021046 -0.000000 0.999779
vn 0.021047 -0.000000 0.999779
vn 0.021045 -0.000000 0.999779
vn 0.021046 0.000002 0.999779
vn 0.021046 0.000001 0.999779
vn 0.021046 0.000002 0.999779
vn 0.021103 -0.000090 0.999777
vn 0.021062 -0.000027 0.999778
vn 0.020793 0.000175 0.999784
vn 0.021033 0.000029 0.999779
vn 0.021056 -0.000004 0.999778
vn 0.020896 0.000130 0.999782
vn 0.020963 0.000086 0.999780
vn 0.021059 -0.000013 0.999778
vn 0.021016 0.000029 0.999779
vn 0.021129 -0.000076 0.999777
vn 0.021049 -0.000003 0.999778
vn 0.021041 0.000007 0.999779
vn 0.021056 -0.000009 0.999778
vn 0.021160 -0.000155 0.999776
vn 0.021048 0.000000 0.999778
vn 0.021048 -0.000001 0.999779
vn 0.021021 0.000019 0.999779
vn 0.021097 -0.000033 0.999777
vn 0.021047 0.000000 0.999779
vn 0.021047 0.000002 0.999778
vn 0.021039 0.000018 0.999779
vn 0.021056 -0.000014 0.999778
vn 0.021086 -0.000020 0.999778
vn 0.021035 0.000005 0.999779
vn 0.021035 0.000005 0.999779
vn 0.021050 -0.000010 0.999778
vn 0.021041 0.000017 0.999779
vn 0.021046 0.000002 0.999779
vn 0.021043 0.000009 0.999779
vn 0.020982 0.000017 0.999780
vn 0.021033 0.000063 0.999779
vn 0.020960 0.000014 0.999780
vn 0.021045 0.000001 0.999779
vn 0.021043 0.000048 0.999779
vn 0.021040 0.000098 0.999779
vn 0.021060 -0.000002 0.999778
vn 0.021066 -0.000005 0.999778
vn 0.020989 0.000000 0.999780
vn 0.021084 0.000000 0.999778
vn 0.021046 -0.000000 0.999779
vn 0.021049 -0.000006 0.999779
vn 0.021048 0.000011 0.999778
vn 0.021045 -0.000032 0.999779
vn 0.021049 0.000017 0.999778
vn 0.021196 0.000016 0.999775
vn 0.021046 0.000001 0.999779
vn 0.021048 0.000000 0.999778
vn 0.021076 0.000107 0.999778
vn 0.021073 0.000006 0.999778
vn 0.020982 -0.000017 0.999780
vn 0.021035 -0.000005 0.999779
vn 0.021017 -0.000011 0.999779
vn 0.021037 -0.000024 0.999779
vn 0.021044 -0.000008 0.999779
vn 0.021044 -0.000007 0.999779
vn 0.021059 0.000030 0.999778
vn 0.021147 0.000051 0.999776
vn 0.021051 0.000001 0.999778
vn 0.021072 0.000010 0.999778
vn 0.021043 -0.000002 0.999779
vn 0.021048 0.000001 0.999778
vn 0.021103 0.000090 0.999777
vn 0.021071 0.000041 0.999778
vn 0.021043 -0.000012 0.999779
vn 0.021051 0.000008 0.999778
vn 0.021048 -0.000000 0.999778
vn 0.020985 -0.000048 0.999780
vn 0.021048 -0.000000 0.999778
vn 0.021048 -0.000000 0.999779
vn 0.021129 0.000076 0.999777
vn 0.021099 0.000060 0.999777
vn 0.021109 0.000072 0.999777
vn 0.021048 -0.000001 0.999779
vn 0.021048 0.000001 0.999778
vn 0.021048 0.000000 0.999779
vn 0.000000 -1.000000 0.000000
vn -0.000000 -1.000000 0.000000
vn 0.000000 -1.000000 0.000000
vn 0.000000 -1.000000 0.000000
vn -0.021048 0.000000 -0.999778
vn -0.021048 -0.000000 -0.999778
vn 0.000000 1.000000 0.000000
vn 0.000000 1.000000 0.000000
vn 0.000000 1.000000 0.000000
vn 0.000000 1.000000 0.000000
f 1//1 2//1 3//1
f 3//2 4//2 1//2
f 1//3 5//3 2//3
f 4//4 6//4 1//4
f 1//5 7//5 5//5
f 6//6 8//6 1//6
f 1//7 9//7 7//7
f 8//8 10//8 1//8
f 1//9 11//9 9//9
f 10//10 12//10 1//10
f 1//11 13//11 11//11
f 12//12 14//12 1//12
f 1//13 15//13 13//13
f 14//14 16//14 1//14
f 1//15 17//15 15//15
f 16//16 18//16 1//16
f 1//17 19//17 17//17
f 18//18 20//18 1//18
f 1//19 21//19 19//19
f 20//20 22//20 1//20
f 1//21 23//21 21//21
f 22//22 24//22 1//22
f 1//23 25//23 23//23
f 24//24 26//24 1//24
f 1//25 27//25 25//25
f 26//26 28//26 1//26
f 1//27 29//27 27//27
f 28//28 30//28 1//28
f 1//29 31//29 29//29
f 30//30 32//30 1//30
f 1//31 33//31 31//31
f 32//32 34//32 1//32
f 34//33 35//33 1//33
f 36//34 35//34 37//34
f 37//35 35//35 38//35
f 38//36 35//36 39//36
f 39//37 35//37 40//37
f 40//38 35//38 41//38
f 41//39 35//39 42//39
f 42//40 35//40 43//40
f 43//41 35//41 44//41
f 44//42 35//42 45//42
f 45//43 35//43 46//43
f 46//44 35//44 47//44
f 47//45 35//45 48//45
f 48//46 35//46 49//46
f 49//47 35//47 50//47
f 50//48 35//48 34//48
f 33//49 51//49 52//49
f 52//50 51//50 53//50
f 53//51 51//51 54//51
f 54//52 51//52 55//52
f 55//53 51//53 56//53
f 56//54 51//54 57//54
f 57//55 51//55 58//55
f 58//56 51//56 59//56
f 59//57 51//57 60//57
f 60//58 51//58 61//58
f 61//59 51//59 62//59
f 62//60 51//60 63//60
f 63//61 51//61 64//61
f 64//62 51//62 65//62
f 65//63 51//63 66//63
f 1//64 51//64 33//64
f 51//65 67//65 66//65
f 36//66 68//66 35//66
f 51//67 69//67 67//67
f 68//68 70//68 35//68
f 51//69 71//69 69//69
f 70//70 72//70 35//70
f 51//71 73//71 71//71
f 72//72 74//72 35//72
f 51//73 75//73 73//73
f 74//74 76//74 35//74
f 51//75 77//75 75//75
f 76//76 78//76 35//76
f 51//77 79//77 77//77
f 78//78 80//78 35//78
f 51//79 81//79 79//79
f 80//80 82//80 35//80
f 51//81 83//81 81//81
f 82//82 84//82 35//82
f 51//83 85//83 83//83
f 84//84 86//84 35//84
f 51//85 87//85 85//85
f 86//86 88//86 35//86
f 51//87 89//87 87//87
f 88//88 90//88 35//88
f 51//89 91//89 89//89
f 90//90 92//90 35//90
f 51//91 93//91 91//91
f 92//92 94//92 35//92
f 51//93 95//93 93//93
f 94//94 96//94 35//94
f 96//95 97//95 35//95
f 97//96 98//96 35//96
f 99//97 98//97 100//97
f 100//98 98//98 101//98
f 101//99 98//99 102//99
f 102//100 98//100 103//100
f 103//101 98//101 104//101
f 104//102 98//102 105//102
f 105//103 98//103 106//103
f 106//104 98//104 107//104
f 107//105 98//105 108//105
f 108//106 98//106 109//106
f 109//107 98//107 110//107
f 110//108 98//108 111//108
f 111//109 98//109 112//109
f 112//110 98//110 113//110
f 113//111 98//111 114//111
f 114//112 98//112 115//112
f 115//113 98//113 116//113
f 116//114 98//114 117//114
f 117//115 98//115 118//115
f 118//116 98//116 119//116
f 119//117 98//117 120//117
f 120//118 98//118 121//118
f 121//119 98//119 122//119
f 122//120 98//120 123//120
f 123//121 98//121 124//121
f 124//122 98//122 125//122
f 125//123 98//123 126//123
f 126//124 98//124 127//124
f 127//125 98//125 128//125
f 128//126 98//126 97//126
f 51//127 98//127 129//127
f 51//128 129//128 95//128
f 129//129 98//129 130//129
f 130//130 98//130 99//130
f 131//131 35//131 98//131
f 131//132 98//132 132//132
f 133//133 134//133 33//133
f 133//134 33//134 52//134
f 135//135 52//135 53//135
f 135//136 133//136 52//136
f 136//137 53//137 54//137
f 136//138 54//138 55//138
f 136//139 135//139 53//139
f 137//140 136//140 55//140
f 138//141 55//141 56//141
f 138//142 137//142 55//142
f 139//143 56//143 57//143
f 139//144 57//144 58//144
f 139//145 138//145 56//145
f 140//146 139//146 58//146
f 141//147 58//147 59//147
f 141//148 140//148 58//148
f 142//149 59//149 60//149
f 142//150 60//150 61//150
f 142//151 141//151 59//151
f 143//152 61//152 62//152
f 143//153 142//153 61//153
f 144//154 143//154 62//154
f 144//155 62//155 63//155
f 145//156 144//156 63//156
f 146//157 145//157 63//157
f 146//158 63//158 64//158
f 146//159 64//159 65//159
f 147//160 146//160 65//160
f 148//161 147//161 65//161
f 148//162 65//162 66//162
f 149//163 148//163 66//163
f 149//164 66//164 67//164
f 150//165 149//165 67//165
f 150//166 67//166 69//166
f 150//167 69//167 71//167
f 151//168 150//168 71//168
f 152//169 151//169 71//169
f 152//170 71//170 73//170
f 152//171 73//171 75//171
f 153//172 152//172 75//172
f 154//173 153//173 75//173
f 154//174 75//174 77//174
f 154//175 77//175 79//175
f 155//176 154//176 79//176
f 156//177 79//177 81//177
f 156//178 155//178 79//178
f 157//179 81//179 83//179
f 157//180 156//180 81//180
f 158//181 83//181 85//181
f 158//182 157//182 83//182
f 159//183 85//183 87//183
f 159//184 158//184 85//184
f 160//185 87//185 89//185
f 160//186 159//186 87//186
f 161//187 89//187 91//187
f 161//188 91//188 93//188
f 161//189 160//189 89//189
f 162//190 161//190 93//190
f 163//191 93//191 95//191
f 163//192 162//192 93//192
f 164//193 95//193 129//193
f 164//194 129//194 130//194
f 164//195 163//195 95//195
f 165//196 130//196 99//196
f 165//197 164//197 130//197
f 166//198 165//198 99//198
f 167//199 99//199 100//199
f 167//200 166//200 99//200
f 168//201 100//201 101//201
f 168//202 167//202 100//202
f 169//203 101//203 102//203
f 169//204 168//204 101//204
f 170//205 169//205 102//205
f 170//206 102//206 103//206
f 170//207 103//207 104//207
f 171//208 170//208 104//208
f 171//209 104//209 105//209
f 172//210 171//210 105//210
f 173//211 172//211 105//211
f 173//212 105//212 106//212
f 174//213 173//213 106//213
f 174//214 106//214 107//214
f 174//215 107//215 108//215
f 175//216 174//216 108//216
f 175//217 108//217 109//217
f 176//218 175//218 109//218
f 177//219 176//219 109//219
f 177//220 109//220 110//220
f 177//221 110//221 111//221
f 178//222 177//222 111//222
f 178//223 111//223 112//223
f 179//224 178//224 112//224
f 180//225 179//225 112//225
f 180//226 112//226 113//226
f 180//227 113//227 114//227
f 181//228 180//228 114//228
f 182//229 181//229 114//229
f 182//230 114//230 115//230
f 182//231 115//231 116//231
f 183//232 182//232 116//232
f 184//233 183//233 116//233
f 184//234 116//234 117//234
f 185//235 184//235 117//235
f 185//236 117//236 118//236
f 186//237 185//237 118//237
f 186//238 118//238 119//238
f 186//239 119//239 120//239
f 187//240 186//240 120//240
f 188//241 187//241 120//241
f 188//242 120//242 121//242
f 189//243 188//243 121//243
f 189//244 121//244 122//244
f 190//245 189//245 122//245
f 190//246 122//246 123//246
f 191//247 123//247 124//247
f 191//248 190//248 123//248
f 192//249 124//249 125//249
f 192//250 191//250 124//250
f 193//251 125//251 126//251
f 193//252 192//252 125//252
f 194//253 126//253 127//253
f 194//254 193//254 126//254
f 195//255 194//255 127//255
f 195//256 127//256 128//256
f 196//257 195//257 128//257
f 196//258 128//258 97//258
f 197//259 196//259 97//259
f 197//260 97//260 96//260
f 198//261 197//261 96//261
f 198//262 96//262 94//262
f 199//263 198//263 94//263
f 199//264 94//264 92//264
f 199//265 92//265 90//265
f 200//266 199//266 90//266
f 201//267 200//267 90//267
f 201//268 90//268 88//268
f 201//269 88//269 86//269
f 202//270 201//270 86//270
f 203//271 202//271 86//271
f 203//272 86//272 84//272
f 203//273 84//273 82//273
f 204//274 203//274 82//274
f 205//275 204//275 82//275
f 205//276 82//276 80//276
f 206//277 205//277 80//277
f 206//278 80//278 78//278
f 207//279 76//279 74//279
f 207//280 206//280 78//280
f 207//281 78//281 76//281
f 208//282 207//282 74//282
f 209//283 74//283 72//283
f 209//284 208//284 74//284
f 210//285 72//285 70//285
f 210//286 70//286 68//286
f 210//287 209//287 72//287
f 211//288 210//288 68//288
f 212//289 68//289 36//289
f 212//290 211//290 68//290
f 213//291 36//291 37//291
f 213//292 212//292 36//292
f 214//293 37//293 38//293
f 214//294 38//294 39//294
f 214//295 213//295 37//295
f 215//296 214//296 39//296
f 216//297 39//297 40//297
f 216//298 40//298 41//298
f 216//299 215//299 39//299
f 217//300 216//300 41//300
f 218//301 41//301 42//301
f 218//302 217//302 41//302
f 219//303 42//303 43//303
f 219//304 218//304 42//304
f 220//305 43//305 44//305
f 220//306 44//306 45//306
f 220//307 219//307 43//307
f 221//308 220//308 45//308
f 222//309 221//309 45//309
f 222//310 45//310 46//310
f 223//311 222//311 46//311
f 223//312 46//312 47//312
f 224//313 223//313 47//313
f 224//314 47//314 48//314
f 224//315 48//315 49//315
f 225//316 224//316 49//316
f 225//317 49//317 50//317
f 226//318 50//318 34//318
f 226//319 225//319 50//319
f 227//320 226//320 34//320
f 228//321 34//321 32//321
f 228//322 227//322 34//322
f 229//323 32//323 30//323
f 229//324 228//324 32//324
f 230//325 30//325 28//325
f 230//326 229//326 30//326
f 231//327 28//327 26//327
f 231//328 230//328 28//328
f 232//329 26//329 24//329
f 232//330 231//330 26//330
f 233//331 24//331 22//331
f 233//332 22//332 20//332
f 233//333 232//333 24//333
f 234//334 233//334 20//334
f 235//335 20//335 18//335
f 235//336 234//336 20//336
f 236//337 18//337 16//337
f 236//338 16//338 14//338
f 236//339 235//339 18//339
f 237//340 236//340 14//340
f 238//341 14//341 12//341
f 238//342 12//342 10//342
f 238//343 237//343 14//343
f 239//344 238//344 10//344
f 240//345 10//345 8//345
f 240//346 8//346 6//346
f 240//347 239//347 10//347
f 241//348 240//348 6//348
f 242//349 6//349 4//349
f 242//350 241//350 6//350
f 243//351 4//351 3//351
f 243//352 242//352 4//352
f 244//353 3//353 2//353
f 244//354 243//354 3//354
f 245//355 244//355 2//355
f 245//356 2//356 5//356
f 246//357 245//357 5//357
f 246//358 5//358 7//358
f 247//359 246//359 7//359
f 247//360 7//360 9//360
f 247//361 9//361 11//361
f 248//362 247//362 11//362
f 248//363 11//363 13//363
f 249//364 248//364 13//364
f 250//365 249//365 13//365
f 250//366 13//366 15//366
f 251//367 250//367 15//367
f 251//368 15//368 17//368
f 251//369 17//369 19//369
f 252//370 251//370 19//370
f 253//371 252//371 19//371
f 253//372 19//372 21//372
f 254//373 253//373 21//373
f 254//374 21//374 23//374
f 255//375 254//375 23//375
f 255//376 23//376 25//376
f 255//377 25//377 27//377
f 256//378 255//378 27//378
f 257//379 27//379 29//379
f 257//380 256//380 27//380
f 258//381 29//381 31//381
f 258//382 257//382 29//382
f 134//383 31//383 33//383
f 134//384 258//384 31//384
f 132//385 259//385 260//385
f 132//386 260//386 131//386
f 214//387 212//387 213//387
f 208//388 209//388 210//388
f 206//389 207//389 208//389
f 219//390 214//390 215//390
f 219//391 215//391 216//391
f 219//392 216//392 217//392
f 219//393 217//393 218//393
f 204//394 206//394 208//394
f 204//395 205//395 206//395
f 221//396 212//396 214//396
f 221//397 214//397 219//397
f 221//398 210//398 211//398
f 221//399 211//399 212//399
f 221//400 219//400 220//400
f 202//401 208//401 210//401
f 202//402 204//402 208//402
f 202//403 203//403 204//403
f 226//404 223//404 224//404
f 226//405 224//405 225//405
f 230//406 228//406 229//406
f 193//407 210//407 221//407
f 193//408 194//408 195//408
f 193//409 202//409 210//409
f 193//410 195//410 196//410
f 193//411 196//411 197//411
f 193//412 197//412 198//412
f 193//413 198//413 199//413
f 193//414 199//414 200//414
f 193//415 200//415 201//415
f 193//416 201//416 202//416
f 193//417 221//417 222//417
f 193//418 222//418 223//418
f 232//419 228//419 230//419
f 232//420 227//420 228//420
f 232//421 230//421 231//421
f 191//422 192//422 193//422
f 190//423 191//423 193//423
f 190//424 193//424 223//424
f 190//425 223//425 226//425
f 190//426 226//426 227//426
f 188//427 189//427 190//427
f 236//428 233//428 234//428
f 236//429 234//429 235//429
f 236//430 227//430 232//430
f 236//431 232//431 233//431
f 186//432 188//432 190//432
f 186//433 187//433 188//433
f 239//434 236//434 237//434
f 239//435 237//435 238//435
f 182//436 183//436 184//436
f 182//437 184//437 185//437
f 181//438 182//438 185//438
f 181//439 185//439 186//439
f 180//440 181//440 186//440
f 179//441 180//441 186//441
f 245//442 242//442 243//442
f 245//443 243//443 244//443
f 246//444 242//444 245//444
f 177//445 178//445 179//445
f 247//446 242//446 246//446
f 249//447 247//447 248//447
f 249//448 242//448 247//448
f 174//449 175//449 176//449
f 174//450 176//450 177//450
f 250//451 242//451 249//451
f 173//452 174//452 177//452
f 173//453 179//453 186//453
f 173//454 177//454 179//454
f 251//455 241//455 242//455
f 251//456 242//456 250//456
f 252//457 240//457 241//457
f 252//458 241//458 251//458
f 171//459 172//459 173//459
f 253//460 239//460 240//460
f 253//461 227//461 236//461
f 253//462 236//462 239//462
f 253//463 240//463 252//463
f 170//464 171//464 173//464
f 255//465 253//465 254//465
f 256//466 253//466 255//466
f 166//467 167//467 168//467
f 166//468 168//468 169//468
f 166//469 169//469 170//469
f 166//470 170//470 173//470
f 134//471 253//471 256//471
f 134//472 256//472 257//472
f 134//473 257//473 258//473
f 164//474 165//474 166//474
f 162//475 163//475 164//475
f 136//476 133//476 135//476
f 161//477 162//477 164//477
f 137//478 134//478 133//478
f 137//479 133//479 136//479
f 137//480 253//480 134//480
f 158//481 159//481 160//481
f 140//482 137//482 138//482
f 140//483 138//483 139//483
f 140//484 253//484 137//484
f 156//485 164//485 166//485
f 156//486 158//486 160//486
f 156//487 157//487 158//487
f 156//488 160//488 161//488
f 156//489 161//489 164//489
f 143//490 140//490 141//490
f 143//491 141//491 142//491
f 153//492 154//492 155//492
f 153//493 155//493 156//493
f 152//494 153//494 156//494
f 146//495 143//495 144//495
f 146//496 144//496 145//496
f 146//497 186//497 190//497
f 146//498 190//498 227//498
f 146//499 253//499 140//499
f 146//500 140//500 143//500
f 146//501 173//501 186//501
f 146//502 227//502 253//502
f 151//503 166//503 173//503
f 151//504 156//504 166//504
f 151//505 152//505 156//505
f 148//506 146//506 147//506
f 148//507 173//507 146//507
f 148//508 151//508 173//508
f 149//509 150//509 151//509
f 149//510 151//510 148//510
f 261//511 259//511 262//511
f 263//512 262//512 259//512
f 264//513 259//513 261//513
f 265//514 263//514 259//514
f 266//515 259//515 264//515
f 267//516 265//516 259//516
f 268//517 259//517 266//517
f 269//518 267//518 259//518
f 270//519 259//519 268//519
f 271//520 269//520 259//520
f 272//521 259//521 270//521
f 273//522 271//522 259//522
f 274//523 259//523 272//523
f 275//524 273//524 259//524
f 276//525 259//525 274//525
f 277//526 275//526 259//526
f 278//527 259//527 276//527
f 279//528 277//528 259//528
f 280//529 259//529 278//529
f 281//530 279//530 259//530
f 282//531 259//531 280//531
f 283//532 281//532 259//532
f 284//533 259//533 282//533
f 285//534 283//534 259//534
f 286//535 259//535 284//535
f 287//536 285//536 259//536
f 288//537 259//537 286//537
f 289//538 287//538 259//538
f 290//539 259//539 288//539
f 291//540 259//540 290//540
f 260//541 292//541 293//541
f 260//542 294//542 292//542
f 260//543 295//543 294//543
f 260//544 296//544 295//544
f 260//545 297//545 296//545
f 260//546 298//546 297//546
f 260//547 299//547 298//547
f 260//548 291//548 299//548
f 260//549 259//549 291//549
f 300//550 260//550 293//550
f 301//551 260//551 300//551
f 302//552 260//552 301//552
f 303//553 260//553 302//553
f 304//554 260//554 303//554
f 305//555 260//555 304//555
f 306//556 260//556 305//556
f 307//557 308//557 309//557
f 307//558 310//558 308//558
f 307//559 311//559 310//559
f 307//560 312//560 311//560
f 307//561 313//561 312//561
f 307//562 314//562 313//562
f 307//563 315//563 314//563
f 307//564 316//564 315//564
f 307//565 317//565 316//565
f 307//566 318//566 317//566
f 307//567 319//567 318//567
f 307//568 320//568 319//568
f 307//569 321//569 320//569
f 307//570 322//570 321//570
f 307//571 289//571 259//571
f 307//572 323//572 289//572
f 307//573 324//573 323//573
f 307//574 309//574 324//574
f 325//575 260//575 306//575
f 326//576 322//576 307//576
f 327//577 260//577 325//577
f 328//578 326//578 307//578
f 329//579 260//579 327//579
f 330//580 328//580 307//580
f 331//581 260//581 329//581
f 332//582 330//582 307//582
f 333//583 260//583 331//583
f 334//584 332//584 307//584
f 335//585 260//585 333//585
f 336//586 334//586 307//586
f 337//587 260//587 335//587
f 338//588 336//588 307//588
f 339//589 260//589 337//589
f 340//590 338//590 307//590
f 341//591 260//591 339//591
f 342//592 340//592 307//592
f 343//593 260//593 341//593
f 344//594 342//594 307//594
f 345//595 260//595 343//595
f 346//596 344//596 307//596
f 347//597 260//597 345//597
f 348//598 346//598 307//598
f 349//599 260//599 347//599
f 350//600 348//600 307//600
f 351//601 350//601 307//601
f 352//602 351//602 307//602
f 353//603 352//603 307//603
f 354//604 355//604 353//604
f 354//605 356//605 355//605
f 354//606 357//606 356//606
f 354//607 358//607 357//607
f 354//608 359//608 358//608
f 354//609 360//609 359//609
f 354//610 361//610 360//610
f 354//611 362//611 361//611
f 354//612 363//612 362//612
f 354//613 364//613 363//613
f 354//614 365//614 364//614
f 354//615 366//615 365//615
f 354//616 367//616 366//616
f 354//617 368//617 367//617
f 354//618 369//618 368//618
f 354//619 370//619 369//619
f 354//620 371//620 370//620
f 354//621 372//621 371//621
f 354//622 373//622 372//622
f 354//623 353//623 307//623
f 354//624 374//624 373//624
f 354//625 375//625 374//625
f 354//626 376//626 375//626
f 354//627 377//627 376//627
f 354//628 378//628 377//628
f 354//629 379//629 378//629
f 354//630 380//630 379//630
f 354//631 381//631 380//631
f 354//632 382//632 381//632
f 354//633 383//633 382//633
f 354//634 384//634 383//634
f 354//635 260//635 385//635
f 385//636 260//636 386//636
f 386//637 260//637 387//637
f 387//638 260//638 349//638
f 354//639 385//639 388//639
f 354//640 388//640 384//640
f 307//641 389//641 390//641
f 307//642 390//642 354//642
f 391//643 392//643 353//643
f 391//644 353//644 355//644
f 393//645 355//645 356//645
f 393//646 391//646 355//646
f 394//647 356//647 357//647
f 394//648 393//648 356//648
f 395//649 357//649 358//649
f 395//650 394//650 357//650
f 396//651 358//651 359//651
f 396//652 395//652 358//652
f 397//653 359//653 360//653
f 397//654 360//654 361//654
f 397//655 396//655 359//655
f 398//656 397//656 361//656
f 399//657 361//657 362//657
f 399//658 398//658 361//658
f 400//659 362//659 363//659
f 400//660 399//660 362//660
f 401//661 363//661 364//661
f 401//662 364//662 365//662
f 401//663 400//663 363//663
f 402//664 401//664 365//664
f 403//665 402//665 365//665
f 403//666 365//666 366//666
f 404//667 403//667 366//667
f 404//668 366//668 367//668
f 405//669 404//669 367//669
f 405//670 367//670 368//670
f 406//671 405//671 368//671
f 406//672 368//672 369//672
f 407//673 406//673 369//673
f 407//674 369//674 370//674
f 408//675 407//675 370//675
f 408//676 370//676 371//676
f 408//677 371//677 372//677
f 409//678 408//678 372//678
f 410//679 409//679 372//679
f 410//680 372//680 373//680
f 411//681 410//681 373//681
f 411//682 373//682 374//682
f 411//683 374//683 375//683
f 412//684 411//684 375//684
f 412//685 375//685 376//685
f 413//686 412//686 376//686
f 414//687 376//687 377//687
f 414//688 413//688 376//688
f 415//689 377//689 378//689
f 415//690 414//690 377//690
f 416//691 378//691 379//691
f 416//692 415//692 378//692
f 417//693 379//693 380//693
f 417//694 416//694 379//694
f 418//695 380//695 381//695
f 418//696 417//696 380//696
f 419//697 381//697 382//697
f 419//698 418//698 381//698
f 420//699 382//699 383//699
f 420//700 419//700 382//700
f 421//701 383//701 384//701
f 421//702 420//702 383//702
f 422//703 384//703 388//703
f 422//704 421//704 384//704
f 423//705 388//705 385//705
f 423//706 385//706 386//706
f 423//707 422//707 388//707
f 424//708 423//708 386//708
f 425//709 386//709 387//709
f 425//710 424//710 386//710
f 426//711 387//711 349//711
f 426//712 425//712 387//712
f 427//713 349//713 347//713
f 427//714 426//714 349//714
f 428//715 427//715 347//715
f 428//716 347//716 345//716
f 429//717 428//717 345//717
f 429//718 345//718 343//718
f 430//719 429//719 343//719
f 430//720 343//720 341//720
f 431//721 430//721 341//721
f 431//722 341//722 339//722
f 432//723 431//723 339//723
f 432//724 339//724 337//724
f 433//725 432//725 337//725
f 433//726 337//726 335//726
f 434//727 433//727 335//727
f 434//728 335//728 333//728
f 435//729 434//729 333//729
f 435//730 333//730 331//730
f 436//731 435//731 331//731
f 436//732 331//732 329//732
f 437//733 436//733 329//733
f 437//734 329//734 327//734
f 438//735 437//735 327//735
f 438//736 327//736 325//736
f 439//737 438//737 325//737
f 439//738 325//738 306//738
f 440//739 439//739 306//739
f 440//740 306//740 305//740
f 441//741 440//741 305//741
f 441//742 305//742 304//742
f 442//743 441//743 304//743
f 442//744 304//744 303//744
f 443//745 442//745 303//745
f 443//746 303//746 302//746
f 443//747 302//747 301//747
f 444//748 443//748 301//748
f 445//749 444//749 301//749
f 445//750 301//750 300//750
f 446//751 445//751 300//751
f 446//752 300//752 293//752
f 447//753 446//753 293//753
f 447//754 293//754 292//754
f 448//755 447//755 292//755
f 448//756 292//756 294//756
f 449//757 294//757 295//757
f 449//758 448//758 294//758
f 450//759 295//759 296//759
f 450//760 449//760 295//760
f 451//761 296//761 297//761
f 451//762 450//762 296//762
f 452//763 297//763 298//763
f 452//764 451//764 297//764
f 453//765 452//765 298//765
f 453//766 298//766 299//766
f 454//767 453//767 299//767
f 454//768 299//768 291//768
f 455//769 454//769 291//769
f 455//770 291//770 290//770
f 456//771 455//771 290//771
f 456//772 290//772 288//772
f 457//773 456//773 288//773
f 457//774 288//774 286//774
f 458//775 457//775 286//775
f 458//776 286//776 284//776
f 459//777 458//777 284//777
f 459//778 284//778 282//778
f 460//779 459//779 282//779
f 460//780 282//780 280//780
f 461//781 460//781 280//781
f 461//782 280//782 278//782
f 462//783 461//783 278//783
f 462//784 278//784 276//784
f 463//785 462//785 276//785
f 463//786 276//786 274//786
f 464//787 463//787 274//787
f 464//788 274//788 272//788
f 465//789 464//789 272//789
f 465//790 272//790 270//790
f 466//791 270//791 268//791
f 466//792 465//792 270//792
f 467//793 268//793 266//793
f 467//794 466//794 268//794
f 468//795 266//795 264//795
f 468//796 467//796 266//796
f 469//797 264//797 261//797
f 469//798 468//798 264//798
f 470//799 261//799 262//799
f 470//800 469//800 261//800
f 471//801 262//801 263//801
f 471//802 470//802 262//802
f 472//803 263//803 265//803
f 472//804 471//804 263//804
f 473//805 265//805 267//805
f 473//806 472//806 265//806
f 474//807 267//807 269//807
f 474//808 473//808 267//808
f 475//809 269//809 271//809
f 475//810 474//810 269//810
f 476//811 271//811 273//811
f 476//812 475//812 271//812
f 477//813 273//813 275//813
f 477//814 476//814 273//814
f 478//815 275//815 277//815
f 478//816 477//816 275//816
f 479//817 478//817 277//817
f 479//818 277//818 279//818
f 480//819 479//819 279//819
f 480//820 279//820 281//820
f 481//821 480//821 281//821
f 481//822 281//822 283//822
f 482//823 481//823 283//823
f 482//824 283//824 285//824
f 483//825 285//825 287//825
f 483//826 482//826 285//826
f 484//827 287//827 289//827
f 484//828 483//828 287//828
f 485//829 289//829 323//829
f 485//830 484//830 289//830
f 486//831 323//831 324//831
f 486//832 485//832 323//832
f 487//833 324//833 309//833
f 487//834 486//834 324//834
f 488//835 309//835 308//835
f 488//836 487//836 309//836
f 489//837 308//837 310//837
f 489//838 488//838 308//838
f 490//839 310//839 311//839
f 490//840 489//840 310//840
f 491//841 311//841 312//841
f 491//842 490//842 311//842
f 492//843 312//843 313//843
f 492//844 491//844 312//844
f 493//845 313//845 314//845
f 493//846 492//846 313//846
f 494//847 314//847 315//847
f 494//848 493//848 314//848
f 495//849 315//849 316//849
f 495//850 494//850 315//850
f 496//851 316//851 317//851
f 496//852 495//852 316//852
f 497//853 317//853 318//853
f 497//854 496//854 317//854
f 498//855 318//855 319//855
f 498//856 497//856 318//856
f 499//857 319//857 320//857
f 499//858 498//858 319//858
f 500//859 320//859 321//859
f 500//860 499//860 320//860
f 501//861 321//861 322//861
f 501//862 500//862 321//862
f 502//863 322//863 326//863
f 502//864 501//864 322//864
f 503//865 502//865 326//865
f 503//866 326//866 328//866
f 504//867 503//867 328//867
f 504//868 328//868 330//868
f 505//869 504//869 330//869
f 505//870 330//870 332//870
f 506//871 505//871 332//871
f 506//872 332//872 334//872
f 507//873 506//873 334//873
f 507//874 334//874 336//874
f 508//875 507//875 336//875
f 508//876 336//876 338//876
f 509//877 508//877 338//877
f 509//878 338//878 340//878
f 510//879 509//879 340//879
f 510//880 340//880 342//880
f 511//881 510//881 342//881
f 511//882 342//882 344//882
f 512//883 511//883 344//883
f 512//884 344//884 346//884
f 513//885 512//885 346//885
f 513//886 346//886 348//886
f 514//887 513//887 348//887
f 514//888 348//888 350//888
f 515//889 514//889 350//889
f 515//890 350//890 351//890
f 516//891 351//891 352//891
f 516//892 515//892 351//892
f 392//893 352//893 353//893
f 392//894 516//894 352//894
f 472//895 470//895 471//895
f 466//896 467//896 468//896
f 466//897 468//897 469//897
f 475//898 473//898 474//898
f 477//899 473//899 475//899
f 477//900 472//900 473//900
f 477//901 475//901 476//901
f 462//902 470//902 472//902
f 462//903 466//903 469//903
f 462//904 472//904 477//904
f 462//905 463//905 464//905
f 462//906 464//906 465//906
f 462//907 465//907 466//907
f 462//908 469//908 470//908
f 479//909 477//909 478//909
f 460//910 461//910 462//910
f 481//911 479//911 480//911
f 458//912 459//912 460//912
f 482//913 479//913 481//913
f 457//914 458//914 460//914
f 484//915 482//915 483//915
f 485//916 479//916 482//916
f 485//917 482//917 484//917
f 454//918 455//918 456//918
f 454//919 456//919 457//919
f 488//920 486//920 487//920
f 451//921 452//921 453//921
f 450//922 451//922 453//922
f 490//923 486//923 488//923
f 490//924 479//924 485//924
f 490//925 485//925 486//925
f 490//926 488//926 489//926
f 449//927 450//927 453//927
f 449//928 453//928 454//928
f 491//929 479//929 490//929
f 448//930 449//930 454//930
f 446//931 447//931 448//931
f 445//932 446//932 448//932
f 445//933 448//933 454//933
f 496//934 494//934 495//934
f 443//935 445//935 454//935
f 443//936 444//936 445//936
f 443//937 462//937 477//937
f 443//938 460//938 462//938
f 443//939 457//939 460//939
f 443//940 454//940 457//940
f 498//941 491//941 492//941
f 498//942 492//942 493//942
f 498//943 493//943 494//943
f 498//944 496//944 497//944
f 498//945 494//945 496//945
f 441//946 442//946 443//946
f 499//947 491//947 498//947
f 439//948 441//948 443//948
f 439//949 440//949 441//949
f 437//950 438//950 439//950
f 503//951 499//951 500//951
f 503//952 500//952 501//952
f 503//953 501//953 502//953
f 503//954 491//954 499//954
f 436//955 439//955 443//955
f 436//956 437//956 439//956
f 434//957 435//957 436//957
f 434//958 436//958 443//958
f 506//959 479//959 491//959
f 506//960 503//960 504//960
f 506//961 504//961 505//961
f 506//962 491//962 503//962
f 506//963 477//963 479//963
f 431//964 432//964 433//964
f 431//965 433//965 434//965
f 509//966 507//966 508//966
f 510//967 507//967 509//967
f 511//968 507//968 510//968
f 428//969 429//969 430//969
f 428//970 430//970 431//970
f 428//971 434//971 443//971
f 428//972 431//972 434//972
f 513//973 511//973 512//973
f 426//974 427//974 428//974
f 515//975 513//975 514//975
f 515//976 511//976 513//976
f 423//977 424//977 425//977
f 423//978 425//978 426//978
f 391//979 511//979 515//979
f 391//980 506//980 507//980
f 391//981 515//981 516//981
f 391//982 516//982 392//982
f 391//983 507//983 511//983
f 420//984 426//984 428//984
f 420//985 423//985 426//985
f 420//986 421//986 422//986
f 420//987 422//987 423//987
f 394//988 391//988 393//988
f 394//989 506//989 391//989
f 394//990 477//990 506//990
f 417//991 418//991 419//991
f 397//992 394//992 395//992
f 397//993 395//993 396//993
f 399//994 397//994 398//994
f 400//995 397//995 399//995
f 413//996 414//996 415//996
f 413//997 415//997 416//997
f 413//998 416//998 417//998
f 413//999 417//999 419//999
f 402//1000 400//1000 401//1000
f 402//1001 394//1001 397//1001
f 402//1002 397//1002 400//1002
f 403//1003 394//1003 402//1003
f 410//1004 420//1004 428//1004
f 410//1005 411//1005 412//1005
f 410//1006 412//1006 413//1006
f 410//1007 419//1007 420//1007
f 410//1008 413//1008 419//1008
f 405//1009 477//1009 394//1009
f 405//1010 403//1010 404//1010
f 405//1011 443//1011 477//1011
f 405//1012 394//1012 403//1012
f 407//1013 405//1013 406//1013
f 407//1014 408//1014 409//1014
f 407//1015 409//1015 410//1015
f 407//1016 410//1016 428//1016
f 407//1017 443//1017 405//1017
f 407//1018 428//1018 443//1018
f 259//1019 132//1019 98//1019
f 259//1020 98//1020 51//1020
f 389//1021 307//1021 259//1021
f 389//1022 259//1022 51//1022
f 1//1023 390//1023 389//1023
f 1//1024 389//1024 51//1024
f 35//1025 260//1025 1//1025
f 131//1026 260//1026 35//1026
f 390//1027 1//1027 260//1027
f 354//1028 390//1028 260//1028
